<svg id="Слой_1" data-name="Слой 1" xmlns="http://www.w3.org/2000/svg" viewBox="0 0 1000 1000"><title>icons_work</title><path d="M898.44,31.22H101.56a70.41,70.41,0,0,0-70.34,70.34V898.44a70.41,70.41,0,0,0,70.34,70.34H898.44a70.41,70.41,0,0,0,70.34-70.34V101.56A70.41,70.41,0,0,0,898.44,31.22Zm33.34,867.22a33.37,33.37,0,0,1-33.34,33.34H101.56a33.37,33.37,0,0,1-33.34-33.34V101.56a33.37,33.37,0,0,1,33.34-33.34H898.44a33.37,33.37,0,0,1,33.34,33.34Z" fill="#050000"/><path d="M835.93,481.5H518.5V164.07a18.5,18.5,0,1,0-37,0V481.5H164.07a18.5,18.5,0,1,0,0,37H481.5V835.93a18.5,18.5,0,0,0,37,0V518.5H835.93a18.5,18.5,0,0,0,0-37Z" fill="#050000"/></svg>