<svg xmlns="http://www.w3.org/2000/svg" xml:space="preserve" width="1000" height="1000" version="1.2"><path d="M860 447.47c-6.6 0-12.9-3.3-16.6-8.8L740 285.37l-103.4 153.2c-3.7 5.5-9.9 8.8-16.6 8.8-6.7 0-12.9-3.3-16.6-8.8L500 285.37l-103.4 153.2c-3.7 5.5-9.9 8.8-16.6 8.8-6.7 0-12.9-3.3-16.6-8.8L260 285.37l-103.4 153.2c-3.7 5.5-9.9 8.8-16.6 8.8-6.6 0-12.9-3.3-16.6-8.8l-120-177.8c-6.2-9.2-3.8-21.6 5.4-27.8 9.2-6.2 21.6-3.8 27.8 5.4L140 391.67l103.4-153.2c3.7-5.5 9.9-8.8 16.6-8.8 6.7 0 12.9 3.3 16.6 8.8L380 391.67l103.4-153.2c3.7-5.5 9.9-8.8 16.6-8.8 6.6 0 12.9 3.3 16.6 8.8L620 391.67l103.4-153.2c3.7-5.5 9.9-8.8 16.6-8.8 6.7 0 12.9 3.3 16.6 8.8L860 391.67l103.4-153.2c6.2-9.2 18.6-11.6 27.8-5.4 9.2 6.2 11.6 18.6 5.4 27.8l-120 177.8c-3.7 5.5-10 8.8-16.6 8.8zm0 323c-6.6 0-12.9-3.3-16.6-8.8L740 608.47l-103.4 153.2c-3.7 5.5-9.9 8.8-16.6 8.8-6.7 0-12.9-3.3-16.6-8.8L500 608.47l-103.4 153.2c-3.7 5.5-9.9 8.8-16.6 8.8-6.7 0-12.9-3.3-16.6-8.8L260 608.47l-103.4 153.2c-3.7 5.5-9.9 8.8-16.6 8.8-6.6 0-12.9-3.3-16.6-8.8l-120-177.8c-6.2-9.2-3.8-21.6 5.4-27.8 9.2-6.2 21.6-3.8 27.8 5.4L140 714.77l103.4-153.2c3.7-5.5 9.9-8.8 16.6-8.8 6.7 0 12.9 3.3 16.6 8.8L380 714.77l103.4-153.2c3.7-5.5 9.9-8.8 16.6-8.8 6.6 0 12.9 3.3 16.6 8.8L620 714.77l103.4-153.2c3.7-5.5 9.9-8.8 16.6-8.8 6.7 0 12.9 3.3 16.6 8.8L860 714.77l103.4-153.2c6.2-9.2 18.6-11.6 27.8-5.4 9.2 6.2 11.6 18.6 5.4 27.8l-120 177.8c-3.7 5.4-10 8.7-16.6 8.7z"/></svg>