<svg xmlns="http://www.w3.org/2000/svg" viewBox="0 0 1000 1000"><path fill="#010101" d="M960.7 305.4a498.3 498.3 0 0 0-107.2-159A498.4 498.4 0 0 0 500 0a498.3 498.3 0 0 0-353.6 146.4A498.4 498.4 0 0 0 0 500a498.3 498.3 0 0 0 146.4 353.6A498.4 498.4 0 0 0 500 1000a498.3 498.3 0 0 0 353.6-146.4A498.4 498.4 0 0 0 1000 500c0-67.5-13.2-133-39.3-194.6ZM500 968.7A469.3 469.3 0 0 1 31.3 500a467 467 0 0 1 126.5-320L820 842.2a467 467 0 0 1-320 126.5ZM842.2 820 180 157.8A467 467 0 0 1 500 31.3 469.3 469.3 0 0 1 968.7 500a467 467 0 0 1-126.5 320Z"/></svg>
