<svg xmlns="http://www.w3.org/2000/svg" xml:space="preserve" width="1000" height="1000" version="1.2"><path d="M289.5-.008c-22.9 0-44 5.7-63.2 17.2-19.2 11.5-34.6 27-46 46.5-11.5 19.6-17.2 40.5-17.2 62.7v830.7c0 11.5 3.5 21.1 10.6 28.8 7.1 7.8 15.9 12.3 26.3 13.7 10.5 1.3 20.4-1.3 29.8-8.1l270.2-193.2 270.2 193.3c9.4 6.7 19.4 9.4 29.8 8.1 10.5-1.3 19.2-5.9 26.3-13.7 7.1-7.8 10.6-17.4 10.6-28.8v-830.7c0-22.3-5.7-43.2-17.2-62.7-11.5-19.6-26.8-35.1-46-46.5-19.2-11.5-40.3-17.2-63.2-17.2h-421z"/></svg>