<svg xmlns="http://www.w3.org/2000/svg" xml:space="preserve" width="1000" height="1000" version="1.2"><path d="M318.6 352.85H218.1c-16.6 0-30.1 13.5-30.1 30.1v70.6c0 16.6 13.5 30.1 30.1 30.1h100.5c16.6 0 30.1-13.5 30.1-30.1v-70.6c0-16.6-13.5-30.1-30.1-30.1zm-9.9 90.8H228v-50.8h80.7zm241.3-90.8H449.5c-16.6 0-30.1 13.5-30.1 30.1v70.6c0 16.6 13.5 30.1 30.1 30.1H550c16.6 0 30.1-13.5 30.1-30.1v-70.6c0-16.6-13.5-30.1-30.1-30.1zm-9.9 90.8h-80.7v-50.8h80.7zm241.8-90.8H681.4c-16.6 0-30.1 13.5-30.1 30.1v70.6c0 16.6 13.5 30.1 30.1 30.1h100.5c16.6 0 30.1-13.5 30.1-30.1v-70.6c0-16.6-13.5-30.1-30.1-30.1zm-9.9 90.8h-80.7v-50.8H772Zm-453.4 80.7H218.1c-16.6 0-30.1 13.5-30.1 30.1v70.6c0 16.6 13.5 30.1 30.1 30.1h100.5c16.6 0 30.1-13.5 30.1-30.1v-70.6c0-16.6-13.5-30.1-30.1-30.1zm-9.9 90.7H228v-50.8h80.7zm241.3-90.7H449.5c-16.6 0-30.1 13.5-30.1 30.1v70.6c0 16.6 13.5 30.1 30.1 30.1H550c16.6 0 30.1-13.5 30.1-30.1v-70.6c0-16.6-13.5-30.1-30.1-30.1zm-9.9 90.7h-80.7v-50.8h80.7zm241.8-90.7H681.4c-16.6 0-30.1 13.5-30.1 30.1v70.6c0 16.6 13.5 30.1 30.1 30.1h100.5c16.6 0 30.1-13.5 30.1-30.1v-70.6c0-16.6-13.5-30.1-30.1-30.1zm-9.9 90.7h-80.7v-50.8H772Zm-453.4 81.2H218.1c-16.6 0-30.1 13.5-30.1 30.1v70.6c0 16.6 13.5 30.1 30.1 30.1h100.5c16.6 0 30.1-13.5 30.1-30.1v-70.6c0-16.6-13.5-30.1-30.1-30.1zm-9.9 90.7H228v-50.8h80.7zm241.3-90.7H449.5c-16.6 0-30.1 13.5-30.1 30.1v70.6c0 16.6 13.5 30.1 30.1 30.1H550c16.6 0 30.1-13.5 30.1-30.1v-70.6c0-16.6-13.5-30.1-30.1-30.1zm-9.9 90.7h-80.7v-50.8h80.7zm241.8-90.7H681.4c-16.6 0-30.1 13.5-30.1 30.1v70.6c0 16.6 13.5 30.1 30.1 30.1h100.5c16.6 0 30.1-13.5 30.1-30.1v-70.6c0-16.6-13.5-30.1-30.1-30.1zm-9.9 90.7h-80.7v-50.8H772Zm157.6-695.2H802.4v-68.7c0-11-9-20-20-20s-20 9-20 20v68.7H520v-68.7c0-11-9-20-20-20s-20 9-20 20v68.7H228.2v-68.7c0-11-9-20-20-20s-20 9-20 20v68.7H70.4c-38.8 0-70.4 31.6-70.4 70.4v764.4c0 38.8 31.6 70.4 70.4 70.4h859.2c38.8 0 70.4-31.6 70.4-70.4v-764.4c0-38.8-31.6-70.4-70.4-70.4zm30.4 834.8c0 16.8-13.6 30.4-30.4 30.4H70.4c-16.8 0-30.4-13.6-30.4-30.4v-764.4c0-16.8 13.6-30.4 30.4-30.4h117.8v117.6c0 11 9 20 20 20s20-9 20-20v-117.6H480v117.6c0 11 9 20 20 20s20-9 20-20v-117.6h242.4v117.6c0 11 9 20 20 20s20-9 20-20v-117.6h127.2c16.8 0 30.4 13.6 30.4 30.4z"/></svg>