<svg xmlns="http://www.w3.org/2000/svg" xml:space="preserve" width="1000" height="1000" version="1.2"><path d="M967.212 136.941c-50.7-34.4-107.9-63.2-170.2-85.4-60.7-21.7-124.9-36.8-190.7-44.8-66-8.1-131.9-8.8-196.1-2.3-66.1 6.7-128.8 21.1-186.5 42.7-1.9.7-3.6 1.7-5.1 2.8-22.6 7.6-44 18.8-63.7 33.4-49.5 36.6-81.7 90.4-90.8 151.2-9.1 60.8 6.1 121.7 42.8 171.1 36.6 49.5 90.4 81.7 151.2 90.8 11.5 1.7 23 2.6 34.4 2.6 49 0 96.6-15.6 136.7-45.3 49.5-36.6 81.7-90.4 90.8-151.2 9.1-60.9-6.1-121.7-42.8-171.1-28.1-38-66.3-65.8-110.1-80.8 196.1-32.1 418.2 11.3 577.5 119.5 3.4 2.3 7.4 3.5 11.2 3.5 6.4 0 12.7-3.1 16.6-8.8 6.3-9.3 3.9-21.7-5.2-27.9zm-486.7 159.5c-15.4 103.9-112.5 175.8-216.4 160.4-50.3-7.5-94.7-34.1-125-75-30.3-40.9-42.8-91.1-35.3-141.4 11.7-78.7 70.2-139 143.1-156.9 2.5-.5 5.1-1.1 7.7-1.7 12.2-2.5 24.7-3.8 37.4-3.8 9.3 0 18.7.7 28.2 2.1 103.9 15.4 175.8 112.5 160.3 216.3zm261.3 207.1c-60.9-9.1-121.7 6.1-171.1 42.8-49.4 36.7-81.7 90.4-90.8 151.2-9.1 60.9 6.1 121.7 42.8 171.1 28.1 38 66.3 65.8 110.1 80.8-196.1 32.1-418.2-11.3-577.5-119.5-9.1-6.2-21.6-3.8-27.8 5.3-6.2 9.1-3.8 21.6 5.3 27.8 50.7 34.4 107.9 63.1 170.2 85.4 60.7 21.7 124.9 36.8 190.7 44.8 36.5 4.5 72.9 6.7 109.1 6.7 29.3 0 58.3-1.5 87-4.4 66.1-6.7 128.8-21.1 186.5-42.7 1.9-.7 3.6-1.7 5.1-2.8 22.6-7.6 44.1-18.8 63.7-33.4 49.5-36.6 81.7-90.4 90.8-151.2 9.1-60.9-6.1-121.7-42.8-171.1-36.7-49.5-90.4-81.8-151.3-90.8zm154.5 256c-7.5 50.3-34.1 94.7-75 125-20.1 14.9-42.4 25.4-65.8 31.5-4.1.8-8 1.7-11.5 2.5-.1 0-.2.1-.4.1-11.6 2.2-23.4 3.3-35.3 3.3-9.4 0-19-.7-28.5-2.1-50.3-7.5-94.7-34.1-125-75-30.3-40.9-42.8-91.1-35.3-141.4 7.5-50.3 34.1-94.7 75-125 33.2-24.6 72.5-37.5 113-37.5 9.4 0 19 .7 28.5 2.1 103.8 15.5 175.7 112.6 160.3 216.5z"/></svg>