<svg xmlns="http://www.w3.org/2000/svg" viewBox="0 0 1000 1000"><path d="M960.7 303.8a495.4 495.4 0 0 0-107.2-158.1A498.4 498.4 0 0 0 500 0a499.2 499.2 0 0 0-353.6 145.7A495.6 495.6 0 0 0 0 497.3c0 55.3 8.6 109.4 25.4 160.8 16.5 50.2 40.6 97 71.6 139a483.1 483.1 0 0 0 252 177c51 17.3 106 25.9 159.7 25.9 54 0 106.3-8.7 151.4-26.2a520.5 520.5 0 0 0 242.2-183c31-42.4 55-88.7 71.7-137.4a483.2 483.2 0 0 0 26-156c0-67.2-13.2-132.3-39.3-193.6Zm-66.8-49.2H793.6a931 931 0 0 0-93.6-173 465.8 465.8 0 0 1 193.9 173ZM791.6 674.2h-124L583.5 291h186c48.8 130.7 56.2 260.6 22.2 383.2ZM500 903 349 777l121.9-555.2a173.3 173.3 0 0 0 58.3.3L651 777l-151 126ZM236 291h180.4l-84.1 383.3H214.6C180.2 551.5 187.3 421.6 236 291Zm126.8-160.3c15.9 37.7 40 64.4 71.4 79.5l-9.8 44.5H250.7a924 924 0 0 1 98-171.3c2.8 14.3 7.2 30.7 14.1 47.3Zm212.8 124L566 211c32.4-14.8 57.6-41.8 74.2-80.3a244 244 0 0 0 15.1-49.4 931.3 931.3 0 0 1 99.5 173.3H575.6Zm47.1-201.8c-1.4 14.1-5.4 38.9-16 63.6-20.6 47.4-56.1 71.5-105.7 71.5s-84.1-23.7-104-70.5a220.4 220.4 0 0 1-15.8-65.7 465 465 0 0 1 241.5 1Zm-314.6 25a938.8 938.8 0 0 0-96.7 176.8H106.1a465.7 465.7 0 0 1 202-176.8ZM85.6 291h112A695 695 0 0 0 157 499.7c-2 59.3 4.6 117.8 19.4 174.5H70.2a476.3 476.3 0 0 1-33.6-176.9c0-74.1 17.7-144.2 49-206.3Zm1 419.6h100.6c2.9 8.9 6 17.8 9.4 26.6a696.7 696.7 0 0 0 101.9 179 447 447 0 0 1-212-205.6Zm280.8 231.2-1.2-1.5c-65-72-111.7-149.1-140.1-229.7h98.2l-17.7 80.7 181 151.1.5.3.7.5 1 .7.6.4a19 19 0 0 0 3.4 1.6l.5.1a17.6 17.6 0 0 0 3.4.7l.4.1 2 .1a19.7 19.7 0 0 0 3.7-.4l.6-.1 1.3-.4.5-.1 1.7-.7h.1a19 19 0 0 0 1.7-.9l.6-.4 1-.6.6-.5.5-.4 181-151.1-17.7-80.7h104.7c-28.2 80.7-74.7 158-139.6 229.7-.8.8-1.4 1.7-2 2.6-39 13.9-83.8 20.9-130 20.9a466 466 0 0 1-141.3-22ZM713 910.4a686.1 686.1 0 0 0 105.8-199.8h91a485.8 485.8 0 0 1-196.8 199.8Zm214-236.2h-97.7a614.4 614.4 0 0 0 18.9-171A702.4 702.4 0 0 0 807.3 291h107A453.5 453.5 0 0 1 927 674.3Z"/></svg>
