<svg xmlns="http://www.w3.org/2000/svg" xml:space="preserve" viewBox="0 0 1000 1000"><path d="M665.3 358.7a201.4 201.4 0 0 0-113.4-51.6v-27.7a18 18 0 1 0-36 0v90.1a18 18 0 1 0 36 0v-26.2c68.7 7.9 139.8 69.9 139.8 151.2 0 42.2-17.8 83.1-50.2 115.1a162.7 162.7 0 0 1-89.6 46.6v-25.7a18 18 0 1 0-36 0v90.1a18 18 0 1 0 36 0v-28.1c41.2-4.7 82.3-25 115-57.3a198 198 0 0 0 60.9-140.8c0-52-22.2-99.3-62.5-135.7zM464 261.3a18 18 0 0 0-18 18v27h-69.5c-22.7 0-41.1 16.5-41.1 36.9v313.5c0 20.3 18.4 36.9 41.1 36.9H446v27a18 18 0 1 0 36 0v-90.1a18 18 0 1 0-36 0v27h-69.5c-2.7 0-4.4-1-5.1-1.6V344c.6-.6 2.4-1.6 5.1-1.6H446v27a18 18 0 1 0 36 0v-90.1c0-9.9-8-18-18-18z"/><path d="M960.7 305.4a497.5 497.5 0 0 0-107.2-158.9 499.2 499.2 0 0 0-707-.1A499.2 499.2 0 0 0 39.3 694.6a498.9 498.9 0 0 0 107.1 158.9 499.2 499.2 0 0 0 707.1 0 499.2 499.2 0 0 0 107.2-548.1zM500 964C244.2 964 36 755.8 36 500S244.2 36 500 36s464 208.1 464 464-208.2 464-464 464z"/><path d="M848.5 352.8c-19-45-46.3-85.5-81-120.2a376.5 376.5 0 0 0-267.4-110.7 376.2 376.2 0 0 0-267.4 110.7A376.5 376.5 0 0 0 122 500a376.2 376.2 0 0 0 110.7 267.4 376.5 376.5 0 0 0 267.4 110.7 376.2 376.2 0 0 0 267.4-110.7A376.5 376.5 0 0 0 878.2 500c0-51-10-100.6-29.7-147.2zM500 842.1c-188.6 0-342.1-153.5-342.1-342.1S311.4 157.9 500 157.9 842.1 311.4 842.1 500 688.6 842.1 500 842.1z"/></svg>
