<svg xmlns="http://www.w3.org/2000/svg" xml:space="preserve" width="1000" height="1000" version="1.2"><path d="M195.7 75.8H67c-18.1 0-33.9 6.4-47 19.1-13.1 12.7-20 28.9-20 47v129.6c0 18.1 6.9 34.4 20 47 13.1 12.6 28.9 19.1 47 19.1h128.6c18.1 0 33.9-6.4 47-19.1 13.1-12.7 20-28.9 20-47V141.9c0-18.1-6.9-34.4-20-47-13-12.7-28.8-19.1-46.9-19.1zm27 195.7c0 7.4-2.4 13-7.8 18.3-5.5 5.3-11.6 7.8-19.2 7.8H67c-7.6 0-13.7-2.5-19.2-7.8-5.4-5.2-7.8-10.8-7.8-18.3V141.9c0-7.4 2.4-13 7.8-18.3 5.5-5.3 11.6-7.8 19.2-7.8h128.6c7.6 0 13.7 2.5 19.2 7.8 5.4 5.2 7.8 10.8 7.8 18.3v129.6ZM980 94.9c-13.1-12.6-28.9-19.1-47-19.1H351.2c-18.1 0-33.9 6.4-47 19.1-13.1 12.7-20 28.9-20 47v129.6c0 18.1 6.9 34.4 20 47 13.1 12.6 28.9 19.1 47 19.1H933c18.1 0 33.9-6.4 47-19.1 13.1-12.7 20-28.9 20-47V141.9c0-18.1-6.9-34.4-20-47zm-20 176.6c0 7.4-2.4 13-7.8 18.3-5.5 5.3-11.6 7.8-19.2 7.8H351.2c-7.6 0-13.7-2.5-19.2-7.8-5.4-5.2-7.8-10.8-7.8-18.3V141.9c0-7.4 2.4-13 7.8-18.3 5.5-5.3 11.6-7.8 19.2-7.8H933c7.6 0 13.7 2.5 19.2 7.8 5.4 5.2 7.8 10.8 7.8 18.3zm-27 97.1H351.2c-18 0-34.3 6.8-47.3 19.8-12.9 12.9-19.8 29.3-19.8 47.3v128.6c0 18 6.8 34.3 19.8 47.3 12.9 12.9 29.3 19.8 47.3 19.8H933c18 0 34.3-6.8 47.3-19.8 12.9-12.9 19.8-29.3 19.8-47.3V435.7c0-18-6.8-34.3-19.8-47.3-13-12.9-29.4-19.8-47.3-19.8zm27 195.7c0 7.4-2.6 13.5-8.1 19s-11.5 8.1-19 8.1H351.2c-7.4 0-13.5-2.6-19-8.1s-8.1-11.5-8.1-19V435.7c0-7.4 2.6-13.5 8.1-19s11.5-8.1 19-8.1H933c7.4 0 13.5 2.6 19 8.1s8.1 11.5 8.1 19v128.6zm-27 98.1H351.2c-18.1 0-33.9 6.4-47 19.1-13.1 12.7-20 28.9-20 47v129.6c0 18.1 6.9 34.4 20 47 13.1 12.6 28.9 19.1 47 19.1H933c18.1 0 33.9-6.4 47-19.1 13.1-12.7 20-28.9 20-47V728.5c0-18.1-6.9-34.4-20-47-13.1-12.7-28.9-19.1-47-19.1zm27 195.7c0 7.4-2.4 13-7.8 18.3-5.5 5.3-11.6 7.8-19.2 7.8H351.2c-7.6 0-13.7-2.5-19.2-7.8-5.4-5.2-7.8-10.8-7.8-18.3V728.5c0-7.4 2.4-13 7.8-18.3 5.5-5.3 11.6-7.8 19.2-7.8H933c7.6 0 13.7 2.5 19.2 7.8 5.4 5.2 7.8 10.8 7.8 18.3zM195.7 368.6H67c-18 0-34.3 6.8-47.3 19.8C6.8 401.3-.1 417.7-.1 435.7v128.6c0 18 6.8 34.3 19.8 47.3C32.6 624.5 49 631.4 67 631.4h128.6c18 0 34.3-6.8 47.3-19.8 12.9-12.9 19.8-29.3 19.8-47.3V435.7c0-18-6.8-34.3-19.8-47.3-12.9-12.9-29.2-19.8-47.2-19.8zm27 195.7c0 7.4-2.6 13.5-8.1 19s-11.5 8.1-19 8.1H67c-7.4 0-13.5-2.6-19-8.1s-8.1-11.5-8.1-19V435.7c0-7.4 2.6-13.5 8.1-19s11.5-8.1 19-8.1h128.6c7.4 0 13.5 2.6 19 8.1s8.1 11.5 8.1 19zm-27 98.1H67c-18.1 0-33.9 6.4-47 19.1-13.1 12.7-20 28.9-20 47v129.6c0 18.1 6.9 34.4 20 47 13.1 12.6 28.9 19.1 47 19.1h128.6c18.1 0 33.9-6.4 47-19.1 13.1-12.7 20-28.9 20-47V728.5c0-18.1-6.9-34.4-20-47-13-12.7-28.8-19.1-46.9-19.1zm27 195.7c0 7.4-2.4 13-7.8 18.3-5.5 5.3-11.6 7.8-19.2 7.8H67c-7.6 0-13.7-2.5-19.2-7.8-5.4-5.2-7.8-10.8-7.8-18.3V728.5c0-7.4 2.4-13 7.8-18.3 5.5-5.3 11.6-7.8 19.2-7.8h128.6c7.6 0 13.7 2.5 19.2 7.8 5.4 5.2 7.8 10.8 7.8 18.3v129.6z"/></svg>