<svg xmlns="http://www.w3.org/2000/svg" xml:space="preserve" viewBox="0 0 1000 1000"><path d="M500.1 617.1a29.5 29.5 0 0 1-25.8-15.3l-94.3-173-172.6-94.7a29.6 29.6 0 0 1 .1-51.6l172.8-94.4 94.6-172.8a29.3 29.3 0 0 1 51.4 0l94.3 173L793.2 283a29.6 29.6 0 0 1-.1 51.6L620.5 429l-94.6 172.8a29.4 29.4 0 0 1-25.8 15.3zM237 308.3l162.6 89.3a30 30 0 0 1 11.7 11.7l88.8 163 89.1-162.8c2.7-4.9 6.7-9 11.7-11.7l162.8-88.9-162.6-89.3a30 30 0 0 1-11.7-11.7l-88.8-163-89.1 162.8c-2.7 4.9-6.7 9-11.7 11.7L237 308.3zM970.6 1000H29.4A29.4 29.4 0 0 1 0 970.6v-79a29.4 29.4 0 0 1 29.4-29.4h941.3a29.4 29.4 0 0 1 29.4 29.4v79a29.6 29.6 0 0 1-29.5 29.4zM36.8 963.2h926.5v-64.1H36.8v64.1zm933.8-64.1z"/>
    <path d="M855.8 899.1H144.2a29.4 29.4 0 0 1-29.4-29.4v-79a29.4 29.4 0 0 1 29.4-29.4h711.6a29.4 29.4 0 0 1 29.4 29.4v79a29.4 29.4 0 0 1-29.4 29.4zm-704.2-36.8h696.8v-64.1H151.6v64.1zm704.2-64.2z"/>
    <path d="M740.7 798.1H259.3a29.4 29.4 0 0 1-29.4-29.4v-79a29.4 29.4 0 0 1 29.4-29.4h481.5a29.4 29.4 0 0 1 29.4 29.4v79a29.5 29.5 0 0 1-29.5 29.4zm-474-36.8h466.7v-64.1H266.7v64.1zm474-64.1zM500.3 437.9a29.5 29.5 0 0 1-25.8-15.3l-32.8-60.2-60.1-33c-9.4-5.2-15.3-15.1-15.2-25.8s5.9-20.6 15.3-25.8l60.1-32.9 32.9-60.1a29.3 29.3 0 0 1 51.4 0l32.8 60.2 60.1 33a29.6 29.6 0 0 1-.1 51.6L559 362.5l-33 60.2a29.2 29.2 0 0 1-25.7 15.2zm6.5-32.9zm-95.6-101.3 50.1 27.5a30 30 0 0 1 11.7 11.7l27.4 50.2 27.5-50.2c2.7-4.9 6.7-9 11.7-11.7l50.1-27.4-50.1-27.5a30 30 0 0 1-11.7-11.7l-27.4-50.2-27.5 50.2c-2.7 4.9-6.7 9-11.7 11.7l-50.1 27.4z"/></svg>
