<svg xmlns="http://www.w3.org/2000/svg" viewBox="0 0 1000 1000"><path d="M161.9 297.2H58.4A58.4 58.4 0 0 1 0 238.8V135.3A58.4 58.4 0 0 1 58.4 77h103.5a58.4 58.4 0 0 1 58.3 58.4v103.5a58.4 58.4 0 0 1-58.3 58.4Zm-103.5-184c-12.2 0-22.2 9.9-22.2 22.1v103.5c0 12.2 10 22.1 22.2 22.1h103.5c12.2 0 22.1-9.9 22.1-22.1V135.3c0-12.2-10-22.1-22.1-22.1H58.4ZM941.6 297.2H371a58.4 58.4 0 0 1-58.3-58.4V135.3A58.4 58.4 0 0 1 371 77h570.6a58.4 58.4 0 0 1 58.4 58.4v103.5a58.4 58.4 0 0 1-58.4 58.4ZM371 113.2c-12.2 0-22.1 9.9-22.1 22.1v103.5c0 12.2 10 22.1 22.1 22.1h570.6c12.2 0 22.2-9.9 22.2-22.1V135.3c0-12.2-10-22.1-22.2-22.1H371ZM161.9 610.1H58.4A58.4 58.4 0 0 1 0 551.7V448.4a58.4 58.4 0 0 1 58.4-58.4h103.5a58.4 58.4 0 0 1 58.3 58.4v103.4a58.4 58.4 0 0 1-58.3 58.4Zm-103.5-184c-12.2 0-22.2 10-22.2 22.1v103.5c0 12.2 10 22.2 22.2 22.2h103.5c12.2 0 22.1-10 22.1-22.2V448.2c0-12.2-10-22-22.1-22H58.4ZM941.6 610.1H371a58.4 58.4 0 0 1-58.3-58.4V448.4a58.4 58.4 0 0 1 58.3-58.4h570.6a58.4 58.4 0 0 1 58.4 58.4v103.4a58.4 58.4 0 0 1-58.4 58.4ZM371 426.1c-12.2 0-22.1 10-22.1 22.1v103.5c0 12.2 10 22.2 22.1 22.2h570.6c12.2 0 22.2-10 22.2-22.2V448.2c0-12.2-10-22-22.2-22H371ZM161.9 923H58.4A58.4 58.4 0 0 1 0 864.8V761.2a58.4 58.4 0 0 1 58.4-58.4h103.5a58.4 58.4 0 0 1 58.3 58.4v103.5A58.4 58.4 0 0 1 162 923ZM58.4 739c-12.2 0-22.2 10-22.2 22.2v103.5c0 12.2 10 22.1 22.2 22.1h103.5c12.2 0 22.1-9.9 22.1-22.1V761.2c0-12.2-10-22.1-22.1-22.1H58.4ZM941.6 923H371a58.4 58.4 0 0 1-58.3-58.3V761.2a58.4 58.4 0 0 1 58.3-58.4h570.6a58.4 58.4 0 0 1 58.4 58.4v103.5a58.4 58.4 0 0 1-58.4 58.4ZM371 739c-12.2 0-22.1 10-22.1 22.2v103.5c0 12.2 10 22.1 22.1 22.1h570.6c12.2 0 22.2-9.9 22.2-22.1V761.2c0-12.2-10-22.1-22.2-22.1H371Z"/></svg>
