<svg xmlns="http://www.w3.org/2000/svg" data-name="Шар 1" viewBox="0 0 1002.4 1000"><path d="M501.3 588.6a29.4 29.4 0 0 1-25.8-15.4L386 409.5l-163.5-89.7a29.4 29.4 0 0 1 0-51.6l163.8-89.4L476 15.3a29.4 29.4 0 0 1 51.6 0L617 179.1l163.6 89.6a29.4 29.4 0 0 1 0 51.7l-163.8 89.3L527 573.3a29.4 29.4 0 0 1-25.8 15.3ZM252.2 294l153.6 84.2c4.9 2.7 9 6.8 11.6 11.7l84 153.8L585.4 390c2.7-5 6.8-9 11.7-11.7L751 294.5l-153.5-84.2c-5-2.7-9-6.7-11.7-11.7L501.8 45l-84.2 153.6c-2.7 5-6.7 9-11.7 11.7L252.2 294ZM973 1000H29.4A29.5 29.5 0 0 1 0 970.6V855.3a29.5 29.5 0 0 1 29.4-29.4H973a29.5 29.5 0 0 1 29.4 29.4v115.3A29.4 29.4 0 0 1 973 1000ZM36.9 963.1h928.6V862.8H37V963Zm936-100.4Z" class="cls-1"/><path d="M857.9 862.7H144.5a29.5 29.5 0 0 1-29.4-29.4V718a29.5 29.5 0 0 1 29.4-29.5H858a29.5 29.5 0 0 1 29.4 29.5v115.3a29.4 29.4 0 0 1-29.4 29.4Zm-706-36.9h698.6V725.4H152v100.4Zm706-100.4Z" class="cls-1"/></svg>
