<svg id="Слой_1" data-name="Слой 1" xmlns="http://www.w3.org/2000/svg" viewBox="0 0 1000 1000"><title>icons_work</title><path d="M356.05,499.66A18.54,18.54,0,0,1,338,477,163.61,163.61,0,0,1,481.39,351,18.5,18.5,0,1,1,485,387.86a126.19,126.19,0,0,0-110.9,97.44A18.5,18.5,0,0,1,356.05,499.66Z" fill="#050000"/><path d="M665,412.24A193.83,193.83,0,0,1,696.76,518.8c0,107.51-87.47,195-195,195A193.82,193.82,0,0,1,395.22,682l-26.73,26.73A232.05,232.05,0,0,0,691.71,385.51Z" fill="#050000"/><path d="M328.7,608.51a193.7,193.7,0,0,1-21.9-89.71c0-107.52,87.46-195,195-195a193.71,193.71,0,0,1,89.72,21.9l27.32-27.31A232.11,232.11,0,0,0,301.39,635.83Z" fill="#050000"/><path d="M128.06,897.66A18.51,18.51,0,0,1,115,866.07L818.22,162.84A18.5,18.5,0,0,1,844.38,189L141.14,892.24A18.44,18.44,0,0,1,128.06,897.66Z" fill="#050000"/><path d="M983.89,504.32c-2.2-3.07-54.74-76.21-140.26-150.36a827.71,827.71,0,0,0-67.52-52.85l-26.66,26.66a774.64,774.64,0,0,1,69.32,53.6,967.92,967.92,0,0,1,126.9,133.7,968,968,0,0,1-126.9,133.69c-74.89,64.81-191,142.07-318.77,142.07-60.68,0-118.71-17.42-170.95-42.66l-27.74,27.74q4,2.05,8,4c64.59,31.77,128.74,47.88,190.65,47.88S626.06,811.72,690.65,780c51.05-25.11,102.52-60,153-103.77C929.15,602,981.69,528.89,983.89,525.81l7.66-10.74Z" fill="#050000"/><path d="M156.37,676.18q29,25.13,58.34,46.32l26.58-26.57c-22.09-15.63-42.24-31.75-60.06-47.17A966.74,966.74,0,0,1,54.33,515.07a967.92,967.92,0,0,1,126.9-133.7c74.89-64.81,191-142.06,318.77-142.06,56.57,0,110.84,15.14,160.26,37.64l28-27.95C624.44,218,561.14,202.31,500,202.31c-61.91,0-126.06,16.1-190.65,47.87-51.05,25.11-102.52,60-153,103.78C70.85,428.11,18.31,501.25,16.11,504.32L8.45,515.07l7.66,10.74C18.31,528.89,70.85,602,156.37,676.18Z" fill="#050000"/></svg>