<svg id="Слой_1" data-name="Слой 1" xmlns="http://www.w3.org/2000/svg" viewBox="0 0 1000 1000"><title>icons_work</title><path d="M501.77,750.78a232,232,0,1,1,164-67.95A230.45,230.45,0,0,1,501.77,750.78Zm0-427c-107.51,0-195,87.46-195,195s87.47,195,195,195,195-87.47,195-195S609.29,323.82,501.77,323.82Z" fill="#050000"/><path d="M356.05,499.66A18.54,18.54,0,0,1,338,477,163.61,163.61,0,0,1,481.39,351,18.5,18.5,0,1,1,485,387.86,126.16,126.16,0,0,0,374.07,485.3,18.52,18.52,0,0,1,356.05,499.66Z" fill="#050000"/><path d="M500,827.83c-61.92,0-126.06-16.11-190.65-47.88-51.05-25.11-102.52-60-153-103.77C70.85,602,18.31,528.89,16.11,525.81L8.45,515.07l7.66-10.75c2.2-3.07,54.74-76.21,140.26-150.36,50.46-43.75,101.93-78.67,153-103.78,64.59-31.77,128.73-47.87,190.65-47.87s126.06,16.1,190.65,47.87c51.05,25.11,102.52,60,153,103.78,85.52,74.15,138.06,147.29,140.26,150.36l7.66,10.75-7.66,10.74c-2.2,3.08-54.74,76.21-140.26,150.37-50.46,43.75-101.93,78.66-153,103.77C626.06,811.72,561.92,827.83,500,827.83ZM54.32,515.06a967.48,967.48,0,0,0,126.91,133.7c74.89,64.81,191,142.07,318.77,142.07s243.88-77.26,318.77-142.07a968,968,0,0,0,126.9-133.69,967.92,967.92,0,0,0-126.9-133.7c-74.89-64.81-191-142.06-318.77-142.06-128,0-244.36,77.55-319.39,142.6A965.92,965.92,0,0,0,54.32,515.06Z" fill="#050000"/></svg>