<svg xmlns="http://www.w3.org/2000/svg" viewBox="0 0 80 80">
    <path d="M13 0C5.7 0 0 5.7 0 13v9a2 2 0 1 0 4.1 0v-9c0-5 3.9-8.9 9-8.9h8.8A2 2 0 0 0 22 0H13zm45 0a2 2 0 1 0 0 4.1h9c5 0 8.9 3.9 8.9 9v8.8a2 2 0 0 0 4.1 0V13c0-7.3-5.7-13-13-13h-9zM23.9 28c-1.2 0-2 1-2 2.2V36c0 1.2.8 2.2 2 2.2 1 0 2-1 2-2.2v-5.7c0-1.2-1-2.1-2-2.1zM42 28C41 28 40 29 40 30.3v14.7c0 1-.5 1.4-1.4 1.4h-1.4a2.1 2.1 0 0 0 0 4.2h1.4c3.3 0 5.6-2.3 5.6-5.6V30.2c0-1.2-1-2.1-2-2.1zm14.6 0c-1 0-2 1-2 2.2V36c0 1.2 1 2.2 2 2.2 1.1 0 2-1 2-2.2v-5.7c0-1.2-.9-2.1-2-2.1zM27.3 55.5c-.5 0-1 .3-1.5.7-.8.9-.7 2.2.1 3A20 20 0 0 0 40 64.6 20 20 0 0 0 54 59a2.1 2.1 0 0 0-2.8-3.1c-3.1 3-6.8 4.4-11.2 4.4-4.4 0-8-1.5-11.2-4.4-.4-.4-1-.6-1.5-.6zM2 56A2 2 0 0 0 0 58v9c0 7.3 5.7 13 13 13h9a2 2 0 1 0 0-4.1h-9c-5 0-8.9-3.9-8.9-9v-8.8c0-1.2-1-2.1-2-2.1zm75.8 0a2 2 0 0 0-2 2v9c0 5-3.9 8.9-9 8.9h-8.8a2 2 0 0 0 0 4.1H67c7.3 0 13-5.7 13-13v-9c0-1-1-2-2-2z"/>
</svg>
