<svg xmlns="http://www.w3.org/2000/svg" viewBox="0 0 1000 1000">
    <path d="M370.3 872.4c0 10-8.1 18-18 18H18a18 18 0 1 1 0-36h334.3c9.9 0 18 8 18 18zm629.7 0c0 10-8 18-18 18H703a18 18 0 1 1 0-36h279c10 0 18 8 18 18zM507.7 127.6c0 10-8 18-18 18H18a18 18 0 1 1 0-36h471.7c10 0 18 8 18 18zm492.3 0c0 10-8 18-18 18H840.5a18 18 0 1 1 0-36H982c10 0 18 8 18 18zm0 372.4c0 10-8 18-18 18H509.8a18 18 0 1 1 0-36H982c10 0 18 8 18 18zm-822.5 0c0 10-8 18-18 18H18a18 18 0 1 1 0-36h141.5c10 0 18 8 18 18zM738.3 56.4v142.4c0 24-19.5 43.4-43.5 43.4h-59.4c-24 0-43.5-19.5-43.5-43.4V56.4c0-24 19.5-43.4 43.5-43.4h59.4c24 0 43.5 19.4 43.5 43.4zM627.9 198.8a7.5 7.5 0 0 0 7.5 7.4h59.4c4.1 0 7.5-3.3 7.5-7.4V56.4c0-4.1-3.4-7.4-7.5-7.4h-59.4a7.5 7.5 0 0 0-7.5 7.4zM408 428.8v142.4c0 24-19.4 43.4-43.4 43.4h-59.4c-24 0-43.5-19.5-43.5-43.4V428.8c0-24 19.5-43.4 43.5-43.4h59.4c24 0 43.5 19.5 43.5 43.4zM297.8 571.2a7.5 7.5 0 0 0 7.5 7.4h59.4c4.1 0 7.5-3.3 7.5-7.4V428.8c0-4-3.4-7.4-7.5-7.4h-59.4a7.5 7.5 0 0 0-7.5 7.4zm303 230v142.4c0 24-19.5 43.4-43.4 43.4h-59.5c-24 0-43.4-19.4-43.4-43.4V801.2c0-24 19.5-43.4 43.4-43.4h59.5c24 0 43.4 19.5 43.4 43.4zM490.5 943.6a7.5 7.5 0 0 0 7.4 7.4h59.5c4 0 7.4-3.3 7.4-7.4V801.2c0-4-3.3-7.4-7.4-7.4h-59.5a7.4 7.4 0 0 0-7.4 7.4z"/>
</svg>
