<svg xmlns="http://www.w3.org/2000/svg" xml:space="preserve" width="26" height="24" fill="none" stroke="#000"><path fill="#000" d="M3 5.5A2.5 2.5 0 0 0 .5 8v13c0 1.4 1.1 2.5 2.5 2.5h20c1.4 0 2.5-1.1 2.5-2.5V8c0-1.4-1.1-2.5-2.5-2.5Zm0 1h20c.8 0 1.5.7 1.5 1.5v13c0 .8-.7 1.5-1.5 1.5H3c-.8 0-1.5-.7-1.5-1.5V8c0-.8.7-1.5 1.5-1.5Z" color="#000" style="-inkscape-stroke:none"/><path fill="#000" d="M3 5.5A2.5 2.5 0 0 0 .5 8v.6c0 3.3 2.6 5.9 5.9 5.9h13.2c3.3 0 5.9-2.6 5.9-5.9V8c0-1.4-1.1-2.5-2.5-2.5h-9.1zm0 1h20c.8 0 1.5.7 1.5 1.5v.6a5 5 0 0 1-4.9 4.9H6.4a4.9 4.9 0 0 1-4.9-4.9V8c0-.8.7-1.5 1.5-1.5Z" color="#000" style="-inkscape-stroke:none"/><path fill="#000" d="M6.5 14v2h1v-2zm12 0v2h1v-2ZM13 .5a7.5 7.5 0 0 0-7.2 5.4l1 .2a6.5 6.5 0 0 1 12.4 0l1-.2A7.5 7.5 0 0 0 13 .5Z" color="#000" style="-inkscape-stroke:none"/></svg>
