<svg xmlns="http://www.w3.org/2000/svg" xml:space="preserve" width="1000" height="1000" version="1.2"><path d="M745.99 247.156c-7.4-8.2-20-8.9-28.2-1.5s-8.9 20-1.5 28.2l131.4 146.5-130.8 132.1c-7.8 7.9-7.7 20.5.1 28.3 3.9 3.9 9 5.8 14.1 5.8 5.2 0 10.3-2 14.2-5.9l144-145.5c7.4-7.5 7.7-19.5.7-27.4zm241.1 143.2-246.2-270.5c-9.1-10-22-15.9-35.5-16.2-13.5-.3-26.7 5-36.2 14.6l-154.6 155.5c-2.5 2.5-5.5 2.9-7 2.8-1.5 0-4.5-.5-6.9-3.2l-138.1-153.2c-9.1-10.2-21.6-16-35.2-16.4-13.6-.4-26.5 4.6-36.2 14.2l-276.4 271.2c-9.6 9.5-15 22.6-14.8 36.1.2 13.5 6 26.5 16 35.6l458.3 422.4c9.5 8.7 21.5 13.1 33.6 13.1 12.4 0 24.7-4.6 34.2-13.7l442.6-423.2c9.4-9 14.8-21.1 15.3-34.1.4-12.9-4.2-25.4-12.9-35zm-30 40.3-442.7 423.1c-3.6 3.5-9.4 3.5-13.1.1l-458.2-422.4c-2.6-2.4-3-5.3-3.1-6.9 0-1.5.3-4.5 2.9-7l276.3-271.1c2.5-2.5 5.5-2.8 7-2.7 1.5 0 4.4.5 6.8 3.1l138 153.3c9.1 10.1 22 16 35.6 16.4 13.5.3 26.8-5 36.3-14.6l154.6-155.5c2.5-2.5 5.5-2.8 7-2.8s4.4.5 6.8 3.1l246.2 270.5c3.5 3.9 3.3 9.8-.4 13.4z"/></svg>