<svg xmlns="http://www.w3.org/2000/svg" xml:space="preserve" viewBox="0 0 1000 1000"><path d="M500 897.3a58.4 58.4 0 0 1-40.5-16.3L18 457.5a58.2 58.2 0 0 1-2.4-82l235.9-254a58.7 58.7 0 0 1 84.9-1L484 272.8c4.2 4.4 9.8 6.8 16 6.8s11.6-2.4 15.8-6.8l147.8-152.3a58.7 58.7 0 0 1 42-17.7h.6c16 .1 31.4 7 42.2 18.7l235.9 254a58.2 58.2 0 0 1-2.4 82L540.5 881a58.3 58.3 0 0 1-40.5 16.3zM294.4 139.1h-.3a22 22 0 0 0-16 7l-235.9 254a22.3 22.3 0 0 0 1 31.2l441.4 423.4a22.1 22.1 0 0 0 30.8 0l441.5-423.4c8.7-8.4 9-22.3.9-31.2l-235.9-254a22 22 0 0 0-16-7h-.3a22 22 0 0 0-15.9 6.7L542 298.1a58 58 0 0 1-42 17.8 58 58 0 0 1-42-17.8L310.3 145.8a22 22 0 0 0-16-6.7z"/><path d="M712.3 585.3a18.1 18.1 0 0 1-12.1-31.8L835 433.8a22 22 0 0 0 1.6-31.6L719.1 274.5a18.2 18.2 0 0 1 26.8-24.6l117.4 127.7a58.1 58.1 0 0 1-4.2 83.3L724.3 580.7a18 18 0 0 1-12 4.6z"/></svg>
