<svg xmlns="http://www.w3.org/2000/svg" viewBox="0 0 1000 1000"><path d="M982 227c-10 0-18.2-8-18.2-18V49.1c0-7-5.7-12.9-12.8-12.9H780.2a18.1 18.1 0 0 1 0-36.3H951c27 0 49 22 49 49.2V209c0 10-8 18.2-18 18.2ZM18 227c-9.9 0-18-8-18-18V49.1C0 22.1 22 0 49 0h170.8c10 0 18 8.1 18 18.2s-8 18.1-18 18.1H49c-7 0-12.8 5.8-12.8 13v159.6c0 10-8.1 18.2-18.1 18.2ZM951 1000H780.2c-10 0-18-8.1-18-18.2s8-18.1 18-18.1H951c7 0 12.8-5.8 12.8-13V791.2a18.1 18.1 0 1 1 36.2 0v159.7c0 27.1-22 49.2-49 49.2ZM219.8 1000H49c-27 0-49-22-49-49.2V791a18.1 18.1 0 1 1 36.2 0v159.7c0 7 5.7 12.9 12.8 12.9h170.8a18.1 18.1 0 0 1 0 36.3ZM498.7 354a88 88 0 0 1-64.5-26.9 89 89 0 0 1-26.8-64.8c0-25 9-47.4 26.9-65 17.7-17.8 39.4-26.7 64.4-26.7s47 9 64.7 26.7c17.6 17.7 26.6 39.6 26.6 65s-9 46.9-26.5 64.8a87.9 87.9 0 0 1-64.8 27Zm0-147a53 53 0 0 0-39 16c-10.9 10.8-16.2 23.7-16.2 39.3s5.3 28.2 16.3 39.1c10.9 11 23.6 16.4 38.9 16.4s28.3-5.4 39-16.3c10.9-11 16.1-23.8 16.1-39.2s-5.2-28.5-16-39.3a52.7 52.7 0 0 0-39.1-16ZM589.2 833.2H430c-22 0-40-18-40-40.1v-19.8c0-22.1 18-40.1 40-40.1 2 0 3.8-1.8 3.8-3.9V516.8a65.6 65.6 0 0 0-25.7-8.2c-22 0-40-18-40-40.2v-19.7c0-22.2 18-40.2 40-40.2h137.2c22 0 40 18 40 40.1v280.7c0 2.1 1.7 3.8 3.8 3.8 22 0 40 18 40 40.2v19.8c0 22.1-18 40.1-40 40.1Zm-181-388.4a3.8 3.8 0 0 0-3.8 3.8v19.8c0 2.2 1.7 3.9 3.8 3.9 8.8 0 22.3 3.1 33.4 7.8 23.5 10 28.4 23 28.4 32.3v217c0 22-17.9 40-40 40a3.8 3.8 0 0 0-3.7 4V793c0 2.1 1.7 3.8 3.8 3.8h159c2.2 0 3.9-1.7 3.9-3.8v-19.8c0-2.1-1.8-3.8-3.8-3.8-22 0-40-18-40-40.2V448.7c0-2.1-1.7-3.9-3.8-3.9H408.2Z"/></svg>
