<svg xmlns="http://www.w3.org/2000/svg" xml:space="preserve" width="1000" height="1000" version="1.2"><path d="M486.916 308.565a63.403 34.201 86.34 0 1-30.084 65.457 63.403 34.201 86.34 0 1-38.18-61.09 63.403 34.201 86.34 0 1 30.085-65.457 63.403 34.201 86.34 0 1 38.179 61.09zM416.35 691.95c1.6-57.5 13.4-143.2 22.7-197.6 2-18.7-8.7-7.1-10.6-1.7-5.3 5.8-11.6 14.3-14.5 15.7-3.9 1.8-5.8 2.7-15.9-.3-5.3-.9-8.7-2.6-9.6-4.4-3.8-7.1 13.5-8.6 44.9-37.8 19.3-18 33.3-30.1 41.1-33.7 7.7-3.6 13.5-1.9 16.9 4.3 10.6 19.5-3.2 101.6-14.9 165-7.3 37.9-11.3 68.7-12.3 87-.5 16.9 5.7 19.6 11.1 4.8 12.1-29.1 29.6-70.6 45.6-97 22.8-38.5 37.3-60.9 51.8-67.7 18.3-8.6 36.7-8.3 39.1-3.8 4.3 8-29.4 14.9-54.1 49.9-21.8 31.4-40.7 63.6-61.5 105.6-26.2 54.6-18.5 66.5-29.1 71.5-10.6 5-36.6-11.8-44.8-26.9-4-7.1-6.4-16-5.9-32.9zm512.7 308.1H70.85c-39.1 0-70.9-31.8-70.9-70.9V70.85c0-39.1 31.8-70.9 70.9-70.9h858.3c39.1 0 70.9 31.8 70.9 70.9v858.3c-.1 39.1-31.9 70.9-71 70.9zm-858.2-960c-17 0-30.9 13.8-30.9 30.9v858.3c0 17 13.8 30.9 30.9 30.9h858.3c17 0 30.9-13.8 30.9-30.9V70.95c0-17-13.8-30.9-30.9-30.9z" style="stroke-width:1.00004"/></svg>