<svg xmlns="http://www.w3.org/2000/svg" viewBox="0 0 1000 1000">
    <path d="M999.7 249.4a49.8 49.8 0 0 0-49.4-44.7H765V80a48.3 48.3 0 0 0-48.2-48.2H48.2A48.3 48.3 0 0 0 0 79.9v435.3a48.3 48.3 0 0 0 48.2 48.2c6.5 0 11.8 5.3 11.8 11.8v226.7l276.8-235.7c2.1-1.8 4.8-2.8 7.6-2.8H717a48.3 48.3 0 0 0 48.2-48.2v-274h185.2c7.3 0 13.3 6 13.3 13.3v431.9c0 7.3-6 13.2-13.3 13.2a49.8 49.8 0 0 0-49.8 49.8v140.8L687 711.2a49.8 49.8 0 0 0-32-11.6l-346.5-.2-43.7 36.6H655c3 0 6.1 1.2 8.5 3.2L937 968.3v-219c0-7.3 6-13.2 13.3-13.2a49.8 49.8 0 0 0 49.7-49.7v-432c0-1.6 0-3.3-.2-5Zm-271 265.8c0 6.5-5.4 11.8-11.8 11.8H344.4c-11.4 0-22.5 4-31.2 11.5L96.5 723V575.2A48.3 48.3 0 0 0 48.2 527c-6.5 0-11.7-5.3-11.7-11.8V79.9c0-6.5 5.2-11.7 11.7-11.7H717c6.5 0 11.7 5.2 11.7 11.7v435.3Z"/>
    <path d="M567.8 350.6H163a18.2 18.2 0 1 0 0 36.4h404.8a18.2 18.2 0 1 0 0-36.4ZM163 253h299.5a18.2 18.2 0 1 0 0-36.5H163a18.2 18.2 0 1 0 0 36.4Z"/>
</svg>
