<svg xmlns="http://www.w3.org/2000/svg" xml:space="preserve" width="1000" height="1000" version="1.2"><path d="M641.4 428.5a53.2 53.2 0 0 1-53.2 53.2 53.2 53.2 0 0 1-53.2-53.2 53.2 53.2 0 0 1 53.2-53.2 53.2 53.2 0 0 1 53.2 53.2zm-189.4-.4a53.2 53.2 0 0 1-53.2 53.2 53.2 53.2 0 0 1-53.2-53.2 53.2 53.2 0 0 1 53.2-53.2 53.2 53.2 0 0 1 53.2 53.2zm-196.4 0a53.2 53.2 0 0 1-53.2 53.2 53.2 53.2 0 0 1-53.2-53.2 53.2 53.2 0 0 1 53.2-53.2 53.2 53.2 0 0 1 53.2 53.2zm673.1-175.9H790.2V133.4c0-40.8-33.2-73.9-73.9-73.9H73.9C33.1 59.5 0 92.7 0 133.4v399.2c0 40.8 33.2 73.9 73.9 73.9H106v174l235.9-174h374.3c40.8 0 73.9-33.2 73.9-73.9V292.1h138.5c17.3 0 31.3 14 31.3 31.3v379.5c0 17.3-14 31.3-31.3 31.3h-69.5v127.2L686.7 734.2H318.2c-17.3 0-31.3-14.1-31.3-31.3h-40c0 39.3 32 71.3 71.3 71.3h355.5l225.5 166.3V774.2h29.5c39.3 0 71.3-32 71.3-71.3V323.4c0-39.3-32-71.2-71.3-71.2zM750.2 532.6c0 18.7-15.2 34-34 34H328.8L146 701.4V566.6H73.9c-18.7 0-34-15.2-34-34V133.4c0-18.7 15.2-34 34-34h642.3c18.7 0 34 15.2 34 34z" style="fill:#1d1d1b"/></svg>