<svg xmlns="http://www.w3.org/2000/svg" viewBox="0 0 1000 1000"><path d="M790.2 795.4H209.8a62 62 0 0 1-57.4-38.5L4.4 382.8A58.6 58.6 0 0 1 23 314a61.6 61.6 0 0 1 72.5-3.6l188.8 121.2a23.7 23.7 0 0 0 34.5-10.8l123.8-311.1c9.3-23.4 31.8-38.4 57.4-38.4s48 15 57.4 38.4l123.8 311a23.7 23.7 0 0 0 34.6 10.8l188.7-121A61.6 61.6 0 0 1 977 314a58.6 58.6 0 0 1 18.7 68.7L847.6 756.9a62 62 0 0 1-57.4 38.5ZM61.8 338c-7.3 0-12.7 3.7-14.8 5.3a22 22 0 0 0-7 26l148 374.2a23.5 23.5 0 0 0 21.8 14.6h580.4c9.5 0 18.3-5.9 21.8-14.6l148-374.2a22 22 0 0 0-7-26 23 23 0 0 0-27.5-1.4L736.7 463a62.4 62.4 0 0 1-91.2-28.5L521.8 123.4c-5.4-13.6-18-14.6-21.8-14.6s-16.4 1-21.8 14.6l-123.7 311a62.3 62.3 0 0 1-91.1 28.5L74.5 342c-4.5-3-8.9-4-12.7-4ZM822.6 928.6H177.4c-10.6 0-19.1-8.4-19.1-18.7s8.5-18.7 19-18.7h645.3c10.6 0 19.1 8.4 19.1 18.7s-8.5 18.7-19 18.7Z"/></svg>
