<svg xmlns="http://www.w3.org/2000/svg" viewBox="0 0 1000 1000"><path d="M967.6 253.6a414 414 0 0 0-219.3-221C697.5 11 643.6 0 588 0S478.4 11 427.6 32.6a414.2 414.2 0 0 0-251.7 382.6 415.5 415.5 0 0 0 104.4 276.2L159.4 813.3 31.1 684c-7-7.2-18.6-7.2-25.8 0s-7 18.8 0 26l128.3 129.3L5.4 968.6a18.5 18.5 0 0 0 0 26 18.1 18.1 0 0 0 25.8 0l128.2-129.3 128.2 129.1a18.1 18.1 0 0 0 25.8 0 18.5 18.5 0 0 0 0-26L185.2 839.3l120.5-121.5a410 410 0 0 0 442.6 80A414.2 414.2 0 0 0 1000 415.3c0-56-10.9-110.4-32.4-161.6ZM588 793.8c-207.1 0-375.6-169.8-375.6-378.5S381 36.8 588 36.8s375.5 169.8 375.5 378.5S795 793.8 588 793.8Z"/><path d="M551.5 124.8C422 153.5 349.9 217 310.3 337.4a18.4 18.4 0 0 0 17.4 24.2c7.6 0 14.7-4.9 17.3-12.6 35.4-107.9 97.5-162.4 214.3-188.3a18.4 18.4 0 0 0-7.8-35.9Z"/></svg>
