<svg id="Слой_1" data-name="Слой 1" xmlns="http://www.w3.org/2000/svg" viewBox="0 0 1000 1000"><title>icons_work</title><path d="M500,259A116.42,116.42,0,1,1,616.42,142.56,116.56,116.56,0,0,1,500,259Zm0-195.84a79.42,79.42,0,1,0,79.42,79.42A79.51,79.51,0,0,0,500,63.14Z" fill="#050000"/><path d="M500,616.42A116.42,116.42,0,1,1,616.42,500,116.56,116.56,0,0,1,500,616.42Zm0-195.84A79.42,79.42,0,1,0,579.42,500,79.51,79.51,0,0,0,500,420.58Z" fill="#050000"/><path d="M500,973.86A116.42,116.42,0,1,1,616.42,857.44,116.56,116.56,0,0,1,500,973.86ZM500,778a79.42,79.42,0,1,0,79.42,79.42A79.51,79.51,0,0,0,500,778Z" fill="#050000"/></svg>