<svg xmlns="http://www.w3.org/2000/svg" viewBox="0 0 1000 1000"><path d="M694.3 670.8 223.5 807a41.6 41.6 0 0 1-51.4-28.4L1.6 189.4A41.6 41.6 0 0 1 30 137.8L500.8 1.6c22-6.3 45 6.4 51.5 28.4l170.4 589.3c6.4 22-6.4 45.2-28.4 51.5ZM510.8 36.3 40.1 172.5a5.5 5.5 0 0 0-3.8 6.8l170.5 589.3a5.5 5.5 0 0 0 6.7 3.7l470.8-136.2a5.5 5.5 0 0 0 3.7-6.7L517.6 40a5.5 5.5 0 0 0-6.8-3.8Z"/><path d="m569 509-325.8 94.3a41.6 41.6 0 0 1-51.5-28.4L98 250.7a41.6 41.6 0 0 1 28.4-51.5L452 105c22-6.4 45 6.4 51.5 28.4l93.7 324.2c6.4 22-6.4 45-28.4 51.5ZM136.3 234a5.5 5.5 0 0 0-3.7 6.7l93.7 324.2a5.5 5.5 0 0 0 6.8 3.7l325.7-94.2a5.5 5.5 0 0 0 3.7-6.8L469 143.4a5.5 5.5 0 0 0-6.8-3.7L136.4 234Z"/><path d="M766.2 998.2 417 897l-53.4-16c-22.6-6.9-24.1-50.2-24.1-50.2L663.9 734l94.4 25.3c3.1 1.1 7 .2 9.6-7.7L864.7 434c.8-2.4-.1-5.8-3.6-6.8l-153.4-45.8-38.6-140.8 300.6 92.1c23.5 7.5 36 26.6 27.9 52L817.4 971.1a40.7 40.7 0 0 1-51.2 27ZM401.6 851.7 773.8 963c6.3 1.9 8.3-.6 8.8-2.3L962.7 374c.8-2.6-.5-5.7-3.2-6.7l-242.8-75L733 351l138.6 41.5c26 8 33.3 34 28 51.3l-98.4 323c-6.4 21-28.2 34.5-48 28.5L661 770.9l-259.3 80.8Z"/></svg>
