<svg xmlns="http://www.w3.org/2000/svg" viewBox="0 0 1000 1000"><path d="M714.8 537.7a22 22 0 0 1-12.4-19.6l-3-281c0-8.7 5-16.6 12.6-20.3 36-17 78.7-46.3 78.7-88.8 0-37.2-32.3-70.8-91.1-94.5C646 12 575.1 0 500 0S354.1 12 300.6 33.5c-58.4 23.6-90.8 56.9-91.1 93.9-2 34.7 25 65.7 78.2 89.8a22 22 0 0 1 13 20.3L297.7 518c0 8.4-5 16-12.4 19.6a174.7 174.7 0 0 0-53.6 36.7 74.2 74.2 0 0 0-22.3 51.1c0 37.3 32.3 70.8 91.1 94.5 44.7 18 101.5 29.3 162.7 32.6 1.6 59.7 8.6 247.6 36.9 247.4 28.2-.2 32.9-187.5 33.6-247.3 62.4-3 120.4-14.3 165.9-32.7 58.8-23.7 91.1-57.3 91.1-94.5 0-18-7.5-35.2-22.3-51a174.5 174.5 0 0 0-53.6-36.8Zm-28.7 149c-49.4 19.8-115.5 30.8-186 30.8s-136.7-11-186.1-30.9c-43-17.3-68.6-40.1-68.6-61 0-18.7 20.1-38.8 55.2-55.3a58.2 58.2 0 0 0 33.1-51.8l3-280.6a58 58 0 0 0-34.2-53.5c-17.8-8-59-29.5-57.1-55.1V128c0-21 25.6-43.8 68.6-61 49.4-20 115.5-31 186-31s136.7 11 186.1 31c43 17.3 68.6 40 68.6 61 0 18.2-21.2 38.7-58.1 56.3a58.3 58.3 0 0 0-33.1 53.2l2.9 281a58.1 58.1 0 0 0 33 51.8c35.2 16.5 55.3 36.6 55.3 55.2 0 21-25.6 43.8-68.6 61.1Z"/></svg>
