<svg xmlns="http://www.w3.org/2000/svg" xml:space="preserve" width="800" height="800" viewBox="0 0 297 297"><path d="M261.8 178c-12.9-13-13.3-25.6-13.3-90.3C248.5 8.5 195 0 172 0c-8.3 0-34.8 5-48.8 26.6a60.2 60.2 0 0 0-33.7 20c-11.8 14.5-16 34.8-12.2 58.9-4.7 5.4-5.6 15.3-1.8 26 3 8.6 8.3 15.3 14 18 1.4.7 2.6 1.1 4 1.3 3.2 6.5 6.7 13 11.7 18.8v19.9h-20c-13.5 0-26.8 10.6-37.7 29.3a103.2 103.2 0 0 0-14.5 47c0 2.8 1.6 5.6 4.3 6.8a252.6 252.6 0 0 0 151.5 20.6 218 218 0 0 0 64.1-21 7.6 7.6 0 0 0 3.9-6.5c0-13.3-5.7-31.9-14.5-47-11-18.7-24.3-29.2-37.7-29.2h-19.4v-21.7h.4c1.8-2.4 3.6-5 5.2-7.5 31.7 29.6 62.6 30.2 65.6 30.2h.2a7.3 7.3 0 0 0 5.2-12.6zM145.2 39.1c15.8 0 28.5 4.9 37 14.4 13.3 14.7 15 37.3 15 48.6-71.4-1-80.9-29.3-81.4-31-.6-3.9-4-6.5-8-6.2-4 .3-7 3.8-7 7.7 0 6.3-4.6 13.7-9.6 19.9-.7-15 2.7-27.4 10-36.4 9-11.1 24-16.8 44-17zm-56.7 77c1.8-1.6 15.3-12.8 22.2-25.4 2 2.1 4.5 4.4 7.5 6.6 17.9 13.3 46.1 20 83.2 20 .1 2 0 5.1-1.5 9.1a19.2 19.2 0 0 1-5.8 9.1 7.6 7.6 0 0 0-9.2 4.2c-7.8 17.5-23 38-39.9 38-17 0-32.1-20.5-40-38.1a7.6 7.6 0 0 0-9.4-4.1c-1.3-1-4-3.8-5.8-9-1.8-5-1.6-8.7-1.3-10.5zm97 162.2a236.3 236.3 0 0 1-137.1-17.3A84 84 0 0 1 54 240c11.2.4 60.2 3.5 85.4 28.7a7.6 7.6 0 0 0 10.7 0c25.2-25.2 74.3-28.4 85.4-28.7 3 7.3 5 14.8 5.8 21.1-8.3 4-28.3 12.5-55.8 17.3zm19-73.9c8.2 0 16.9 9 23.8 20.4-18.1 1.2-57.5 6.6-83.4 28-26-21.4-65.3-26.9-83.4-28.1 6.9-11.4 15.5-20.3 23.7-20.3h27.7c4.2 0 7.3-2.8 7.3-7v-13c7 5.2 15.4 8.5 24.3 8.5 9.4 0 17.7-3.7 25.7-9.6v14.2c0 4.1 4.1 6.9 8.3 6.9h26zm-3.5-55.4a32 32 0 0 0 13.2-17.5c3.8-10.8 2.9-20.7-1.8-26.2.4-12-.7-41.8-18.8-62a61.3 61.3 0 0 0-47-19.3c9.6-6.6 21-9 25.4-9 28 0 61.4 12.6 61.4 72.6 0 47.2 0 69.6 6.6 85a101.3 101.3 0 0 1-39-23.6z"/></svg>
