<svg xmlns="http://www.w3.org/2000/svg" xml:space="preserve" viewBox="0 0 1000 1000"><path d="M971.4 888.1c-1.5-34.8-25-71.8-58.4-92.2-11.6-7.1-25-12.9-39.6-18.1l-.5-.2c-29.3-10.2-108.3-26.6-114.1-27.8V343.1c0-68.1-28.5-132-80.3-179.9a265.2 265.2 0 0 0-36.7-28.5 134.7 134.7 0 0 0-44.1-93.2C569.1 14.7 545.6 0 500 0c-40.5 0-86.1 9.9-114.8 39.4-23.9 24.6-39.8 54.1-41.9 87.4a276.6 276.6 0 0 0-49.4 36.3A243.7 243.7 0 0 0 213.6 343v412.5c-46.8 9.8-94.1 20.4-126.7 40.3-33.4 20.4-56.8 57.4-58.4 92.2l-.5 10.2 8.5 5.6c44.2 29.2 110.2 53.5 191 70.3 76.5 15.8 170.6 25.8 272.4 25.8s169.9-7.5 245.7-21.7c88.6-16.5 161.6-41.4 216.9-73.9l9.4-5.5-.5-10.7zM500 879.8a393.6 393.6 0 0 0-145-74.9 730.4 730.4 0 0 0-99.7-21.2 445.3 445.3 0 0 0 76.8-21.7c34.7-14.5 58.8-33 73.6-56.5 10-15.8 15.6-34.1 16.7-54.4 24.4 11.8 50 18.1 77.5 18.1s53.8-5.9 77.6-17.1a112 112 0 0 0 16.6 53.5c14.8 23.5 38.9 42 73.6 56.5 25.9 10.8 58.8 18 93.9 25.3a895.3 895.3 0 0 0-107.5 19.8c-62.3 16.1-113.7 40-154.1 72.6zm-81.2-562.5a120.3 120.3 0 0 0 54.7 25.7c33.9 7.1 76.5 3.5 126.8-10.5.9-.3 1.9 0 2.6.6a177.7 177.7 0 0 1 53.9 129.1c0 94.1-70.9 170.8-156.8 170.8s-154.7-76.6-154.7-170.8c0-59.4 27.8-113.8 73.5-144.9zm303.9 25.8v398.5c-15.3-3.8-29.2-8-40.9-12.9-52.5-21.9-73-51.9-67.5-99.4 8.1-6.4 15.8-13.5 22.9-21.3a214 214 0 0 0 55.7-145.7c0-59.4-23.8-116-65.2-155.3a39 39 0 0 0-37.2-9.2c-44.6 12.5-81.5 15.8-109.7 9.9a84.9 84.9 0 0 1-41.7-20.7 46 46 0 0 0-38.1-42.2c-7.9-1.7-16-3.6-11.9-52.8a64.3 64.3 0 0 0-9.6-43.3c32.1-15 82.1-23.5 120.5-23.5 130.4.2 222.7 97.8 222.7 217.9zM500 36.1c52.5 0 88.7 33.3 101.9 77-35.7-15.6-61.3-23.9-101.9-23.9-35.9 0-84.6 6.4-116.9 18.7 12.6-42.3 64.1-71.8 116.9-71.8zM347.4 167c.6.4 1.2 1 1.8 1.7 3.3 3.8 4.7 11.1 3.9 20.4-2.5 30.2-4.6 98.1 48.8 96.1-57.5 37.4-92.8 104.1-92.8 177.1A214 214 0 0 0 364.8 608c6.5 7.1 13.4 13.6 20.7 19.5 6.2 48.5-14.2 79-67.3 101.2a420.7 420.7 0 0 1-68.4 19.3V343.1c0-72.3 38.5-136.5 97.6-176.1zM500 965.6c-175-1.8-350.2-35.6-434-85.8a89.5 89.5 0 0 1 39.8-53.1 195.4 195.4 0 0 1 43.7-18.4c148.4 12.2 257.1 34.9 339.5 108.8.1.1 3.5 4.6 11 4.6s13-4.5 13.1-4.6c84.7-76 209.5-92.3 352-103.9 10.9 4 20.8 8.5 29.2 13.5a89.5 89.5 0 0 1 39.7 52.5c-101.1 54.9-251 88.3-434 86.4z"/></svg>
