<svg xmlns="http://www.w3.org/2000/svg" viewBox="0 0 1000 1000"><path d="M985.3 510.3 556.3 24A74.6 74.6 0 0 0 500 0a74.6 74.6 0 0 0-56.3 24l-429 486.8A54.5 54.5 0 0 0 5 570.9c10.8 23.5 36.7 38.8 65.9 38.8l221.1-.2v210c0 34 31.8 61.5 70.9 61.5h274c39 0 70.8-27.5 70.8-61.4V609.3l221.2-.1c29.3 0 55.1-15.3 66-38.8a54.5 54.5 0 0 0-9.7-60.1Zm-23.5 45.2c-3.7 8.1-14.5 17.6-32.8 17.6l-239.4.1a18.1 18.1 0 0 0-18.1 18.3v228.1c0 13.8-15.8 25.4-34.5 25.4H363c-18.7 0-34.5-11.6-34.5-25.4V591.5c0-10-8.1-18-18.2-18l-239.3.1c-18.2 0-29-9.5-32.8-17.6-2.4-5.1-3.6-13 3.9-21.5L471 47.8A38.7 38.7 0 0 1 500 36c11.6 0 22.5 4.4 29 11.8L958 534c7.4 8.5 6.2 16.3 3.8 21.5ZM688.3 964H311.6c-10 0-18.2 8-18.2 18s8.2 18 18.2 18h376.6c10 0 18.1-8 18.1-18s-8.1-18-18.2-18Z"/></svg>
