<svg xmlns="http://www.w3.org/2000/svg" viewBox="0 0 1000 1000"><path d="M896.7 737c-10 0-18.2 8.3-18.2 18.3v140.5c0 12.4-10 22.4-22.4 22.4H58.8c-12.3 0-22.4-10-22.4-22.4V285.5c0-12.3 10-22.4 22.4-22.4h797.3c12.3 0 22.4 10 22.4 22.4v127a18.2 18.2 0 1 0 36.4 0v-127a58.9 58.9 0 0 0-58.8-58.8h-20.8l-40-122.5-1.2-1.9A58.7 58.7 0 0 0 715.9 82l-141.1 73.9-58.4-90.4-1-1.2a58.4 58.4 0 0 0-41.2-18.8c-15.6-.5-30.4 5-41.8 15.4L224.8 226.7h-166A58.9 58.9 0 0 0 0 285.5v610.3a58.9 58.9 0 0 0 58.8 58.8h797.3a58.9 58.9 0 0 0 58.8-58.8V755.3c0-10-8.1-18.2-18.2-18.2ZM732.9 114.2l.4-.2a22.3 22.3 0 0 1 28.8 6.1L797 226.7H518l76.7-40.1L732.9 114ZM455.7 89l.6-.5.5-.5a22.2 22.2 0 0 1 30.8.1l54.8 84.8-103 53.9H283.3L455.7 88.9Z"/><path d="M956 510.6H811.8a44 44 0 0 0-44 44v60.2a44 44 0 0 0 44 44H956a44 44 0 0 0 44-44v-60.2a44 44 0 0 0-44-44Zm7.5 104.2c0 4.1-3.3 7.5-7.5 7.5H811.8a7.5 7.5 0 0 1-7.5-7.5v-60.2c0-4.2 3.4-7.5 7.5-7.5H956c4.2 0 7.5 3.4 7.5 7.5v60.2Z"/></svg>
