<svg xmlns="http://www.w3.org/2000/svg" xml:space="preserve" id="Шар_1" x="0" y="0" version="1.1"
     viewBox="0 0 1000 1000"><path fill="#0099c1" d="m500 0 125 125 168.8-31.3L825 262.6l150 81.3L900 500l75 156.3-150 81.2-31.3 168.8L625 875l-125 125-125-125-168.8 31.3L175 737.5 25 656.2 100 500 25 343.7l150-81.2 31.3-168.8L375 125 500 0z"/>
    <path d="M850.4 470.6c-37.7 28.5-83.6 20.8-83.6 20.8s68.7-89.7-4-241c0 0-51.7 190.3-186.9 287-31.1 22.4-69.7 52.5-75.3 110-6 61.5 33.7 124.4 137 131.9 82.7 6 144.7-63 198.2-145.7-48.7 18-96.2-4.1-96.2-4.1s93.6-38.3 110.8-158.9z"
          class="st1"/>
    <path d="M149.6 470.6c37.7 28.5 83.6 20.8 83.6 20.8s-68.6-89.7 4-241c0 0 51.7 190.3 186.9 287 31.1 22.4 69.7 52.5 75.3 110 6 61.5-33.7 124.4-137 131.9-82.7 6-144.7-63-198.2-145.7 48.7 18 96.2-4.1 96.2-4.1s-93.6-38.3-110.8-158.9z"
          class="st1"/></svg>
