<svg xmlns="http://www.w3.org/2000/svg" xml:space="preserve" viewBox="0 0 1000 1000"><path d="M914 599.1a341 341 0 0 0 68.3-100.3l17.7-39.2-40.2 15.3a200.3 200.3 0 0 1-84.4 11c12.7-14.8 28.3-36 42.8-63.9 18-34.8 30.6-73 37.5-113.6a488.2 488.2 0 0 0-1.3-161.2l-10.2-61.9-23.7 58.1c-.2.4-17.6 42.8-52.3 91.9C836.7 279.9 784 339.4 712 369.9l-.9.4-.8.5C613.7 424.7 546.4 481 510 538a208 208 0 0 0-9.8 17c-2.8-5.4-6-11-9.8-17-36.4-57-103.7-113.3-200.3-167.2l-.8-.5-.9-.4c-72-30.4-124.7-90-156.2-134.6-34.7-49.1-52.1-91.5-52.3-91.9l-24-58.3-10.3 62a491 491 0 0 0-1.3 161.2A387.9 387.9 0 0 0 81.8 422a336.8 336.8 0 0 0 42.8 63.9c-22.3 1.7-53.5.7-84.5-11L0 459.6l17.7 39.2A344.2 344.2 0 0 0 86 599.1a308.1 308.1 0 0 0 121.7 75.5 167.2 167.2 0 0 1-86.5 19.4l-53.1-3.7 40.3 34.8 22.3 19.5c70.9 62.2 138.3 121.3 227.1 121.3 9.8 0 19.9-.7 30.2-2.2a151.9 151.9 0 0 0 111.9-74.8 152 152 0 0 0 111.9 74.8c10.4 1.5 20.4 2.2 30.2 2.2 88.8 0 156.2-59.1 227.1-121.3l22.3-19.5 40.3-34.8-53.1 3.7a167.2 167.2 0 0 1-86.5-19.4A308 308 0 0 0 914 599.1zm-395.6 13.3v-.2.2zm-55.5 168.4a116 116 0 0 1-80 47.8c-84 12.3-147.3-39.3-218.7-101.7 57.6-10.5 97.3-44.6 99.4-46.4l30.7-26.8-40.4-4.2c-.3 0-34.7-4-76.8-26.4A278.8 278.8 0 0 1 68.3 519c14 2.3 27.3 3.1 39.4 3.1 33.2 0 57-6.4 58.7-6.9l33.8-9.3-27.6-21.7c-.3-.3-32.8-26.5-60.2-80.2-20.9-40.9-42.3-105.2-38.1-192.8 7.7 13.2 17 28.1 28 43.7a497.7 497.7 0 0 0 70.6 81.1 358.9 358.9 0 0 0 100.4 66.1c110 61.6 160.9 115.9 184.2 150.7 24.1 36 24 58.5 24 59.7-.1 2.3-.1 10.4.3 70.5l.4 56.7v2c-1.4 5.2-6.8 21.8-19.3 39.1zm283.3-131.4-40.4 4.2 30.6 26.8c2.1 1.8 41.8 35.9 99.4 46.4-71.4 62.4-134.7 114-218.7 101.7-33.7-4.9-60.6-21-80-47.8a134.8 134.8 0 0 1-19.4-39v-2.1l.4-56.7c.4-60.1.5-68.1.3-70.4 0-1.3-.1-23.8 24-59.7 23.3-34.8 74.1-89.1 184.2-150.7 35.2-15 69-37.2 100.4-66.1 25.1-23 48.9-50.3 70.6-81.1 11-15.6 20.3-30.5 28-43.7 4.2 87.6-17.2 151.9-38.1 192.8-27.4 53.7-59.9 79.9-60.2 80.2l-27.6 21.7 33.8 9.3c2.3.6 45.8 12.3 98.1 3.7A277 277 0 0 1 823 623a237.4 237.4 0 0 1-76.8 26.4z"/></svg>
