<svg xmlns="http://www.w3.org/2000/svg" xml:space="preserve" viewBox="0 0 1000 1000"><path d="M949.4 660.6a153.3 153.3 0 0 1-79.2 5.7 279.2 279.2 0 0 0 33.7-27.9c33.7-32.4 76.5-89.9 89.3-179.5l6.2-43.1-34.8 26.3a135.2 135.2 0 0 1-72.2 25.4 277.8 277.8 0 0 0 21.4-65.9 341 341 0 0 0 3-108.5 469.5 469.5 0 0 0-44-143.2L852 106.4l-12.7 46.5c-.2.6-17.8 64.3-57.2 142.9-36 71.8-98.1 171.1-189.6 236.7-34.7 24.8-71.3 54.3-92.5 99-21.2-44.7-57.9-74.2-92.5-99C316 467 253.8 367.6 217.9 295.8c-39.4-78.5-57-142.3-57.2-142.9L148 106.4l-20.9 43.5a469.5 469.5 0 0 0-44 143.2c-4.8 37.5-3.8 74 3 108.5 5.5 28 13.9 50.2 21.4 65.9-20-1.3-47.8-7-72.2-25.4L.6 415.9 6.8 459c12.8 89.6 55.6 147 89.3 179.5a297.6 297.6 0 0 0 33.7 27.9 154.4 154.4 0 0 1-79.2-5.7L0 641.9l29.3 45.3c43.9 67.9 83.1 114.9 123.3 148.1a271.6 271.6 0 0 0 75.2 45 201.8 201.8 0 0 0 86.7 12.8c72.1-5.2 129.1-30.2 164.6-72.4 8.2-9.7 15.2-20.3 20.9-31.5a159.6 159.6 0 0 0 20.9 31.5c35.6 42.1 92.5 67.2 164.6 72.4a204 204 0 0 0 86.7-12.8 266.8 266.8 0 0 0 75.2-45c40.2-33.2 79.4-80.2 123.3-148.1l29.3-45.3-50.6 18.7zm-497.7 137c-29.2 34.6-77.5 55.2-139.7 59.7-95.5 6.9-170.5-71.5-227.7-152.8a212.1 212.1 0 0 0 98.4-16.2l37.4-17.4-38.2-15.6c-1.1-.4-98.3-41.5-131.7-164.1a185 185 0 0 0 91 11.1l29.5-4.9-18.1-23.7c-.2-.3-21.6-29.2-31.4-81.2-7.7-41-9.3-104 20.2-183.8a981.7 981.7 0 0 0 44.1 102.5c24 48 51 91.9 80.4 130.5 36.9 48.6 77.6 89 120.9 120 44.3 31.7 88.1 68.4 94.7 136.3 3.5 37.3-7.1 72.6-29.8 99.6zm236.4 59.6c-62.3-4.5-110.6-25.1-139.7-59.7a132.6 132.6 0 0 1-29.6-99.5c6.6-67.9 50.4-104.6 94.7-136.3 43.3-31 84-71.4 120.9-120a835.2 835.2 0 0 0 80.4-130.5c20-40 34.5-76 44.1-102.5 29.5 79.9 27.9 142.9 20.2 183.8-9.8 52-31.1 80.9-31.3 81.1l-18.1 23.7 29.4 5c2.3.4 45.2 7.2 91.1-11.1a259.5 259.5 0 0 1-69.9 120.3 223 223 0 0 1-61.9 43.8L780 670.8l37.4 17.4a213 213 0 0 0 98.4 16.2c-57.2 81.3-132.2 159.7-227.7 152.8z"/></svg>
