<svg xmlns="http://www.w3.org/2000/svg" xml:space="preserve" width="1000" height="1000" version="1.2"><path d="M999.976 61.05c.1-3.4-.2-6.6-1.3-9.3-2.8-6.9-9.1-12-16.4-12.9-.1 0-440.9 54.9-440.9 54.9-11 1.4-18.7 11.4-17.3 22.3 1.4 11 11.4 18.7 22.3 17.3l374.1-47-636.6 585-169.6-200.1c-7.1-8.4-19.8-9.5-28.2-2.3-8.4 7.1-9.5 19.8-2.3 28.2l170.7 201.3-248 227.9c-8.1 7.5-8.7 20.1-1.2 28.3 3.9 4.3 9.3 6.5 14.7 6.5 4.8 0 9.7-1.7 13.5-5.3l246.8-226.8 169.7 200.1c4 4.7 9.6 7.1 15.3 7.1 4.6 0 9.2-1.6 12.9-4.7 8.4-7.1 9.5-19.8 2.3-28.2l-170.7-201.5 637.7-586.1-76.5 362.2c-2.3 10.8 4.6 21.4 15.4 23.7 1.4.3 2.8.4 4.2.4 9.3 0 17.6-6.5 19.5-15.9 5.7-26.9 11.4-53.7 17-80.6 11.8-56 23.6-111.9 35.5-167.9 10.3-48.2 37-166.2 37.4-176.6z"/></svg>