<svg xmlns="http://www.w3.org/2000/svg" xml:space="preserve" width="1000" height="1000" version="1.2"><path d="m994.006 455.4-149.1-149.1c13-26.2 20.4-55.7 20.4-86.9 0-107.9-87.8-195.8-195.8-195.8-107.9 0-195.8 87.8-195.8 195.8 0 107.9 87.8 195.8 195.8 195.8 61.8 0 117-28.8 152.9-73.7l142.7 142.7c4 4 9.2 6 14.4 6 5.2 0 10.4-2 14.4-6 8.1-7.9 8.1-20.8.1-28.8zm-324.5-81c-85.4 0-154.9-69.5-154.9-154.9s69.5-154.9 154.9-154.9 154.9 69.5 154.9 154.9c.1 85.4-69.4 154.9-154.9 154.9zm-196.6 152.9c0-101.4-82.5-184-184-184-101.4 0-184 82.5-184 184 0 94.5 71.7 172.6 163.6 182.8v88.1h-62.7c-11.3 0-20.4 9.1-20.4 20.4 0 11.3 9.1 20.4 20.4 20.4h62.7v47.8c0 11.3 9.1 20.4 20.4 20.4 11.3 0 20.4-9.1 20.4-20.4V839h65.1c11.3 0 20.4-9.1 20.4-20.4 0-11.3-9.1-20.4-20.4-20.4h-65.1v-88.1c91.9-10.2 163.6-88.3 163.6-182.8zm-327.1 0c0-78.9 64.2-143.1 143.1-143.1 78.9 0 143.1 64.2 143.1 143.1 0 78.9-64.2 143.1-143.1 143.1-78.9 0-143.1-64.2-143.1-143.1zm753.2-29.1v395.3c0 22.9-18.6 41.5-41.5 41.5h-774.5c-22.9 0-41.5-18.6-41.5-41.5V150.6c0-22.9 18.6-41.5 41.5-41.5h377.7c11.5 0 20.8-9.3 20.8-20.8s-9.3-20.8-20.8-20.8h-377.7c-45.8 0-83 37.2-83 83v742.9c0 45.8 37.2 83 83 83h774.5c45.8 0 83-37.2 83-83V498.2c0-11.5-9.3-20.8-20.8-20.8s-20.7 9.4-20.7 20.8z"/></svg>