<svg id="Слой_1" data-name="Слой 1" xmlns="http://www.w3.org/2000/svg" viewBox="0 0 1000 1000"><title>icons_work</title><path d="M608.06,957.72a18.46,18.46,0,0,1-11.78-4.24L518.14,889a392.9,392.9,0,0,1-46.42-.15l-78.55,64a18.5,18.5,0,0,1-18.82,2.73L258,906.93a18.49,18.49,0,0,1-11.28-15.32L237.1,790.72a393.6,393.6,0,0,1-32.7-32.91L103.57,747.53a18.5,18.5,0,0,1-15.24-11.38L40.46,619.5a18.46,18.46,0,0,1,2.85-18.8l64.52-78.14c-.4-7.31-.61-14.67-.61-22,0-8.1.26-16.3.77-24.46L44,397.59a18.5,18.5,0,0,1-2.73-18.82L89.86,262.43a18.5,18.5,0,0,1,15.31-11.28l100.9-9.62A392.2,392.2,0,0,1,239,208.82L249.25,108a18.5,18.5,0,0,1,11.38-15.24L377.29,44.88a18.49,18.49,0,0,1,18.8,2.85l78.13,64.53a392.89,392.89,0,0,1,46.42.15l78.55-64A18.52,18.52,0,0,1,618,45.65L734.36,94.28a18.53,18.53,0,0,1,11.28,15.32l9.62,100.89A392.2,392.2,0,0,1,788,243.4l100.82,10.28A18.48,18.48,0,0,1,904,265.06l47.88,116.65a18.51,18.51,0,0,1-2.85,18.8l-64.53,78.14c.41,7.31.61,14.67.61,22,0,8.11-.25,16.3-.76,24.47l64,78.55a18.48,18.48,0,0,1,2.73,18.82L902.5,738.78a18.5,18.5,0,0,1-15.31,11.28L786.3,759.68a390.82,390.82,0,0,1-32.92,32.71L743.11,893.21a18.48,18.48,0,0,1-11.38,15.24L615.08,956.33A18.5,18.5,0,0,1,608.06,957.72Zm-83.8-106.2A18.45,18.45,0,0,1,536,855.75l75.25,62.14,96.14-39.46,9.89-97.1a18.5,18.5,0,0,1,6.43-12.23,353.57,353.57,0,0,0,39.45-39.2,18.5,18.5,0,0,1,12.27-6.35l97.17-9.27,40.08-95.88-61.66-75.65a18.5,18.5,0,0,1-4.1-13.18c.79-9.63,1.18-19.37,1.18-29,0-8.86-.33-17.84-1-26.69a18.56,18.56,0,0,1,4.19-13.17l62.14-75.24L874,289.36l-97.1-9.89A18.47,18.47,0,0,1,764.68,273a356.06,356.06,0,0,0-39.2-39.44,18.57,18.57,0,0,1-6.36-12.28l-9.26-97.16L614,84.07l-75.65,61.66a18.53,18.53,0,0,1-13.19,4.09c-9.62-.78-19.36-1.18-29-1.18-8.87,0-17.85.34-26.7,1a18.47,18.47,0,0,1-13.16-4.18L381.08,83.32l-96.14,39.46-9.89,97.1a18.53,18.53,0,0,1-6.44,12.23,354.42,354.42,0,0,0-39.45,39.2,18.47,18.47,0,0,1-12.27,6.35l-97.17,9.27L79.65,382.81l61.65,75.65a18.46,18.46,0,0,1,4.1,13.19c-.78,9.62-1.18,19.36-1.18,29,0,8.88.34,17.86,1,26.7A18.51,18.51,0,0,1,141,540.47L78.89,615.71l39.46,96.14,97.1,9.89a18.49,18.49,0,0,1,12.23,6.44,356.06,356.06,0,0,0,39.2,39.44,18.49,18.49,0,0,1,6.36,12.28l9.27,97.16,95.88,40.08L454,855.48a18.59,18.59,0,0,1,13.19-4.1c9.64.79,19.38,1.19,29,1.19,8.87,0,17.85-.34,26.7-1C523.34,851.53,523.8,851.52,524.26,851.52Z" fill="#050000"/><path d="M496.18,724.3a223.7,223.7,0,1,1,158.18-65.52A222.2,222.2,0,0,1,496.18,724.3Zm0-410.4c-102.94,0-186.7,83.76-186.7,186.7s83.76,186.7,186.7,186.7,186.7-83.75,186.7-186.7S599.13,313.9,496.18,313.9Z" fill="#050000"/></svg>