<svg xmlns="http://www.w3.org/2000/svg" viewBox="0 0 1000 1000"><path d="M127.6 370.3c-10 0-18-8.1-18-18V18a18 18 0 1 1 36 0v334.3c0 9.9-8 18-18 18ZM127.6 1000c-10 0-18-8-18-18V703a18 18 0 1 1 36 0v279c0 10-8 18-18 18ZM872.4 507.7c-10 0-18-8-18-18V18a18 18 0 1 1 36 0v471.7c0 10-8 18-18 18ZM872.4 1000c-10 0-18-8-18-18V840.5a18 18 0 1 1 36 0V982c0 10-8 18-18 18ZM500 1000c-10 0-18-8-18-18V509.8a18 18 0 1 1 36 0V982c0 10-8 18-18 18ZM500 177.5c-10 0-18-8-18-18V18a18 18 0 1 1 36 0v141.5c0 10-8 18-18 18ZM943.6 738.3H801.2c-24 0-43.4-19.5-43.4-43.5v-59.4c0-24 19.5-43.5 43.4-43.5h142.4c24 0 43.4 19.5 43.4 43.5v59.4c0 24-19.4 43.5-43.4 43.5ZM801.2 627.9a7.5 7.5 0 0 0-7.4 7.5v59.4c0 4.1 3.3 7.5 7.4 7.5h142.4c4.1 0 7.4-3.4 7.4-7.5v-59.4c0-4.1-3.3-7.5-7.4-7.5H801.2ZM571.2 408H428.8c-24 0-43.4-19.4-43.4-43.4v-59.4c0-24 19.5-43.5 43.4-43.5h142.4c24 0 43.4 19.5 43.4 43.5v59.4c0 24-19.5 43.5-43.4 43.5ZM428.8 297.8a7.5 7.5 0 0 0-7.4 7.5v59.4c0 4.1 3.3 7.5 7.4 7.5h142.4c4 0 7.4-3.4 7.4-7.5v-59.4c0-4.1-3.3-7.5-7.4-7.5H428.8ZM198.8 600.8H56.4c-24 0-43.4-19.5-43.4-43.4v-59.5c0-24 19.4-43.4 43.4-43.4h142.4c24 0 43.4 19.5 43.4 43.4v59.5c0 24-19.5 43.4-43.4 43.4ZM56.4 490.5a7.5 7.5 0 0 0-7.4 7.4v59.5c0 4 3.3 7.4 7.4 7.4h142.4c4 0 7.4-3.3 7.4-7.4v-59.5c0-4.1-3.3-7.4-7.4-7.4H56.4Z"/></svg>
