<svg xmlns="http://www.w3.org/2000/svg" xml:space="preserve" width="1000" height="1000" version="1.2"><path d="M636.6 313.3c0-8.9-3-17.2-8.9-24.8-5.9-7.6-13.5-13.6-22.6-17.8-9.2-4.3-18.9-6.4-29.1-6.4H423.9c-10.2 0-19.9 2.1-29.1 6.4-9.2 4.3-16.7 10.2-22.6 17.8-5.9 7.6-8.9 15.9-8.9 24.8 0 13 6.5 23.4 19.4 31.2 11.3 7.1 25.1 10.6 41.2 10.6h152c15.1 0 29-4.4 41.6-13.1 12.7-8.7 19.1-18.3 19.1-28.7zM329 697.8c0-8.9-3-17.2-8.9-24.8-5.9-7.6-13.5-13.6-22.6-17.8-9.2-4.3-18.9-6.4-29.1-6.4h-152c-10.2 0-19.9 2.1-29.1 6.4-9.2 4.3-16.7 10.2-22.6 17.8-5.9 7.6-8.9 15.9-8.9 24.8 0 13 6.5 23.4 19.4 31.2 11.3 7.1 25.1 10.6 41.2 10.6h152c15.1 0 29-4.4 41.6-13.1 12.6-8.7 19-18.3 19-28.7zm615.2-1c0-8.9-3-17.2-8.9-24.8-5.9-7.6-13.5-13.6-22.6-17.8-9.1-4.2-18.9-6.4-29.1-6.4h-152c-10.2 0-19.9 2.1-29.1 6.4-9.2 4.3-16.7 10.2-22.6 17.8-5.9 7.6-8.9 15.9-8.9 24.8 0 13 6.5 23.4 19.4 31.2 11.3 7.1 25.1 10.6 41.2 10.6h152c15.1 0 29-4.4 41.6-13.1 12.6-8.7 19-18.3 19-28.7zm-751.9-64.4c-11.1 0-20.2-9-20.2-20.2v-592c0-11.1 9-20.2 20.2-20.2s20.2 9 20.2 20.2v592c0 11.2-9.1 20.2-20.2 20.2zM499.9 1000c-11.1 0-20.2-9-20.2-20.2V399.5c0-11.1 9-20.2 20.2-20.2 11.1 0 20.2 9 20.2 20.2v580.4c0 11.1-9.1 20.1-20.2 20.1zm0-759.4c-11.1 0-20.2-9-20.2-20.2V20.2c0-11.1 9-20.2 20.2-20.2s20.2 9 20.2 20.2v200.2c0 11.2-9.1 20.2-20.2 20.2zM192.3 1000c-11.1 0-20.2-9-20.2-20.2V779.7c0-11.1 9-20.2 20.2-20.2s20.2 9 20.2 20.2v200.2c0 11.1-9.1 20.1-20.2 20.1zm615.2 0c-11.1 0-20.2-9-20.2-20.2V779.7c0-11.1 9-20.2 20.2-20.2s20.2 9 20.2 20.2v200.2c0 11.1-9.1 20.1-20.2 20.1zm0-367.6c-11.1 0-20.2-9-20.2-20.2v-592c0-11.1 9-20.2 20.2-20.2s20.2 9 20.2 20.2v592c0 11.2-9.1 20.2-20.2 20.2z"/></svg>