<svg xmlns="http://www.w3.org/2000/svg" xml:space="preserve" width="1000" height="1000" version="1.2"><path d="M811 501.4c0-.1 0-.2.1-.3.1-.6.2-1.1.3-1.7 0-.2 0-.3.1-.5 0-.4.1-.9.1-1.3v-2.3c0-.6-.1-1.1-.2-1.7 0-.2-.1-.4-.1-.5-.1-.4-.1-.8-.2-1.1-.1-.2-.1-.5-.2-.7-.1-.3-.2-.7-.3-1-.1-.2-.1-.4-.2-.6l-.6-1.5c-.1-.2-.2-.4-.3-.5-.2-.4-.4-.7-.6-1.1l-.3-.6c-.2-.4-.5-.7-.7-1.1-.1-.1-.2-.3-.3-.4-.4-.5-.8-.9-1.2-1.4l-.1-.1-.2-.2c-.2-.2-.4-.5-.7-.7L599.1 287.7c-8-7.6-20.7-7.2-28.3.8-7.6 8-7.2 20.7.8 28.3l169.6 159.9H41.1c-11 0-20 9-20 20s9 20 20 20h699.7L562.4 683.1c-8.1 7.5-8.5 20.2-1 28.3 3.9 4.2 9.3 6.4 14.6 6.4 4.9 0 9.8-1.8 13.6-5.4l215.5-201 .1-.1.1-.1c.4-.4.8-.7 1.1-1.1.1-.1.2-.3.4-.4.3-.3.6-.7.8-1 .1-.1.2-.3.3-.4.3-.5.6-.9.9-1.4l.3-.6c.2-.3.3-.6.5-.9.1-.2.2-.5.3-.7.1-.1.1-.2.2-.4s.1-.4.2-.6c.1-.2.2-.5.2-.7.3-.7.4-1.1.5-1.6zm84.4 498.6H351.9c-46 0-83.5-37.5-83.5-83.5V673.6c0-11 9-20 20-20s20 9 20 20v242.9c0 24 19.5 43.5 43.5 43.5h543.5c24 0 43.5-19.5 43.5-43.5v-833c0-24-19.5-43.5-43.5-43.5H351.9c-24 0-43.5 19.5-43.5 43.5v260.3c0 11-9 20-20 20s-20-9-20-20V83.5c0-46 37.5-83.5 83.5-83.5h543.5c46 0 83.5 37.5 83.5 83.5v833c0 46-37.5 83.5-83.5 83.5z"/></svg>