<svg xmlns="http://www.w3.org/2000/svg" xml:space="preserve" width="1000" height="1000" version="1.2"><path d="m994.799 630.5-103.6-114.1c-3.6-4-8.7-6.4-14.1-6.5-5.4-.2-10.6 1.8-14.5 5.5l-302.5 289.9-.1.1-1.2 1.2c-.1.1-.2.3-.4.4-.3.3-.5.6-.8 1-.1.2-.2.3-.3.5-.3.4-.6.9-.9 1.4l-.3.6c-.2.3-.3.6-.5.9-.1.2-.2.4-.3.7-.2.4-.3.8-.4 1.2-.1.2-.1.3-.2.5l-.3 1.2-39.3 159.1c-1.7 6.8.3 13.9 5.2 18.9 3.8 3.8 8.9 5.9 14.2 5.9 1.5 0 3.1-.2 4.6-.5l155.4-36.6c.2 0 .3-.1.5-.1.2-.1.4-.1.7-.2.4-.1.7-.2 1.1-.4.3-.1.5-.2.8-.3.4-.2.8-.3 1.1-.5l.6-.3c.3-.2.6-.3.9-.5l.6-.3c.5-.3.9-.6 1.4-1l.2-.2c.4-.3.8-.6 1.2-1l.2-.2.2-.2c.1-.1.3-.2.4-.4l290-298.3c7.3-7.6 7.5-19.6.4-27.4zm-304.6 282.9-88.1-92.9 190.4-182.5 83.5 84.3zm-105.7-53.3 67.1 70.7-89.7 21.1zm319.3-166.4-82.5-83.3 54.1-51.8 77.2 85zm-184.6-441.9h-377.8c-11 0-20-9-20-20s9-20 20-20h377.9c11 0 20 9 20 20s-9 20-20.1 20zm0 154.9h-377.8c-11 0-20-9-20-20s9-20 20-20h377.9c11 0 20 9 20 20s-9 20-20.1 20zm0 154.4h-378.3c-11 0-20-9-20-20s9-20 20-20h378.4c11 0 20 9 20 20s-9 20-20.1 20zm-493-290.6c-21.3 0-38.7-17.4-38.7-38.7 0-21.3 17.4-38.7 38.7-38.7 21.3 0 38.7 17.4 38.7 38.7 0 21.3-17.4 38.7-38.7 38.7zm0 154.9c-21.3 0-38.7-17.4-38.7-38.7 0-21.3 17.4-38.7 38.7-38.7 21.3 0 38.7 17.4 38.7 38.7 0 21.3-17.4 38.7-38.7 38.7zm0 154.4c-21.3 0-38.7-17.4-38.7-38.7 0-21.3 17.4-38.7 38.7-38.7 21.3 0 38.7 17.4 38.7 38.7 0 21.3-17.4 38.7-38.7 38.7zm255.4 368.3h-398.8c-45.7 0-82.8-37.1-82.8-82.8V83.9c0-45.7 37.1-82.8 82.8-82.8h749.5c45.7 0 82.8 37.1 82.8 82.8v381c0 11-9 20-20 20s-20-9-20-20v-381c0-23.6-19.2-42.8-42.8-42.8h-749.5c-23.6 0-42.8 19.2-42.8 42.8v781.4c0 23.6 19.2 42.8 42.8 42.8h398.8c11 0 20 9 20 20s-8.9 20-20 20z"/></svg>