<svg xmlns="http://www.w3.org/2000/svg" viewBox="0 0 1000 1000"><path d="M838.6 703.6a18 18 0 0 0-18 18.1v116.8c0 15.6-21.3 29.3-45.6 29.3H512.9V179.5c0-16 0-65-60.1-82.8l-241-60.5H775c24.3 0 45.6 13.7 45.6 29.3v117.7a18 18 0 1 0 36 0V65.5c0-18.3-9.4-35.8-25.9-48A93.5 93.5 0 0 0 775 0H65.2C29.2 0 0 29.4 0 65.5v773c0 35.3 28 64.2 62.8 65.5l382.7 96h2.2c36 0 65.2-29.4 65.2-65.5V904h262c21 0 40.7-6.2 55.8-17.4a60.5 60.5 0 0 0 25.9-48V721.6c0-10-8-18-18-18Zm-361.8 231c0 15.4-12 28.1-27.2 29.1L67.4 867.8h-2.2c-16 0-29.1-13.1-29.1-29.2V65.5C36 50 48 37.3 63.3 36.3l379.6 95.3c28.3 8.4 34 24.6 34 48v755Z"/><path d="m986 430.8-240.7-101a23 23 0 0 0-28.6 32.9l41.8 71.2H573.8a18 18 0 0 0 0 36.2h184.7l-41.8 71.2a23 23 0 0 0 28.6 32.9l240.6-101c8.6-3.6 14-11.9 14-21.2s-5.4-17.6-14-21.2Zm-218.1 94.7 36.2-61.8a23 23 0 0 0 0-23.3L768 378.6l175 73.4-175 73.5Z"/></svg>
