<svg xmlns="http://www.w3.org/2000/svg" viewBox="0 0 1000 1000">
    <path d="M535 593.6h260.4a48 48 0 0 0 48-48v-34.1c0-45.2-17.6-87.8-49.8-120a168.6 168.6 0 0 0-120-49.9h-50.8c-56.5 0-94 43.6-95.6 45.4a16.6 16.6 0 0 0 25.2 21.4c.3-.3 29.5-33.7 70.4-33.7h50.8a137 137 0 0 1 136.8 136.8v34a15 15 0 0 1-15 15H535a16.5 16.5 0 1 0 0 33ZM664.2 327.5a115.9 115.9 0 0 0 0-231.5 115.9 115.9 0 0 0 0 231.5Zm0-198.5a82.8 82.8 0 0 1 0 165.4 82.8 82.8 0 0 1 0-165.4ZM398 601.4h-50.8c-45.2 0-87.8 17.8-120 50a168.6 168.6 0 0 0-49.8 119.9v34a48 48 0 0 0 48 48.1h294.4a48 48 0 0 0 48-48v-34.1c0-45.2-17.6-87.8-49.8-120a168.6 168.6 0 0 0-120-49.9Zm136.8 204a15 15 0 0 1-15 15H225.4a15 15 0 0 1-15-15v-34.1a137 137 0 0 1 136.8-136.8H398a137 137 0 0 1 136.8 136.8v34ZM256.9 469.6c0 63.9 51.9 115.8 115.7 115.8s115.8-52 115.8-115.8S436.4 354 372.6 354 257 405.9 257 469.6Zm198.4 0a82.8 82.8 0 0 1-165.4 0 82.8 82.8 0 0 1 165.4 0ZM997.5 811.8 930 689a19.7 19.7 0 0 0-36 3.8l-40.9 134a19.6 19.6 0 0 0 18.8 25.5c3.3 0 6.6-.9 9.6-2.5l21.4-11.8a185.4 185.4 0 0 1-42.3 66.9c-52.8 53.1-134.3 70.6-242.1 52a18 18 0 0 0-6.1 35.5c29.6 5 57.5 7.6 83.7 7.6 64.5 0 118.8-15.4 161.9-46a217.4 217.4 0 0 0 84.7-123.6l31.8 9.7a19.6 19.6 0 0 0 23-28.3Zm-67.6-23c-5-1.6-10.7-1-15.3 1.6L899 799l18-58.9 29.7 54-16.9-5.2ZM381.8 42.3a18 18 0 0 0 6-35.4c-97-16.7-176.2-3-235.1 40.4-64.3 47.5-84.6 116-90.1 142L28.2 173A19.6 19.6 0 0 0 6.4 176c-6 5.4-8 13.8-5.2 21.4L50 328.9a19.7 19.7 0 0 0 17.6 12.8h1c7.5 0 14.4-4.3 17.7-11.2l60.1-126.6a19.6 19.6 0 0 0-24.7-26.9l-20.9 7.8c7.6-26.4 27-74.4 73.3-108.6 50.8-37.5 120.7-48.9 207.8-33.9Zm-311.6 238L49 222.6l15.9 7.6a19.9 19.9 0 0 0 15.4.7l16.5-6.2-26.5 55.6Z"/>
</svg>
