<svg xmlns="http://www.w3.org/2000/svg" viewBox="0 0 1000 1000"><path d="M540.1 699.2c10.2 0 18.5-8.2 18.5-18.3s-8.3-18.4-18.5-18.4H371.3a18.4 18.4 0 1 0 0 36.7h168.8Z"/><path d="m579.5 957.8-436.4-5.5h-.3a34.4 34.4 0 0 1-33.8-35V850h5a71.6 71.6 0 0 0 140.7-18.4A71.7 71.7 0 0 0 114 813.3h-5V515.6h7.6a71.6 71.6 0 0 0 140.8-18.4c0-39.1-32.2-71-71.7-71-33 0-61 22.4-69.1 52.7H109V181.2h7.4A71.6 71.6 0 0 0 257.2 163a71.7 71.7 0 0 0-140.8-18.3H109v-73a34.4 34.4 0 0 1 33.8-35H866c18.7 0 34 14.1 34 31.4v179a18.4 18.4 0 0 0 37 0V68c-.1-37.5-31.9-68-71-68H143c-39.1 0-71 32.1-71 71.6v73H21c-10.1 0-18.4 8.1-18.4 18.3s8.3 18.3 18.5 18.3h51V479H21a18.4 18.4 0 1 0 0 36.7h51v297.7H18.5C8.3 813.3 0 821.5 0 831.6S8.3 850 18.5 850H72v67.4a71.3 71.3 0 0 0 70.7 71.5l436.4 5.6h.2c10 0 18.3-8 18.5-18.1.1-10.1-8-18.5-18.3-18.6ZM183.1 797.3c19.1 0 34.6 15.4 34.6 34.3a34.6 34.6 0 0 1-69.2 0c0-19 15.5-34.3 34.6-34.3Zm2.5-334.4c19.1 0 34.7 15.4 34.7 34.4s-15.6 34.3-34.7 34.3-34.6-15.4-34.6-34.3 15.5-34.4 34.6-34.4Zm0-334.4c19 0 34.6 15.4 34.6 34.4s-15.5 34.4-34.6 34.4-34.7-15.5-34.7-34.4 15.6-34.4 34.7-34.4Z"/><path d="M702.8 251.3c0-10.1-8.3-18.3-18.5-18.3H403.7c-10.2 0-18.5 8.2-18.5 18.3s8.3 18.3 18.5 18.3h280.6c10.2 0 18.5-8.2 18.5-18.3ZM403.7 312c-10.2 0-18.5 8.3-18.5 18.4s8.3 18.3 18.5 18.3h168.8c10.2 0 18.5-8.2 18.5-18.3s-8.3-18.4-18.5-18.4H403.7ZM651.9 583.5H371.3c-10.2 0-18.5 8.2-18.5 18.3s8.3 18.3 18.5 18.3H652c10.2 0 18.5-8.2 18.5-18.3s-8.3-18.3-18.5-18.3ZM992.1 441.2a64.3 64.3 0 0 0-38.8-31l-76-21.9a65.4 65.4 0 0 0-80.7 43.5l-7 23.5L686 800.2a63 63 0 0 0 2.2 42.7l34.4 143v.3a11.3 11.3 0 0 0 .5 1.6 17 17 0 0 0 1 2.3l.5 1 .3.4c.3.5.6 1 1 1.3v.1l1.1 1.4.3.2 1 1 .5.4a15.3 15.3 0 0 0 3.2 2.1l1.2.6.6.2a17 17 0 0 0 4.7 1.2h.3a17.1 17.1 0 0 0 3.3 0h.3c.5 0 1 0 1.4-.2h.4l.6-.2h.3l1.2-.4.6-.2 1-.4.7-.3.8-.5.8-.4.7-.5.8-.5.5-.5a27.9 27.9 0 0 0 1-.8l113.4-106.2a63.9 63.9 0 0 0 20-30.5l110.6-368.2a63 63 0 0 0-5.2-48.9ZM867 423.6l76 22c7.2 2 13.1 6.7 16.7 13.2a26.9 26.9 0 0 1 2.2 20.8l-1.8 6L830.3 448l1.8-5.7c4.3-14.6 20-23 35-18.7Zm-115.8 523-15.6-65.2 65 18.8-49.4 46.3Zm100.1-98.8c-4.4 14.6-20 23-35 18.8l-76-22a27.6 27.6 0 0 1-17.6-15.3l-.1-.2c-2.6-5.9-3-12.4-1.1-18.6l98.3-327.3 129.7 37.5-98.2 327.1Z"/></svg>
