<svg xmlns="http://www.w3.org/2000/svg" xml:space="preserve" width="1000" height="1000" version="1.2"><path d="m983.622 372.285-298.3-64.2c-5.7-1.2-10.6-4.8-13.6-9.8l-153.7-264c-8-13.8-28-13.7-35.9.1l-151.8 263.8c-2.9 5.1-7.9 8.7-13.6 9.9l-300.3 64.2c-15.6 3.3-21.8 22.3-11.1 34.2l204.2 226.8c3.9 4.4 5.8 10.2 5.2 16l-31.5 303.8c-1.7 15.9 14.5 27.6 29 21.1l279.4-123.9c5.4-2.4 11.5-2.4 16.8 0l279.4 123.9c14.6 6.5 30.7-5.3 29-21.1l-31.6-303.7c-.6-5.8 1.3-11.7 5.2-16l204.3-226.9c10.6-11.9 4.5-30.8-11.1-34.2z"/></svg>