<svg xmlns="http://www.w3.org/2000/svg" viewBox="0 0 1000 1000"><path d="M773 978.4c-9.3 0-18.6-2.3-27.2-6.8L510.3 847.8a22.1 22.1 0 0 0-20.6 0L254.2 971.6a58 58 0 0 1-61.4-4.4 58 58 0 0 1-23.3-57.1l45-262.2a22.2 22.2 0 0 0-6.4-19.6L17.7 442.6a58 58 0 0 1-14.8-59.8A58 58 0 0 1 50 343l263.3-38.3c7.2-1 13.4-5.6 16.6-12L447.7 54.1A58 58 0 0 1 500 21.6a58 58 0 0 1 52.3 32.6l117.8 238.5c3.2 6.5 9.4 11 16.6 12.1L950 343.1a58 58 0 0 1 47.1 39.7 58 58 0 0 1-14.8 59.8L792 628.3c-5.3 5-7.6 12.4-6.4 19.6l45 262.2a58 58 0 0 1-23.3 57 58.2 58.2 0 0 1-34.2 11.3ZM500 57.9c-8.6 0-16 4.6-19.9 12.3L362.4 308.7a58.3 58.3 0 0 1-44 32L55.3 378.9a21.7 21.7 0 0 0-17.8 15 21.7 21.7 0 0 0 5.6 22.8l190.5 185.7a58.4 58.4 0 0 1 16.7 51.6l-45 262.2a21.7 21.7 0 0 0 8.9 21.6c7 5.1 15.7 5.8 23.3 1.7l235.5-123.8c17-8.9 37.3-8.9 54.3 0l235.4 123.8c7.7 4 16.4 3.4 23.4-1.7 7-5 10.2-13.1 8.8-21.6l-45-262.2c-3.3-19 3-38.2 16.8-51.6L957 416.7c6.1-6 8.2-14.5 5.6-22.7a21.7 21.7 0 0 0-17.9-15l-263.2-38.3a58.4 58.4 0 0 1-44-32L519.9 70.2A21.7 21.7 0 0 0 500 57.9Z"/><path d="M367.3 428.8h-45v147.9c0 8.5-1.8 14.8-5.6 19-3.8 4-8.7 6-14.7 6s-11.1-2-15-6.2c-3.8-4.1-5.7-10.4-5.7-18.8V428.8h-45c-7 0-12.2-1.5-15.7-4.6-3.4-3.1-5.1-7.2-5.1-12.3s1.8-9.4 5.3-12.5c3.6-3 8.8-4.6 15.5-4.6h131c7.2 0 12.5 1.6 16 4.8 3.4 3.1 5.1 7.2 5.1 12.3s-1.7 9.2-5.2 12.3c-3.5 3-8.8 4.6-15.8 4.6ZM498.6 391.4c21.1 0 39.2 4.3 54.4 12.8a83.2 83.2 0 0 1 34.3 36.5 124.5 124.5 0 0 1 11.7 55.6c0 15.7-2.1 30-6.4 42.9a92.9 92.9 0 0 1-19.2 33.4 83.6 83.6 0 0 1-31.3 21.7c-12.4 5-26.6 7.5-42.6 7.5s-30.2-2.6-42.8-7.7a84.8 84.8 0 0 1-50.6-55.5c-4.3-13.1-6.4-27.3-6.4-42.6s2.2-30 6.7-43 11-24.2 19.5-33.3a84.4 84.4 0 0 1 31-21c12.3-4.9 26.2-7.3 41.7-7.3ZM557.2 496c0-14.9-2.4-27.8-7.2-38.7a53.9 53.9 0 0 0-20.6-24.8c-9-5.6-19.2-8.4-30.8-8.4-8.2 0-15.8 1.6-22.8 4.7-7 3-13 7.6-18 13.5-5 6-9 13.5-12 22.7-2.9 9.2-4.4 19.5-4.4 31s1.5 22 4.4 31.4c3 9.3 7 17 12.4 23.2a52 52 0 0 0 41 18.4c10.5 0 20.2-2.6 29-7.9a54.7 54.7 0 0 0 21.2-24.4c5.2-11 7.8-24.6 7.8-40.7ZM713.2 519h-37.7v57.7c0 8.2-2 14.4-5.9 18.7-3.9 4.3-8.8 6.4-14.7 6.4s-11.2-2.1-15-6.3c-3.8-4.3-5.7-10.4-5.7-18.6V420.1c0-9 2.1-15.6 6.3-19.5 4.2-3.8 10.8-5.8 19.8-5.8h53c15.6 0 27.6 1.2 36 3.6a52 52 0 0 1 35.4 31.2 69.5 69.5 0 0 1 4.7 26.3c0 20.7-6.4 36.4-19.1 47.1-12.8 10.7-31.8 16-57 16Zm-10-93.2h-27.7V488h27.7a83 83 0 0 0 24.4-3c6.5-2.1 11.5-5.5 15-10a29.9 29.9 0 0 0 5-18.3c0-9-2.6-16.2-7.9-21.9-5.9-6-18-9-36.5-9Z"/></svg>
