<svg xmlns="http://www.w3.org/2000/svg" xml:space="preserve" width="1000" height="1000" version="1.2"><path d="M908.5 200h-250V67c0-16.7-7-32-21-46s-29.3-21-46-21h-200c-16.7 0-32 7-46 21s-21 29.3-21 46v133h-233c-4 .7-7.2 2.7-9.5 6s-3.5 6.8-3.5 10.5 1.2 7.2 3.5 10.5 5.5 5.3 9.5 6h33v667c0 26.7 8.3 49.7 25 69 18.7 20.7 43.7 31 75 31h534c31.3 0 56.3-10.3 75-31 16.7-19.3 25-42.3 25-69V233h50c4-.7 7.2-2.7 9.5-6s3.5-6.8 3.5-10.5-1.2-7.2-3.5-10.5-5.5-5.3-9.5-6zm-550-133 33-34h200l33 34v133h-266zm466 833c0 18.7-4.7 34-14 46-11.3 14-28.7 21-52 21h-534c-16.7 0-31.8-7-45.5-21s-20.5-29.3-20.5-46V233h666zm-200-133V383c0-4.7 1.7-8.7 5-12 3.3-3.3 7.3-5 12-5s8.7 1.7 12 5c3.3 3.3 5 7.3 5 12v384c0 4.7-1.7 8.7-5 12-3.3 3.3-7.3 5-12 5s-8.7-1.7-12-5c-3.3-3.3-5-7.3-5-12zm-150 0V383c0-4.7 1.7-8.7 5-12 3.3-3.3 7.3-5 12-5s8.7 1.7 12 5c3.3 3.3 5 7.3 5 12v384c0 4.7-1.7 8.7-5 12-3.3 3.3-7.3 5-12 5s-8.7-1.7-12-5c-3.3-3.3-5-7.3-5-12zm-150 0V383c0-4.7 1.7-8.7 5-12 3.3-3.3 7.3-5 12-5s8.7 1.7 12 5c3.3 3.3 5 7.3 5 12v384c0 4.7-1.7 8.7-5 12-3.3 3.3-7.3 5-12 5s-8.7-1.7-12-5c-3.3-3.3-5-7.3-5-12z"/></svg>