<svg xmlns="http://www.w3.org/2000/svg" id="a" viewBox="0 0 1000 1000"><defs/><path d="M982 186H683.2V59.4A59 59 0 0 0 625 0H375a59 59 0 0 0-58.3 59.4V186H18.1a18 18 0 1 0 0 36h78.4v718.6c0 32.8 28.5 59.4 63.5 59.4h680c35 0 63.5-26.6 63.5-59.4V222H982a18 18 0 1 0 0-36ZM352.8 59.4c0-12.9 9.9-23.4 22-23.4H625a22.8 22.8 0 0 1 22.1 23.4V186H353V59.4Zm514.4 881.2c0 12.7-12.5 23.4-27.3 23.4H160c-14.8 0-27.3-10.7-27.3-23.4V222h734.6v718.5Z" class="b"/><path d="M375.1 832.5c10 0 18.1-8 18.1-18V371a18 18 0 0 0-36.1 0v443.3c0 10 8 18 18 18ZM496 832.5c9.9 0 18-8 18-18V371a18 18 0 0 0-36.2 0v443.3c0 10 8.1 18 18.1 18ZM624.9 832.5c10 0 18-8 18-18V371a18 18 0 0 0-36.1 0v443.3c0 10 8 18 18 18Z" class="b"/></svg>
