<svg xmlns="http://www.w3.org/2000/svg" xml:space="preserve" width="1000" height="1000" version="1.2"><path d="M888.269 0c-11.4 0-17 6-17 18v524c0 28.7-7.2 55.3-21.5 79.7-14.4 24.4-33.7 43.8-58.1 58.1-24.4 14.4-50.9 21.5-79.7 21.5h-566.2l247.5-247.5c1.3-3.3 1.7-6.8 1-10.5s-2.2-6.8-4.5-9.5-5.3-4.3-9-5c-3.7-.7-7.2-.3-10.5 1l-267.6 262.1c-12.1 11.8-12 31.2 0 43l267.6 261.1c3.3 2.7 7.2 4 11.5 4s8.2-1.3 11.5-4c.9-1.1 4.2-5.1 4.3-11.2.1-6.5-3.5-10.9-4.3-11.9-80.5-78.8-161-157.6-241.5-236.5h560.2c34.7 0 67-8.9 96.7-26.6 29.7-17.7 53.4-41.4 71.1-71.1 17.7-29.7 26.6-62 26.6-96.7V18c0-5.3-2-9.7-6-13-4-3.3-8.1-5-12.1-5z"/></svg>