<svg xmlns="http://www.w3.org/2000/svg" xml:space="preserve" width="1000" height="1000" version="1.2"><path d="M980 561.85H817.7v-227.4H980c11 0 20-9 20-20s-9-20-20-20H817.7v-172c0-11-9-20-20-20s-20 9-20 20v172H222.3v-172c0-11-9-20-20-20s-20 9-20 20v172H20c-11 0-20 9-20 20s9 20 20 20h162.3v227.4H20c-11 0-20 9-20 20s9 20 20 20h162.9c4.9 76.8 37.2 148.3 92.4 203.2 60 59.7 139.8 92.5 224.6 92.5 84.8 0 164.6-32.9 224.6-92.5 55.2-54.9 87.6-126.4 92.4-203.2H980c11 0 20-9 20-20s-9-20-20-20zm-202.3-227.4v227.1H222.3v-227.1ZM500 857.55c-146.3 0-266.5-113-277-255.7h554c-10.5 142.8-130.7 255.7-277 255.7z"/></svg>