<svg xmlns="http://www.w3.org/2000/svg" xmlns:xlink="http://www.w3.org/1999/xlink" width="0" height="0" style="display:none;"><symbol id="Iconz66-aquarius"><path d="M860 447.47c-6.6 0-12.9-3.3-16.6-8.8L740 285.37l-103.4 153.2c-3.7 5.5-9.9 8.8-16.6 8.8-6.7 0-12.9-3.3-16.6-8.8L500 285.37l-103.4 153.2c-3.7 5.5-9.9 8.8-16.6 8.8-6.7 0-12.9-3.3-16.6-8.8L260 285.37l-103.4 153.2c-3.7 5.5-9.9 8.8-16.6 8.8-6.6 0-12.9-3.3-16.6-8.8l-120-177.8c-6.2-9.2-3.8-21.6 5.4-27.8 9.2-6.2 21.6-3.8 27.8 5.4L140 391.67l103.4-153.2c3.7-5.5 9.9-8.8 16.6-8.8 6.7 0 12.9 3.3 16.6 8.8L380 391.67l103.4-153.2c3.7-5.5 9.9-8.8 16.6-8.8 6.6 0 12.9 3.3 16.6 8.8L620 391.67l103.4-153.2c3.7-5.5 9.9-8.8 16.6-8.8 6.7 0 12.9 3.3 16.6 8.8L860 391.67l103.4-153.2c6.2-9.2 18.6-11.6 27.8-5.4 9.2 6.2 11.6 18.6 5.4 27.8l-120 177.8c-3.7 5.5-10 8.8-16.6 8.8zm0 323c-6.6 0-12.9-3.3-16.6-8.8L740 608.47l-103.4 153.2c-3.7 5.5-9.9 8.8-16.6 8.8-6.7 0-12.9-3.3-16.6-8.8L500 608.47l-103.4 153.2c-3.7 5.5-9.9 8.8-16.6 8.8-6.7 0-12.9-3.3-16.6-8.8L260 608.47l-103.4 153.2c-3.7 5.5-9.9 8.8-16.6 8.8-6.6 0-12.9-3.3-16.6-8.8l-120-177.8c-6.2-9.2-3.8-21.6 5.4-27.8 9.2-6.2 21.6-3.8 27.8 5.4L140 714.77l103.4-153.2c3.7-5.5 9.9-8.8 16.6-8.8 6.7 0 12.9 3.3 16.6 8.8L380 714.77l103.4-153.2c3.7-5.5 9.9-8.8 16.6-8.8 6.6 0 12.9 3.3 16.6 8.8L620 714.77l103.4-153.2c3.7-5.5 9.9-8.8 16.6-8.8 6.7 0 12.9 3.3 16.6 8.8L860 714.77l103.4-153.2c6.2-9.2 18.6-11.6 27.8-5.4 9.2 6.2 11.6 18.6 5.4 27.8l-120 177.8c-3.7 5.4-10 8.7-16.6 8.7z"></path></symbol><symbol id="Iconz66-aries"><path d="M969.2 91.118c-26.3-38.2-71.1-67.8-122.9-81.1-53.9-13.9-106.7-7.3-144.8 18.1-49.1 32.7-84 81.2-106.6 148.4-19.2 57-26.9 118.3-34.4 177.6-2.3 18.3-4.5 35.6-7 52.5-12.8 86.7-21.8 175.2-30.6 260.8-6.9 67.3-14 136.1-22.9 204.5-8.9-68.4-16-137.2-22.9-204.5-8.8-85.6-17.9-174.1-30.6-260.8-2.5-16.9-4.7-34.2-7-52.5-7.5-59.2-15.2-120.5-34.4-177.5-22.6-67.1-57.5-115.7-106.6-148.4-38.1-25.4-90.9-32-144.8-18.1-51.8 13.3-96.6 42.9-122.9 81.1-30.1 43.7-38.7 104.1-23.6 165.6 20 81.6 78 153.1 159 196 9.8 5.2 21.9 1.4 27-8.3 5.2-9.8 1.4-21.9-8.3-27-71-37.6-121.6-99.6-138.9-170.2-12.4-50.5-5.9-99.1 17.7-133.4 20.6-29.9 57.9-54.3 99.9-65.1 42.9-11.1 84-6.4 112.7 12.6 94 62.4 109.8 187.3 123.6 297.6 2.3 18.5 4.5 36 7.1 53.3 12.6 85.9 21.7 173.9 30.4 259.1 10.4 101.5 21.2 206.5 38.2 309 1.6 9.8 10.1 16.7 19.7 16.7 1.1 0 2.2-.1 3.3-.3l1.5-.3 1.5.3c1.1.2 2.2.3 3.3.3 9.6 0 18.1-6.9 19.7-16.7 17-102.5 27.7-207.5 38.2-309 8.7-85.2 17.8-173.2 30.4-259.1 2.5-17.3 4.7-34.8 7.1-53.3 13.9-110.2 29.6-235.2 123.4-297.6 28.7-19.1 69.7-23.7 112.7-12.6 42 10.8 79.3 35.1 99.9 65.1 23.6 34.3 30.1 83 17.7 133.4-17.3 70.6-67.9 132.6-138.9 170.2-9.8 5.2-13.5 17.3-8.3 27 5.2 9.8 17.3 13.5 27 8.3 81-42.9 139-114.3 159-196 15.1-61.6 6.5-122-23.6-165.7z"></path></symbol><symbol viewBox="0 0 1000 1000" id="Iconz66-ban"><path fill="#010101" d="M960.7 305.4a498.3 498.3 0 0 0-107.2-159A498.4 498.4 0 0 0 500 0a498.3 498.3 0 0 0-353.6 146.4A498.4 498.4 0 0 0 0 500a498.3 498.3 0 0 0 146.4 353.6A498.4 498.4 0 0 0 500 1000a498.3 498.3 0 0 0 353.6-146.4A498.4 498.4 0 0 0 1000 500c0-67.5-13.2-133-39.3-194.6ZM500 968.7A469.3 469.3 0 0 1 31.3 500a467 467 0 0 1 126.5-320L820 842.2a467 467 0 0 1-320 126.5ZM842.2 820 180 157.8A467 467 0 0 1 500 31.3 469.3 469.3 0 0 1 968.7 500a467 467 0 0 1-126.5 320Z"></path></symbol><symbol viewBox="0 0 1000 1000" id="Iconz66-bookmark-fill"><path d="M836.4 1000c-3.1 0-6.3-.7-9.3-2l-.8-.5-.8-.5L500 801 173.7 997.4l-.8.4a21.8 21.8 0 0 1-31.1-19.8V22c0-12 9.8-21.9 21.8-21.9h672.8c12 0 21.9 9.8 21.9 21.9V978a21.8 21.8 0 0 1-21.9 22z"></path></symbol><symbol viewBox="0 0 1000 1000" id="Iconz66-bookmark"><path d="M836.4 1000c-3.1 0-6.3-.7-9.3-2l-.8-.5-.8-.5L500 801 173.7 997.4l-.8.4a21.8 21.8 0 0 1-31.1-19.8V22c0-12 9.7-21.9 21.8-21.9h672.8c12 0 21.8 9.8 21.8 21.9V978a21.8 21.8 0 0 1-21.8 22ZM500 762.3c3.2 0 6.4.7 9.3 2l.8.5 312 188V36.1H177.9v916.5l312-188 .8-.3c3-1.4 6.1-2.1 9.3-2.1Z"></path></symbol><symbol id="Iconz66-calendar"><path d="M318.6 352.85H218.1c-16.6 0-30.1 13.5-30.1 30.1v70.6c0 16.6 13.5 30.1 30.1 30.1h100.5c16.6 0 30.1-13.5 30.1-30.1v-70.6c0-16.6-13.5-30.1-30.1-30.1zm-9.9 90.8H228v-50.8h80.7zm241.3-90.8H449.5c-16.6 0-30.1 13.5-30.1 30.1v70.6c0 16.6 13.5 30.1 30.1 30.1H550c16.6 0 30.1-13.5 30.1-30.1v-70.6c0-16.6-13.5-30.1-30.1-30.1zm-9.9 90.8h-80.7v-50.8h80.7zm241.8-90.8H681.4c-16.6 0-30.1 13.5-30.1 30.1v70.6c0 16.6 13.5 30.1 30.1 30.1h100.5c16.6 0 30.1-13.5 30.1-30.1v-70.6c0-16.6-13.5-30.1-30.1-30.1zm-9.9 90.8h-80.7v-50.8H772Zm-453.4 80.7H218.1c-16.6 0-30.1 13.5-30.1 30.1v70.6c0 16.6 13.5 30.1 30.1 30.1h100.5c16.6 0 30.1-13.5 30.1-30.1v-70.6c0-16.6-13.5-30.1-30.1-30.1zm-9.9 90.7H228v-50.8h80.7zm241.3-90.7H449.5c-16.6 0-30.1 13.5-30.1 30.1v70.6c0 16.6 13.5 30.1 30.1 30.1H550c16.6 0 30.1-13.5 30.1-30.1v-70.6c0-16.6-13.5-30.1-30.1-30.1zm-9.9 90.7h-80.7v-50.8h80.7zm241.8-90.7H681.4c-16.6 0-30.1 13.5-30.1 30.1v70.6c0 16.6 13.5 30.1 30.1 30.1h100.5c16.6 0 30.1-13.5 30.1-30.1v-70.6c0-16.6-13.5-30.1-30.1-30.1zm-9.9 90.7h-80.7v-50.8H772Zm-453.4 81.2H218.1c-16.6 0-30.1 13.5-30.1 30.1v70.6c0 16.6 13.5 30.1 30.1 30.1h100.5c16.6 0 30.1-13.5 30.1-30.1v-70.6c0-16.6-13.5-30.1-30.1-30.1zm-9.9 90.7H228v-50.8h80.7zm241.3-90.7H449.5c-16.6 0-30.1 13.5-30.1 30.1v70.6c0 16.6 13.5 30.1 30.1 30.1H550c16.6 0 30.1-13.5 30.1-30.1v-70.6c0-16.6-13.5-30.1-30.1-30.1zm-9.9 90.7h-80.7v-50.8h80.7zm241.8-90.7H681.4c-16.6 0-30.1 13.5-30.1 30.1v70.6c0 16.6 13.5 30.1 30.1 30.1h100.5c16.6 0 30.1-13.5 30.1-30.1v-70.6c0-16.6-13.5-30.1-30.1-30.1zm-9.9 90.7h-80.7v-50.8H772Zm157.6-695.2H802.4v-68.7c0-11-9-20-20-20s-20 9-20 20v68.7H520v-68.7c0-11-9-20-20-20s-20 9-20 20v68.7H228.2v-68.7c0-11-9-20-20-20s-20 9-20 20v68.7H70.4c-38.8 0-70.4 31.6-70.4 70.4v764.4c0 38.8 31.6 70.4 70.4 70.4h859.2c38.8 0 70.4-31.6 70.4-70.4v-764.4c0-38.8-31.6-70.4-70.4-70.4zm30.4 834.8c0 16.8-13.6 30.4-30.4 30.4H70.4c-16.8 0-30.4-13.6-30.4-30.4v-764.4c0-16.8 13.6-30.4 30.4-30.4h117.8v117.6c0 11 9 20 20 20s20-9 20-20v-117.6H480v117.6c0 11 9 20 20 20s20-9 20-20v-117.6h242.4v117.6c0 11 9 20 20 20s20-9 20-20v-117.6h127.2c16.8 0 30.4 13.6 30.4 30.4z"></path></symbol><symbol id="Iconz66-camera_circle"><path d="M16 0a16 16 0 0 0-6 30.8c-3.2 1-6 2.4-8.6 4.4l1.2 1.6c4-3 7.6-4.8 13.4-4.8 4.5.1 8.9 1.8 12.4 4.8l1.2-1.6a22 22 0 0 0-8-4.2A16 16 0 0 0 16 0Zm0 2a14 14 0 1 1 0 28 14 14 0 0 1 0-28Zm0 7a7 7 0 0 0 0 14 7 7 0 0 0 0-14zm0 2a5 5 0 0 1 5 5 5 5 0 0 1-5 5 5 5 0 0 1-5-5 5 5 0 0 1 5-5z"></path></symbol><symbol id="Iconz66-cancer"><path d="M967.212 136.941c-50.7-34.4-107.9-63.2-170.2-85.4-60.7-21.7-124.9-36.8-190.7-44.8-66-8.1-131.9-8.8-196.1-2.3-66.1 6.7-128.8 21.1-186.5 42.7-1.9.7-3.6 1.7-5.1 2.8-22.6 7.6-44 18.8-63.7 33.4-49.5 36.6-81.7 90.4-90.8 151.2-9.1 60.8 6.1 121.7 42.8 171.1 36.6 49.5 90.4 81.7 151.2 90.8 11.5 1.7 23 2.6 34.4 2.6 49 0 96.6-15.6 136.7-45.3 49.5-36.6 81.7-90.4 90.8-151.2 9.1-60.9-6.1-121.7-42.8-171.1-28.1-38-66.3-65.8-110.1-80.8 196.1-32.1 418.2 11.3 577.5 119.5 3.4 2.3 7.4 3.5 11.2 3.5 6.4 0 12.7-3.1 16.6-8.8 6.3-9.3 3.9-21.7-5.2-27.9zm-486.7 159.5c-15.4 103.9-112.5 175.8-216.4 160.4-50.3-7.5-94.7-34.1-125-75-30.3-40.9-42.8-91.1-35.3-141.4 11.7-78.7 70.2-139 143.1-156.9 2.5-.5 5.1-1.1 7.7-1.7 12.2-2.5 24.7-3.8 37.4-3.8 9.3 0 18.7.7 28.2 2.1 103.9 15.4 175.8 112.5 160.3 216.3zm261.3 207.1c-60.9-9.1-121.7 6.1-171.1 42.8-49.4 36.7-81.7 90.4-90.8 151.2-9.1 60.9 6.1 121.7 42.8 171.1 28.1 38 66.3 65.8 110.1 80.8-196.1 32.1-418.2-11.3-577.5-119.5-9.1-6.2-21.6-3.8-27.8 5.3-6.2 9.1-3.8 21.6 5.3 27.8 50.7 34.4 107.9 63.1 170.2 85.4 60.7 21.7 124.9 36.8 190.7 44.8 36.5 4.5 72.9 6.7 109.1 6.7 29.3 0 58.3-1.5 87-4.4 66.1-6.7 128.8-21.1 186.5-42.7 1.9-.7 3.6-1.7 5.1-2.8 22.6-7.6 44.1-18.8 63.7-33.4 49.5-36.6 81.7-90.4 90.8-151.2 9.1-60.9-6.1-121.7-42.8-171.1-36.7-49.5-90.4-81.8-151.3-90.8zm154.5 256c-7.5 50.3-34.1 94.7-75 125-20.1 14.9-42.4 25.4-65.8 31.5-4.1.8-8 1.7-11.5 2.5-.1 0-.2.1-.4.1-11.6 2.2-23.4 3.3-35.3 3.3-9.4 0-19-.7-28.5-2.1-50.3-7.5-94.7-34.1-125-75-30.3-40.9-42.8-91.1-35.3-141.4 7.5-50.3 34.1-94.7 75-125 33.2-24.6 72.5-37.5 113-37.5 9.4 0 19 .7 28.5 2.1 103.8 15.5 175.7 112.6 160.3 216.5z"></path></symbol><symbol id="Iconz66-capricorn"><path d="M789.543 436.894c-78.7-27.6-161.5 6-213.3 68-.5-86.5-.5-173.9-6.8-260.2-5.3-73-16.4-156.6-71.3-210.4-57.9-56.8-134.2-40.5-170.1 30.2-32.2 63.5-42.1 144.4-54.3 213.8-21.3-92.9-65.1-187.4-139-250.4-12.3-10.4-37.7-17.6-39.7 7.5-1.5 19.3 29.8 38.3 41.4 51.3 29.8 33.6 53.4 72.2 70.7 113.6 31.4 74.9 42.6 156.4 47.3 236.9.9 14.8-3.8 46.4 6.3 58.3 10.5 12.4 29.6 8.5 35-6.6 5.8-15.9.5-42 1.1-59.1.8-20.4 2.4-40.7 4.5-61 9-85.4 23.2-177.7 51.4-259.2 10.9-31.7 32.4-76.1 73-71.5 39.4 4.5 67.9 48.4 80.2 82.1 32.7 89.7 25.1 189.9 28.4 283.6 1.7 48.2 0 96.6 3.1 144.7 1.6 24.4-13.3 46.9-21 70.2-7.3 22-13.3 44.5-18.7 67.1-18.7 77.9-26.5 183.9-83.6 245.5-12.8 13.8-28.5 23.4-47 27-21.5 4.3-39.1-5.5-59.6-4.6-16.6.7-29.3 16.2-18 32 10 14.1 44.7 14.3 60.1 14.3 78.1 0 120.2-65.7 143.3-131.8 26.6-76.4 35.7-157.4 60.8-234.2 29.8 83.1 109 142.2 198.8 135.4 83.2-6.3 143.9-70.9 151.7-152.9 7.4-79.3-39.4-153.2-114.7-179.6zm70.6 199.1c-17 66.6-80.7 103.7-147.6 91.6-76.8-13.8-122.5-81.8-132.5-155.2 0-.2-.1-.4-.1-.7 0-.2-.1-.5-.1-.7.1-.2.3-.5.4-.7.1-.2.3-.5.4-.7 36.2-66.1 107.4-119.2 185.9-98 72.4 19.6 111.8 92.8 93.6 164.4z"></path></symbol><symbol id="Iconz66-chevron-down"><path d="M0 263.1c0-7 2.5-13.2 7.4-18.4 4.9-5.3 11.1-7.9 18.4-7.9 7.3 0 13.9 2.5 19.5 7.4L500 700l454.7-455.8c5.6-4.9 12.1-7.4 19.5-7.4s13.5 2.5 18.4 7.4c4.9 4.9 7.4 11.1 7.4 18.4 0 7.3-2.5 13.9-7.4 19.5L518.9 755.8c-4.9 4.9-11.1 7.4-18.4 7.4-7.3 0-13.9-2.5-19.5-7.4L7.4 282.1c-4.9-5.6-7.4-11.9-7.4-19Z"></path></symbol><symbol id="Iconz66-claim"><path fill="#1d1d1b" d="M936.05 314.7c-28.6-36.8-65.3-62.5-109.3-76.6V64.6c0-13.3-5-32.4-29.1-48.2C781.05 5.5 761.25 0 738.75 0s-42.3 5.5-58.9 16.4c-24 15.8-29.1 34.9-29.1 48.2v45.2l-319 109.7h-57.5c-23.4 0-29.1-.6-41.1 0-17 .9-34 1.8-54.8 7.7-34.7 9.9-58.2 27.4-68.4 35.3-3.3 2.5-13.3 10.3-24.9 22.2-17.4 17.9-32 38.5-43.6 61.7-16.8 33.5-25.3 70-25.3 108.4 0 38.4 8.5 74.7 25.3 107.9 16.7 33 39.7 60.9 68.4 83.1 25.8 19.9 54.6 33.5 85.8 40.4l93.3 278.8.2.5c7.5 20.6 27.2 34.5 49.2 34.5h53.4c16.8 0 32.7-8.1 42.5-21.8 9.8-13.6 12.5-31.2 7.2-47.1l-74.7-230 284.2 100.2v32.6c0 13.3 5 32.4 29.1 48.2 16.6 10.9 36.4 16.4 58.9 16.4s42.3-5.5 58.9-16.4c24-15.8 29.1-34.9 29.1-48.2V670.2c44-14.1 80.7-39.8 109.3-76.6 31.6-40.7 47.6-87.6 47.6-139.5-.2-51.8-16.2-98.8-47.8-139.4zm-705.2-55.2h84.2v389.3h-84.2zM77.05 544.6c-13.9-27.5-21-57.7-21-89.8 0-32.1 7.1-62.6 21-90.5 14-28 33.2-51.6 57.2-70.1 14-10.8 37.3-21.6 56.4-28.3v377.7c-20.3-6.3-39.2-16.1-56.4-29.4-23.9-18.6-43.2-42-57.2-69.6zm326.3 399.2c1.8 5.4-.6 9.6-1.7 11.1s-4.3 5.1-10 5.1h-53.4c-5.1 0-9.7-3.2-11.5-7.9l-88.1-263.3h81.9l82.8 254.8zm-48.3-289.2V253.8l295.9-101.7v606.8zm431.7 179.3c0 2 0 7.5-11 14.7-10.1 6.6-22.2 9.9-36.9 9.9s-26.8-3.2-36.9-9.9c-11-7.2-11-12.7-11-14.7v-18.5h.1V96h-.1V64.5c0-2 0-7.5 11-14.7 10.1-6.6 22.2-9.9 36.9-9.9s26.8 3.2 36.9 9.9c11 7.2 11 12.7 11 14.7zm117.7-264.8c-20.9 26.9-46.2 46.2-76.7 58.4V280.8c30.5 12.2 55.8 31.4 76.7 58.4 26.4 34 39.2 71.6 39.2 115 0 43.3-12.8 80.9-39.2 114.9z"></path></symbol><symbol viewBox="0 0 1000 1000" id="Iconz66-companies"><path d="M960.7 303.8a495.4 495.4 0 0 0-107.2-158.1A498.4 498.4 0 0 0 500 0a499.2 499.2 0 0 0-353.6 145.7A495.6 495.6 0 0 0 0 497.3c0 55.3 8.6 109.4 25.4 160.8 16.5 50.2 40.6 97 71.6 139a483.1 483.1 0 0 0 252 177c51 17.3 106 25.9 159.7 25.9 54 0 106.3-8.7 151.4-26.2a520.5 520.5 0 0 0 242.2-183c31-42.4 55-88.7 71.7-137.4a483.2 483.2 0 0 0 26-156c0-67.2-13.2-132.3-39.3-193.6Zm-66.8-49.2H793.6a931 931 0 0 0-93.6-173 465.8 465.8 0 0 1 193.9 173ZM791.6 674.2h-124L583.5 291h186c48.8 130.7 56.2 260.6 22.2 383.2ZM500 903 349 777l121.9-555.2a173.3 173.3 0 0 0 58.3.3L651 777l-151 126ZM236 291h180.4l-84.1 383.3H214.6C180.2 551.5 187.3 421.6 236 291Zm126.8-160.3c15.9 37.7 40 64.4 71.4 79.5l-9.8 44.5H250.7a924 924 0 0 1 98-171.3c2.8 14.3 7.2 30.7 14.1 47.3Zm212.8 124L566 211c32.4-14.8 57.6-41.8 74.2-80.3a244 244 0 0 0 15.1-49.4 931.3 931.3 0 0 1 99.5 173.3H575.6Zm47.1-201.8c-1.4 14.1-5.4 38.9-16 63.6-20.6 47.4-56.1 71.5-105.7 71.5s-84.1-23.7-104-70.5a220.4 220.4 0 0 1-15.8-65.7 465 465 0 0 1 241.5 1Zm-314.6 25a938.8 938.8 0 0 0-96.7 176.8H106.1a465.7 465.7 0 0 1 202-176.8ZM85.6 291h112A695 695 0 0 0 157 499.7c-2 59.3 4.6 117.8 19.4 174.5H70.2a476.3 476.3 0 0 1-33.6-176.9c0-74.1 17.7-144.2 49-206.3Zm1 419.6h100.6c2.9 8.9 6 17.8 9.4 26.6a696.7 696.7 0 0 0 101.9 179 447 447 0 0 1-212-205.6Zm280.8 231.2-1.2-1.5c-65-72-111.7-149.1-140.1-229.7h98.2l-17.7 80.7 181 151.1.5.3.7.5 1 .7.6.4a19 19 0 0 0 3.4 1.6l.5.1a17.6 17.6 0 0 0 3.4.7l.4.1 2 .1a19.7 19.7 0 0 0 3.7-.4l.6-.1 1.3-.4.5-.1 1.7-.7h.1a19 19 0 0 0 1.7-.9l.6-.4 1-.6.6-.5.5-.4 181-151.1-17.7-80.7h104.7c-28.2 80.7-74.7 158-139.6 229.7-.8.8-1.4 1.7-2 2.6-39 13.9-83.8 20.9-130 20.9a466 466 0 0 1-141.3-22ZM713 910.4a686.1 686.1 0 0 0 105.8-199.8h91a485.8 485.8 0 0 1-196.8 199.8Zm214-236.2h-97.7a614.4 614.4 0 0 0 18.9-171A702.4 702.4 0 0 0 807.3 291h107A453.5 453.5 0 0 1 927 674.3Z"></path></symbol><symbol viewBox="0 0 1000 1000" id="Iconz66-digit"><path d="M665.3 358.7a201.4 201.4 0 0 0-113.4-51.6v-27.7a18 18 0 1 0-36 0v90.1a18 18 0 1 0 36 0v-26.2c68.7 7.9 139.8 69.9 139.8 151.2 0 42.2-17.8 83.1-50.2 115.1a162.7 162.7 0 0 1-89.6 46.6v-25.7a18 18 0 1 0-36 0v90.1a18 18 0 1 0 36 0v-28.1c41.2-4.7 82.3-25 115-57.3a198 198 0 0 0 60.9-140.8c0-52-22.2-99.3-62.5-135.7zM464 261.3a18 18 0 0 0-18 18v27h-69.5c-22.7 0-41.1 16.5-41.1 36.9v313.5c0 20.3 18.4 36.9 41.1 36.9H446v27a18 18 0 1 0 36 0v-90.1a18 18 0 1 0-36 0v27h-69.5c-2.7 0-4.4-1-5.1-1.6V344c.6-.6 2.4-1.6 5.1-1.6H446v27a18 18 0 1 0 36 0v-90.1c0-9.9-8-18-18-18z"></path><path d="M960.7 305.4a497.5 497.5 0 0 0-107.2-158.9 499.2 499.2 0 0 0-707-.1A499.2 499.2 0 0 0 39.3 694.6a498.9 498.9 0 0 0 107.1 158.9 499.2 499.2 0 0 0 707.1 0 499.2 499.2 0 0 0 107.2-548.1zM500 964C244.2 964 36 755.8 36 500S244.2 36 500 36s464 208.1 464 464-208.2 464-464 464z"></path><path d="M848.5 352.8c-19-45-46.3-85.5-81-120.2a376.5 376.5 0 0 0-267.4-110.7 376.2 376.2 0 0 0-267.4 110.7A376.5 376.5 0 0 0 122 500a376.2 376.2 0 0 0 110.7 267.4 376.5 376.5 0 0 0 267.4 110.7 376.2 376.2 0 0 0 267.4-110.7A376.5 376.5 0 0 0 878.2 500c0-51-10-100.6-29.7-147.2zM500 842.1c-188.6 0-342.1-153.5-342.1-342.1S311.4 157.9 500 157.9 842.1 311.4 842.1 500 688.6 842.1 500 842.1z"></path></symbol><symbol viewBox="0 0 1000 1000" id="Iconz66-edit"><path d="M247.7 1000h-1.9l-181.3-6.1a61.4 61.4 0 0 1-58.4-58.5l-6-181.2c-.6-14.6 4.6-28 14.5-38L497.8 233c20.6-20.6 55.8-19.1 78.4 3.5l187.3 187.3c22.6 22.6 24 57.7 3.4 78.4L283.8 985.4a50.4 50.4 0 0 1-36.1 14.6Zm286.1-746.4c-4.3 0-8.3 1.4-11.2 4.3L39.5 741.1c-3 3-4.5 7.2-4.3 11.9l6 181.3c.5 12.4 12.1 24 24.5 24.4l181.3 6.1c4.7.2 9-1.4 11.9-4.3L742 477.3c6.9-6.8 5.3-20-3.4-28.6L551.3 261.3c-5-5-11.6-7.7-17.5-7.7ZM863.2 380.8a56.2 56.2 0 0 1-40.3-16.4L635.6 177.1a56.7 56.7 0 0 1-16.3-44.8 69 69 0 0 1 20.5-43.9l67.9-67.9C733.3-5 773.1-7 796.3 16.3l187.3 187.3a56.7 56.7 0 0 1 16.2 44.8 69 69 0 0 1-20.4 43.9l-67.9 67.9a69 69 0 0 1-48.3 20.6ZM756 38.8c-7 0-14.7 3.2-20.7 9.2l-68 67.9a30.2 30.2 0 0 0-9.1 19c-.2 3.5 0 9.9 5 14.7L850.2 337c8 8 23.5 6 33.7-4.3l68-67.9a30.2 30.2 0 0 0 9.1-19c.2-3.5 0-9.9-5-14.7L769 43.8a18 18 0 0 0-13-5Z"></path></symbol><symbol viewBox="0 0 1000 1000" id="Iconz66-events"><path d="M161.9 297.2H58.4A58.4 58.4 0 0 1 0 238.8V135.3A58.4 58.4 0 0 1 58.4 77h103.5a58.4 58.4 0 0 1 58.3 58.4v103.5a58.4 58.4 0 0 1-58.3 58.4Zm-103.5-184c-12.2 0-22.2 9.9-22.2 22.1v103.5c0 12.2 10 22.1 22.2 22.1h103.5c12.2 0 22.1-9.9 22.1-22.1V135.3c0-12.2-10-22.1-22.1-22.1H58.4ZM941.6 297.2H371a58.4 58.4 0 0 1-58.3-58.4V135.3A58.4 58.4 0 0 1 371 77h570.6a58.4 58.4 0 0 1 58.4 58.4v103.5a58.4 58.4 0 0 1-58.4 58.4ZM371 113.2c-12.2 0-22.1 9.9-22.1 22.1v103.5c0 12.2 10 22.1 22.1 22.1h570.6c12.2 0 22.2-9.9 22.2-22.1V135.3c0-12.2-10-22.1-22.2-22.1H371ZM161.9 610.1H58.4A58.4 58.4 0 0 1 0 551.7V448.4a58.4 58.4 0 0 1 58.4-58.4h103.5a58.4 58.4 0 0 1 58.3 58.4v103.4a58.4 58.4 0 0 1-58.3 58.4Zm-103.5-184c-12.2 0-22.2 10-22.2 22.1v103.5c0 12.2 10 22.2 22.2 22.2h103.5c12.2 0 22.1-10 22.1-22.2V448.2c0-12.2-10-22-22.1-22H58.4ZM941.6 610.1H371a58.4 58.4 0 0 1-58.3-58.4V448.4a58.4 58.4 0 0 1 58.3-58.4h570.6a58.4 58.4 0 0 1 58.4 58.4v103.4a58.4 58.4 0 0 1-58.4 58.4ZM371 426.1c-12.2 0-22.1 10-22.1 22.1v103.5c0 12.2 10 22.2 22.1 22.2h570.6c12.2 0 22.2-10 22.2-22.2V448.2c0-12.2-10-22-22.2-22H371ZM161.9 923H58.4A58.4 58.4 0 0 1 0 864.8V761.2a58.4 58.4 0 0 1 58.4-58.4h103.5a58.4 58.4 0 0 1 58.3 58.4v103.5A58.4 58.4 0 0 1 162 923ZM58.4 739c-12.2 0-22.2 10-22.2 22.2v103.5c0 12.2 10 22.1 22.2 22.1h103.5c12.2 0 22.1-9.9 22.1-22.1V761.2c0-12.2-10-22.1-22.1-22.1H58.4ZM941.6 923H371a58.4 58.4 0 0 1-58.3-58.3V761.2a58.4 58.4 0 0 1 58.3-58.4h570.6a58.4 58.4 0 0 1 58.4 58.4v103.5a58.4 58.4 0 0 1-58.4 58.4ZM371 739c-12.2 0-22.1 10-22.1 22.2v103.5c0 12.2 10 22.1 22.1 22.1h570.6c12.2 0 22.2-9.9 22.2-22.1V761.2c0-12.2-10-22.1-22.2-22.1H371Z"></path></symbol><symbol viewBox="0 0 80 80" id="Iconz66-face-id">
    <path d="M13 0C5.7 0 0 5.7 0 13v9a2 2 0 1 0 4.1 0v-9c0-5 3.9-8.9 9-8.9h8.8A2 2 0 0 0 22 0H13zm45 0a2 2 0 1 0 0 4.1h9c5 0 8.9 3.9 8.9 9v8.8a2 2 0 0 0 4.1 0V13c0-7.3-5.7-13-13-13h-9zM23.9 28c-1.2 0-2 1-2 2.2V36c0 1.2.8 2.2 2 2.2 1 0 2-1 2-2.2v-5.7c0-1.2-1-2.1-2-2.1zM42 28C41 28 40 29 40 30.3v14.7c0 1-.5 1.4-1.4 1.4h-1.4a2.1 2.1 0 0 0 0 4.2h1.4c3.3 0 5.6-2.3 5.6-5.6V30.2c0-1.2-1-2.1-2-2.1zm14.6 0c-1 0-2 1-2 2.2V36c0 1.2 1 2.2 2 2.2 1.1 0 2-1 2-2.2v-5.7c0-1.2-.9-2.1-2-2.1zM27.3 55.5c-.5 0-1 .3-1.5.7-.8.9-.7 2.2.1 3A20 20 0 0 0 40 64.6 20 20 0 0 0 54 59a2.1 2.1 0 0 0-2.8-3.1c-3.1 3-6.8 4.4-11.2 4.4-4.4 0-8-1.5-11.2-4.4-.4-.4-1-.6-1.5-.6zM2 56A2 2 0 0 0 0 58v9c0 7.3 5.7 13 13 13h9a2 2 0 1 0 0-4.1h-9c-5 0-8.9-3.9-8.9-9v-8.8c0-1.2-1-2.1-2-2.1zm75.8 0a2 2 0 0 0-2 2v9c0 5-3.9 8.9-9 8.9h-8.8a2 2 0 0 0 0 4.1H67c7.3 0 13-5.7 13-13v-9c0-1-1-2-2-2z"></path>
</symbol><symbol id="Iconz66-filter"><path fill="#1d1d1b" d="M387.407 1000c-9.6 0-19.2-2.8-27.5-8.3-14-9.3-22.4-24.8-22.4-41.6V544.6l-308-467.3c-10.1-15.3-11-34.9-2.3-51.1C35.907 10 52.707 0 71.107 0h857.8c18.6 0 35.5 10.2 44.1 26.7 8.6 16.4 7.5 36.2-3.1 51.5l-321.3 466.6v315.1c0 20-11.9 38-30.3 45.9l-211.4 90.2c-6.2 2.7-12.8 4-19.5 4zM71.207 39.9c-5.4 0-7.9 3.7-8.8 5.2-.8 1.6-2.5 5.7.5 10.2l314.6 477.3v417.5c0 4.7 2.8 7.2 4.5 8.3 1.7 1.1 5.1 2.7 9.4.9l211.4-90.2c3.7-1.6 6.1-5.2 6.1-9.2V532.4l328.3-476.9c3.1-4.5 1.5-8.7.6-10.3-.8-1.6-3.4-5.3-8.8-5.3z"></path></symbol><symbol id="Iconz66-gemini"><path d="M990.9 944.45c-56.6-36.8-118.1-67.4-182.8-91.1-36.7-13.4-73.8-24.3-111.4-32.9v-640.9c37.6-8.5 74.8-19.5 111.4-32.9 64.7-23.6 126.2-54.3 182.8-91.1 9.3-6 11.9-18.4 5.9-27.7s-18.4-11.9-27.7-5.9c-82.8 53.8-255.9 143.5-484.8 139.3-203.4-3.7-358.8-77.8-453.4-139.3-9.3-6-21.6-3.4-27.7 5.9-6 9.3-3.4 21.6 5.9 27.7 54.1 35.2 112.6 64.8 173.9 87.9 39.4 14.9 79.6 26.9 120.2 36.1v640.7c-40.6 9.3-80.7 21.4-120.2 36.3-61.3 23.1-119.8 52.7-173.9 87.9-9.3 6-11.9 18.4-5.9 27.7s18.4 11.9 27.7 5.9c94.6-61.5 250-135.6 453.4-139.3 67.8-1.2 130.7 5.8 187.9 17.6.3.1.7.2 1 .2 135.2 28.3 237.8 83.7 295.9 121.5 3.4 2.2 7.1 3.2 10.9 3.2 6.5 0 13-3.2 16.8-9.1 6-9.3 3.4-21.7-5.9-27.7zm-507.4-145.8c-47.2.9-94 5.5-140.3 13.7v-624.6c46.3 8.3 93.1 12.8 140.3 13.7 5.5.1 10.9.1 16.4.1 52.7 0 105.1-4.7 156.8-13.9v624.7a887.91 887.91 0 0 0-173.2-13.7z"></path></symbol><symbol viewBox="0 0 1000 1000" id="Iconz66-heart"><path d="M500 897.3a58.4 58.4 0 0 1-40.5-16.3L18 457.5a58.2 58.2 0 0 1-2.4-82l235.9-254a58.7 58.7 0 0 1 84.9-1L484 272.8c4.2 4.4 9.8 6.8 16 6.8s11.6-2.4 15.8-6.8l147.8-152.3a58.7 58.7 0 0 1 42-17.7h.6c16 .1 31.4 7 42.2 18.7l235.9 254a58.2 58.2 0 0 1-2.4 82L540.5 881a58.3 58.3 0 0 1-40.5 16.3zM294.4 139.1h-.3a22 22 0 0 0-16 7l-235.9 254a22.3 22.3 0 0 0 1 31.2l441.4 423.4a22.1 22.1 0 0 0 30.8 0l441.5-423.4c8.7-8.4 9-22.3.9-31.2l-235.9-254a22 22 0 0 0-16-7h-.3a22 22 0 0 0-15.9 6.7L542 298.1a58 58 0 0 1-42 17.8 58 58 0 0 1-42-17.8L310.3 145.8a22 22 0 0 0-16-6.7z"></path><path d="M712.3 585.3a18.1 18.1 0 0 1-12.1-31.8L835 433.8a22 22 0 0 0 1.6-31.6L719.1 274.5a18.2 18.2 0 0 1 26.8-24.6l117.4 127.7a58.1 58.1 0 0 1-4.2 83.3L724.3 580.7a18 18 0 0 1-12 4.6z"></path></symbol><symbol viewBox="0 0 1000 1000" id="Iconz66-info"><path d="M982 227c-10 0-18.2-8-18.2-18V49.1c0-7-5.7-12.9-12.8-12.9H780.2a18.1 18.1 0 0 1 0-36.3H951c27 0 49 22 49 49.2V209c0 10-8 18.2-18 18.2ZM18 227c-9.9 0-18-8-18-18V49.1C0 22.1 22 0 49 0h170.8c10 0 18 8.1 18 18.2s-8 18.1-18 18.1H49c-7 0-12.8 5.8-12.8 13v159.6c0 10-8.1 18.2-18.1 18.2ZM951 1000H780.2c-10 0-18-8.1-18-18.2s8-18.1 18-18.1H951c7 0 12.8-5.8 12.8-13V791.2a18.1 18.1 0 1 1 36.2 0v159.7c0 27.1-22 49.2-49 49.2ZM219.8 1000H49c-27 0-49-22-49-49.2V791a18.1 18.1 0 1 1 36.2 0v159.7c0 7 5.7 12.9 12.8 12.9h170.8a18.1 18.1 0 0 1 0 36.3ZM498.7 354a88 88 0 0 1-64.5-26.9 89 89 0 0 1-26.8-64.8c0-25 9-47.4 26.9-65 17.7-17.8 39.4-26.7 64.4-26.7s47 9 64.7 26.7c17.6 17.7 26.6 39.6 26.6 65s-9 46.9-26.5 64.8a87.9 87.9 0 0 1-64.8 27Zm0-147a53 53 0 0 0-39 16c-10.9 10.8-16.2 23.7-16.2 39.3s5.3 28.2 16.3 39.1c10.9 11 23.6 16.4 38.9 16.4s28.3-5.4 39-16.3c10.9-11 16.1-23.8 16.1-39.2s-5.2-28.5-16-39.3a52.7 52.7 0 0 0-39.1-16ZM589.2 833.2H430c-22 0-40-18-40-40.1v-19.8c0-22.1 18-40.1 40-40.1 2 0 3.8-1.8 3.8-3.9V516.8a65.6 65.6 0 0 0-25.7-8.2c-22 0-40-18-40-40.2v-19.7c0-22.2 18-40.2 40-40.2h137.2c22 0 40 18 40 40.1v280.7c0 2.1 1.7 3.8 3.8 3.8 22 0 40 18 40 40.2v19.8c0 22.1-18 40.1-40 40.1Zm-181-388.4a3.8 3.8 0 0 0-3.8 3.8v19.8c0 2.2 1.7 3.9 3.8 3.9 8.8 0 22.3 3.1 33.4 7.8 23.5 10 28.4 23 28.4 32.3v217c0 22-17.9 40-40 40a3.8 3.8 0 0 0-3.7 4V793c0 2.1 1.7 3.8 3.8 3.8h159c2.2 0 3.9-1.7 3.9-3.8v-19.8c0-2.1-1.8-3.8-3.8-3.8-22 0-40-18-40-40.2V448.7c0-2.1-1.7-3.9-3.8-3.9H408.2Z"></path></symbol><symbol id="Iconz66-leo"><path d="M885.456 847.123c-10-4.8-21.9-.6-26.7 9.3-28.5 59.1-86.5 116.7-163.9 100.9-47.7-9.7-88-47.8-100.5-94.8-13.5-51 8.9-86.5 37.3-131.4 1.6-2.5 3.2-5 4.7-7.5 9.4-14.9 19-30.1 28.4-44.8 20.9-32.9 42.6-66.9 63-100.8 37.1-61.7 61.9-114.4 78-165.7 20.6-65.4 26-125.9 16.7-185.1-6.5-41.1-21.4-80.8-43.2-114.9-23.3-36.4-54.1-65.7-89.1-84.8-48.9-26.7-107.4-34.4-160.4-21.3-68 16.8-122.4 64.1-153.1 132.9-17.9 40-26.8 85.3-25.8 131.1.6 29.3 5.3 57.9 13.8 84.5-16.8-4.2-34.1-6.4-51.6-6.4-115.7 0-209.8 94.1-209.8 209.8 0 115.7 94.1 209.8 209.8 209.8 115.7 0 209.8-94.1 209.8-209.8 0-77.1-42.2-146.5-107-183-32.5-65.1-33.7-150.6-2.9-219.6 25.6-57.4 70.5-96.6 126.2-110.4 43.5-10.8 91.5-4.4 131.7 17.6 58.3 31.8 100.1 95.7 112 170.9 19.3 122.9-37.7 237.7-89.5 324-20.1 33.5-41.6 67.3-62.4 100-9.4 14.7-19.1 30-28.5 44.9-1.6 2.5-3.1 5-4.7 7.4-15.3 24.2-29.8 47.2-38.8 72.8-10.4 29.8-11.5 59.3-3.3 90.1 16.2 61.4 69 111.1 131.2 123.8 11.1 2.3 22.2 3.4 33.2 3.4 32.6 0 64.4-9.9 93.3-29.2 33-22 61.9-56.4 81.4-97 4.8-9.9.6-21.9-9.3-26.7zm-402.8-288.9c0 93.6-76.2 169.8-169.8 169.8-93.6 0-169.8-76.2-169.8-169.8 0-93.6 76.2-169.8 169.8-169.8 14.8 0 29.5 1.9 43.7 5.7 12.1 3.2 23.6 7.7 34.3 13.3.3.2.6.3.9.5 54.9 28.7 90.9 86.2 90.9 150.3z"></path></symbol><symbol id="Iconz66-libra"><path d="M980 683.9H607.9c-7.2 0-13.9-3.9-17.4-10.1-3.5-6.3-3.5-14 .3-20.1 2.3-3.8 5.7-6.7 9.7-8.3 89.5-37.8 147.3-125 147.3-222.2 0-132.9-108.2-241.1-241.1-241.1-132.9 0-241.1 108.2-241.1 241.1 0 97.2 57.9 184.4 147.4 222.2 3.5 1.4 6.6 3.9 8.9 7.1 4.3 6.1 4.8 14.1 1.4 20.7S413 684 405.6 684H20c-11 0-20-9-20-20s9-20 20-20h312.6c-22.6-17.8-42.5-39.2-58.8-63.4-31.5-46.5-48.2-101-48.2-157.4 0-75.1 29.2-145.7 82.3-198.8 53.1-53.1 123.7-82.3 198.8-82.3 75.1 0 145.7 29.2 198.8 82.3 53.1 53.1 82.3 123.7 82.3 198.8 0 56.4-16.7 110.8-48.2 157.4-16.4 24.2-36.2 45.5-58.8 63.4H980c11 0 20 9 20 20s-9 19.9-20 19.9zm0 174H20c-11 0-20-9-20-20s9-20 20-20h960c11 0 20 9 20 20s-9 20-20 20z"></path></symbol><symbol viewBox="0 0 1000 1000" id="Iconz66-message">
    <path d="M999.7 249.4a49.8 49.8 0 0 0-49.4-44.7H765V80a48.3 48.3 0 0 0-48.2-48.2H48.2A48.3 48.3 0 0 0 0 79.9v435.3a48.3 48.3 0 0 0 48.2 48.2c6.5 0 11.8 5.3 11.8 11.8v226.7l276.8-235.7c2.1-1.8 4.8-2.8 7.6-2.8H717a48.3 48.3 0 0 0 48.2-48.2v-274h185.2c7.3 0 13.3 6 13.3 13.3v431.9c0 7.3-6 13.2-13.3 13.2a49.8 49.8 0 0 0-49.8 49.8v140.8L687 711.2a49.8 49.8 0 0 0-32-11.6l-346.5-.2-43.7 36.6H655c3 0 6.1 1.2 8.5 3.2L937 968.3v-219c0-7.3 6-13.2 13.3-13.2a49.8 49.8 0 0 0 49.7-49.7v-432c0-1.6 0-3.3-.2-5Zm-271 265.8c0 6.5-5.4 11.8-11.8 11.8H344.4c-11.4 0-22.5 4-31.2 11.5L96.5 723V575.2A48.3 48.3 0 0 0 48.2 527c-6.5 0-11.7-5.3-11.7-11.8V79.9c0-6.5 5.2-11.7 11.7-11.7H717c6.5 0 11.7 5.2 11.7 11.7v435.3Z"></path>
    <path d="M567.8 350.6H163a18.2 18.2 0 1 0 0 36.4h404.8a18.2 18.2 0 1 0 0-36.4ZM163 253h299.5a18.2 18.2 0 1 0 0-36.5H163a18.2 18.2 0 1 0 0 36.4Z"></path>
</symbol><symbol viewBox="0 0 1000 1000" id="Iconz66-miss"><path d="M790.2 795.4H209.8a62 62 0 0 1-57.4-38.5L4.4 382.8A58.6 58.6 0 0 1 23 314a61.6 61.6 0 0 1 72.5-3.6l188.8 121.2a23.7 23.7 0 0 0 34.5-10.8l123.8-311.1c9.3-23.4 31.8-38.4 57.4-38.4s48 15 57.4 38.4l123.8 311a23.7 23.7 0 0 0 34.6 10.8l188.7-121A61.6 61.6 0 0 1 977 314a58.6 58.6 0 0 1 18.7 68.7L847.6 756.9a62 62 0 0 1-57.4 38.5ZM61.8 338c-7.3 0-12.7 3.7-14.8 5.3a22 22 0 0 0-7 26l148 374.2a23.5 23.5 0 0 0 21.8 14.6h580.4c9.5 0 18.3-5.9 21.8-14.6l148-374.2a22 22 0 0 0-7-26 23 23 0 0 0-27.5-1.4L736.7 463a62.4 62.4 0 0 1-91.2-28.5L521.8 123.4c-5.4-13.6-18-14.6-21.8-14.6s-16.4 1-21.8 14.6l-123.7 311a62.3 62.3 0 0 1-91.1 28.5L74.5 342c-4.5-3-8.9-4-12.7-4ZM822.6 928.6H177.4c-10.6 0-19.1-8.4-19.1-18.7s8.5-18.7 19-18.7h645.3c10.6 0 19.1 8.4 19.1 18.7s-8.5 18.7-19 18.7Z"></path></symbol><symbol viewBox="0 0 1000 1000" id="Iconz66-models"><path d="M967.6 253.6a414 414 0 0 0-219.3-221C697.5 11 643.6 0 588 0S478.4 11 427.6 32.6a414.2 414.2 0 0 0-251.7 382.6 415.5 415.5 0 0 0 104.4 276.2L159.4 813.3 31.1 684c-7-7.2-18.6-7.2-25.8 0s-7 18.8 0 26l128.3 129.3L5.4 968.6a18.5 18.5 0 0 0 0 26 18.1 18.1 0 0 0 25.8 0l128.2-129.3 128.2 129.1a18.1 18.1 0 0 0 25.8 0 18.5 18.5 0 0 0 0-26L185.2 839.3l120.5-121.5a410 410 0 0 0 442.6 80A414.2 414.2 0 0 0 1000 415.3c0-56-10.9-110.4-32.4-161.6ZM588 793.8c-207.1 0-375.6-169.8-375.6-378.5S381 36.8 588 36.8s375.5 169.8 375.5 378.5S795 793.8 588 793.8Z"></path><path d="M551.5 124.8C422 153.5 349.9 217 310.3 337.4a18.4 18.4 0 0 0 17.4 24.2c7.6 0 14.7-4.9 17.3-12.6 35.4-107.9 97.5-162.4 214.3-188.3a18.4 18.4 0 0 0-7.8-35.9Z"></path></symbol><symbol viewBox="0 0 1000 1000" id="Iconz66-photo"><path d="M694.3 670.8 223.5 807a41.6 41.6 0 0 1-51.4-28.4L1.6 189.4A41.6 41.6 0 0 1 30 137.8L500.8 1.6c22-6.3 45 6.4 51.5 28.4l170.4 589.3c6.4 22-6.4 45.2-28.4 51.5ZM510.8 36.3 40.1 172.5a5.5 5.5 0 0 0-3.8 6.8l170.5 589.3a5.5 5.5 0 0 0 6.7 3.7l470.8-136.2a5.5 5.5 0 0 0 3.7-6.7L517.6 40a5.5 5.5 0 0 0-6.8-3.8Z"></path><path d="m569 509-325.8 94.3a41.6 41.6 0 0 1-51.5-28.4L98 250.7a41.6 41.6 0 0 1 28.4-51.5L452 105c22-6.4 45 6.4 51.5 28.4l93.7 324.2c6.4 22-6.4 45-28.4 51.5ZM136.3 234a5.5 5.5 0 0 0-3.7 6.7l93.7 324.2a5.5 5.5 0 0 0 6.8 3.7l325.7-94.2a5.5 5.5 0 0 0 3.7-6.8L469 143.4a5.5 5.5 0 0 0-6.8-3.7L136.4 234Z"></path><path d="M766.2 998.2 417 897l-53.4-16c-22.6-6.9-24.1-50.2-24.1-50.2L663.9 734l94.4 25.3c3.1 1.1 7 .2 9.6-7.7L864.7 434c.8-2.4-.1-5.8-3.6-6.8l-153.4-45.8-38.6-140.8 300.6 92.1c23.5 7.5 36 26.6 27.9 52L817.4 971.1a40.7 40.7 0 0 1-51.2 27ZM401.6 851.7 773.8 963c6.3 1.9 8.3-.6 8.8-2.3L962.7 374c.8-2.6-.5-5.7-3.2-6.7l-242.8-75L733 351l138.6 41.5c26 8 33.3 34 28 51.3l-98.4 323c-6.4 21-28.2 34.5-48 28.5L661 770.9l-259.3 80.8Z"></path></symbol><symbol viewBox="0 0 1000 1000" id="Iconz66-pin"><path d="M714.8 537.7a22 22 0 0 1-12.4-19.6l-3-281c0-8.7 5-16.6 12.6-20.3 36-17 78.7-46.3 78.7-88.8 0-37.2-32.3-70.8-91.1-94.5C646 12 575.1 0 500 0S354.1 12 300.6 33.5c-58.4 23.6-90.8 56.9-91.1 93.9-2 34.7 25 65.7 78.2 89.8a22 22 0 0 1 13 20.3L297.7 518c0 8.4-5 16-12.4 19.6a174.7 174.7 0 0 0-53.6 36.7 74.2 74.2 0 0 0-22.3 51.1c0 37.3 32.3 70.8 91.1 94.5 44.7 18 101.5 29.3 162.7 32.6 1.6 59.7 8.6 247.6 36.9 247.4 28.2-.2 32.9-187.5 33.6-247.3 62.4-3 120.4-14.3 165.9-32.7 58.8-23.7 91.1-57.3 91.1-94.5 0-18-7.5-35.2-22.3-51a174.5 174.5 0 0 0-53.6-36.8Zm-28.7 149c-49.4 19.8-115.5 30.8-186 30.8s-136.7-11-186.1-30.9c-43-17.3-68.6-40.1-68.6-61 0-18.7 20.1-38.8 55.2-55.3a58.2 58.2 0 0 0 33.1-51.8l3-280.6a58 58 0 0 0-34.2-53.5c-17.8-8-59-29.5-57.1-55.1V128c0-21 25.6-43.8 68.6-61 49.4-20 115.5-31 186-31s136.7 11 186.1 31c43 17.3 68.6 40 68.6 61 0 18.2-21.2 38.7-58.1 56.3a58.3 58.3 0 0 0-33.1 53.2l2.9 281a58.1 58.1 0 0 0 33 51.8c35.2 16.5 55.3 36.6 55.3 55.2 0 21-25.6 43.8-68.6 61.1Z"></path></symbol><symbol id="Iconz66-pisces"><path d="M932 960h-.5c-77.8 0-152.8-43.5-211.2-122.7-59.3-80.2-95.1-187.2-100.8-301.4-.3-5.3-.5-10.6-.6-15.9h273.3c11 0 20-9 20-20s-9-20-20-20H619.1c5.2-137.6 54.3-269.4 133.8-353.6 53-56.1 115-86 179.2-86.4 11-.1 19.9-9.1 19.9-20.1-.1-11-9-19.9-20-19.9h-.1c-75.4.5-147.3 34.7-208 99-47.4 50.2-85.9 116.9-111.3 193-19.9 59.6-31.2 123.6-33.5 188H420.7c-2.3-64.4-13.6-128.4-33.5-188-25.4-76.1-63.9-142.8-111.3-193C215.2 34.8 143.3.5 67.9 0 56.8-.1 47.8 8.8 47.8 19.9 47.8 31 56.6 40 67.7 40c64.2.4 126.2 30.3 179.2 86.4 79.5 84.2 128.7 216 133.8 353.6H107.6c-11 0-20 9-20 20s9 20 20 20h273.3c-.1 5.3-.3 10.6-.6 15.9-5.7 114.2-41.5 221.2-100.8 301.4C221.1 916.5 146.1 960 68.3 960h-.5c-11 0-20 8.9-20 20 0 11 8.9 20 20 20h.6c90.8 0 177.2-49.3 243.4-138.9 63.9-86.5 102.4-201.2 108.6-323.2.3-6 .5-11.9.7-17.9h157.8c.1 6 .4 12 .7 17.9 6.1 122 44.7 236.7 108.6 323.2 66.2 89.6 152.6 138.9 243.4 138.9h.6c11 0 20-9 20-20-.2-11.1-9.2-20-20.2-20z"></path></symbol><symbol viewBox="0 0 1000 1000" id="Iconz66-profile_model"><path d="M971.4 888.1c-1.5-34.8-25-71.8-58.4-92.2-11.6-7.1-25-12.9-39.6-18.1l-.5-.2c-29.3-10.2-108.3-26.6-114.1-27.8V343.1c0-68.1-28.5-132-80.3-179.9a265.2 265.2 0 0 0-36.7-28.5 134.7 134.7 0 0 0-44.1-93.2C569.1 14.7 545.6 0 500 0c-40.5 0-86.1 9.9-114.8 39.4-23.9 24.6-39.8 54.1-41.9 87.4a276.6 276.6 0 0 0-49.4 36.3A243.7 243.7 0 0 0 213.6 343v412.5c-46.8 9.8-94.1 20.4-126.7 40.3-33.4 20.4-56.8 57.4-58.4 92.2l-.5 10.2 8.5 5.6c44.2 29.2 110.2 53.5 191 70.3 76.5 15.8 170.6 25.8 272.4 25.8s169.9-7.5 245.7-21.7c88.6-16.5 161.6-41.4 216.9-73.9l9.4-5.5-.5-10.7zM500 879.8a393.6 393.6 0 0 0-145-74.9 730.4 730.4 0 0 0-99.7-21.2 445.3 445.3 0 0 0 76.8-21.7c34.7-14.5 58.8-33 73.6-56.5 10-15.8 15.6-34.1 16.7-54.4 24.4 11.8 50 18.1 77.5 18.1s53.8-5.9 77.6-17.1a112 112 0 0 0 16.6 53.5c14.8 23.5 38.9 42 73.6 56.5 25.9 10.8 58.8 18 93.9 25.3a895.3 895.3 0 0 0-107.5 19.8c-62.3 16.1-113.7 40-154.1 72.6zm-81.2-562.5a120.3 120.3 0 0 0 54.7 25.7c33.9 7.1 76.5 3.5 126.8-10.5.9-.3 1.9 0 2.6.6a177.7 177.7 0 0 1 53.9 129.1c0 94.1-70.9 170.8-156.8 170.8s-154.7-76.6-154.7-170.8c0-59.4 27.8-113.8 73.5-144.9zm303.9 25.8v398.5c-15.3-3.8-29.2-8-40.9-12.9-52.5-21.9-73-51.9-67.5-99.4 8.1-6.4 15.8-13.5 22.9-21.3a214 214 0 0 0 55.7-145.7c0-59.4-23.8-116-65.2-155.3a39 39 0 0 0-37.2-9.2c-44.6 12.5-81.5 15.8-109.7 9.9a84.9 84.9 0 0 1-41.7-20.7 46 46 0 0 0-38.1-42.2c-7.9-1.7-16-3.6-11.9-52.8a64.3 64.3 0 0 0-9.6-43.3c32.1-15 82.1-23.5 120.5-23.5 130.4.2 222.7 97.8 222.7 217.9zM500 36.1c52.5 0 88.7 33.3 101.9 77-35.7-15.6-61.3-23.9-101.9-23.9-35.9 0-84.6 6.4-116.9 18.7 12.6-42.3 64.1-71.8 116.9-71.8zM347.4 167c.6.4 1.2 1 1.8 1.7 3.3 3.8 4.7 11.1 3.9 20.4-2.5 30.2-4.6 98.1 48.8 96.1-57.5 37.4-92.8 104.1-92.8 177.1A214 214 0 0 0 364.8 608c6.5 7.1 13.4 13.6 20.7 19.5 6.2 48.5-14.2 79-67.3 101.2a420.7 420.7 0 0 1-68.4 19.3V343.1c0-72.3 38.5-136.5 97.6-176.1zM500 965.6c-175-1.8-350.2-35.6-434-85.8a89.5 89.5 0 0 1 39.8-53.1 195.4 195.4 0 0 1 43.7-18.4c148.4 12.2 257.1 34.9 339.5 108.8.1.1 3.5 4.6 11 4.6s13-4.5 13.1-4.6c84.7-76 209.5-92.3 352-103.9 10.9 4 20.8 8.5 29.2 13.5a89.5 89.5 0 0 1 39.7 52.5c-101.1 54.9-251 88.3-434 86.4z"></path></symbol><symbol viewBox="0 0 1000 1000" id="Iconz66-profile_up"><path d="M985.3 510.3 556.3 24A74.6 74.6 0 0 0 500 0a74.6 74.6 0 0 0-56.3 24l-429 486.8A54.5 54.5 0 0 0 5 570.9c10.8 23.5 36.7 38.8 65.9 38.8l221.1-.2v210c0 34 31.8 61.5 70.9 61.5h274c39 0 70.8-27.5 70.8-61.4V609.3l221.2-.1c29.3 0 55.1-15.3 66-38.8a54.5 54.5 0 0 0-9.7-60.1Zm-23.5 45.2c-3.7 8.1-14.5 17.6-32.8 17.6l-239.4.1a18.1 18.1 0 0 0-18.1 18.3v228.1c0 13.8-15.8 25.4-34.5 25.4H363c-18.7 0-34.5-11.6-34.5-25.4V591.5c0-10-8.1-18-18.2-18l-239.3.1c-18.2 0-29-9.5-32.8-17.6-2.4-5.1-3.6-13 3.9-21.5L471 47.8A38.7 38.7 0 0 1 500 36c11.6 0 22.5 4.4 29 11.8L958 534c7.4 8.5 6.2 16.3 3.8 21.5ZM688.3 964H311.6c-10 0-18.2 8-18.2 18s8.2 18 18.2 18h376.6c10 0 18.1-8 18.1-18s-8.1-18-18.2-18Z"></path></symbol><symbol viewBox="0 0 1000 1000" id="Iconz66-purse"><path d="M896.7 737c-10 0-18.2 8.3-18.2 18.3v140.5c0 12.4-10 22.4-22.4 22.4H58.8c-12.3 0-22.4-10-22.4-22.4V285.5c0-12.3 10-22.4 22.4-22.4h797.3c12.3 0 22.4 10 22.4 22.4v127a18.2 18.2 0 1 0 36.4 0v-127a58.9 58.9 0 0 0-58.8-58.8h-20.8l-40-122.5-1.2-1.9A58.7 58.7 0 0 0 715.9 82l-141.1 73.9-58.4-90.4-1-1.2a58.4 58.4 0 0 0-41.2-18.8c-15.6-.5-30.4 5-41.8 15.4L224.8 226.7h-166A58.9 58.9 0 0 0 0 285.5v610.3a58.9 58.9 0 0 0 58.8 58.8h797.3a58.9 58.9 0 0 0 58.8-58.8V755.3c0-10-8.1-18.2-18.2-18.2ZM732.9 114.2l.4-.2a22.3 22.3 0 0 1 28.8 6.1L797 226.7H518l76.7-40.1L732.9 114ZM455.7 89l.6-.5.5-.5a22.2 22.2 0 0 1 30.8.1l54.8 84.8-103 53.9H283.3L455.7 88.9Z"></path><path d="M956 510.6H811.8a44 44 0 0 0-44 44v60.2a44 44 0 0 0 44 44H956a44 44 0 0 0 44-44v-60.2a44 44 0 0 0-44-44Zm7.5 104.2c0 4.1-3.3 7.5-7.5 7.5H811.8a7.5 7.5 0 0 1-7.5-7.5v-60.2c0-4.2 3.4-7.5 7.5-7.5H956c4.2 0 7.5 3.4 7.5 7.5v60.2Z"></path></symbol><symbol id="Iconz66-real"><path d="M443.4 655.563h-.1c-5.5 0-10.7-2.3-14.5-6.2l-119.3-124.8c-7.7-8.1-7.4-20.9.6-28.6 8.1-7.7 20.9-7.4 28.6.6l104.8 109.7 250.1-255.7c7.8-8 20.6-8.1 28.6-.3s8.1 20.6.3 28.6l-264.6 270.6c-3.8 3.9-9 6.1-14.5 6.1zm56.6 344.5c-5.2 0-10.3-2-14.3-5.9l-112.4-112.5-151.8 27.9c-11 2-21.5-5.3-23.5-16.2l-28-152.6-135.4-73.2c-9.5-5.1-13.3-16.8-8.6-26.5l67.8-140.9-67.8-141c-4.7-9.7-.9-21.3 8.5-26.5l135.5-74.1 28-151.8c2-11 12.5-18.2 23.5-16.2l151.7 27.8 112.5-112.5c7.9-7.9 20.7-7.9 28.6 0l112.5 112.5 151.7-27.8c11-2 21.5 5.2 23.5 16.2l28 151.8 135.5 74.1c9.4 5.2 13.2 16.8 8.5 26.5l-67.8 140.9 67.8 140.9c4.7 9.7.9 21.4-8.6 26.5l-135.4 73.2-28 152.6c-2 11-12.5 18.2-23.5 16.2l-151.7-27.8-112.5 112.5c-4 3.9-9.1 5.9-14.3 5.9zm-119.9-160.4c5.3 0 10.5 2.1 14.3 5.9l105.6 105.7 105.7-105.7c4.7-4.7 11.4-6.8 17.9-5.6l142.3 26.1 26.1-142.3c1.1-6 4.9-11.2 10.3-14.1l127-68.6-63.6-132.3c-2.7-5.5-2.7-12 0-17.5l63.7-132.4-127.1-69.5c-5.3-2.9-9.1-8.1-10.2-14.1l-26.1-141.4-142.3 26.1c-6.5 1.2-13.2-.9-17.9-5.6L500 48.862l-105.7 105.6c-4.7 4.7-11.4 6.8-17.9 5.6l-142.3-26.1-26.1 141.4c-1.1 6-4.8 11.1-10.2 14.1l-127.1 69.4 63.7 132.4c2.7 5.5 2.7 12 0 17.5l-63.6 132.3 127 68.6c5.4 2.9 9.2 8.1 10.3 14.1l26.1 142.3 142.3-26.1c1.1-.1 2.3-.3 3.6-.3z"></path></symbol><symbol id="Iconz66-sagittarius"><path d="M999.976 61.05c.1-3.4-.2-6.6-1.3-9.3-2.8-6.9-9.1-12-16.4-12.9-.1 0-440.9 54.9-440.9 54.9-11 1.4-18.7 11.4-17.3 22.3 1.4 11 11.4 18.7 22.3 17.3l374.1-47-636.6 585-169.6-200.1c-7.1-8.4-19.8-9.5-28.2-2.3-8.4 7.1-9.5 19.8-2.3 28.2l170.7 201.3-248 227.9c-8.1 7.5-8.7 20.1-1.2 28.3 3.9 4.3 9.3 6.5 14.7 6.5 4.8 0 9.7-1.7 13.5-5.3l246.8-226.8 169.7 200.1c4 4.7 9.6 7.1 15.3 7.1 4.6 0 9.2-1.6 12.9-4.7 8.4-7.1 9.5-19.8 2.3-28.2l-170.7-201.5 637.7-586.1-76.5 362.2c-2.3 10.8 4.6 21.4 15.4 23.7 1.4.3 2.8.4 4.2.4 9.3 0 17.6-6.5 19.5-15.9 5.7-26.9 11.4-53.7 17-80.6 11.8-56 23.6-111.9 35.5-167.9 10.3-48.2 37-166.2 37.4-176.6z"></path></symbol><symbol id="Iconz66-scorpio"><path d="M999.103 868.313c-1.4-4.3-4-7.7-7.4-10.2-34.5-36.9-51.5-81.2-53.5-139.5-.4-11-9.6-19.7-20.7-19.3-11 .4-19.7 9.6-19.3 20.7 1.7 50 13.7 92.6 36.4 129.2-95.1-23.4-139-122.3-147.4-208.5-5.4-55.4 2.5-107.1 11-161.8 2.4-15.5 4.9-31.4 7-47.6 12-89.3 13.9-162 6-228.8-4.5-38.3-14.6-94-49.6-136.7-27.9-33.9-67.3-52.2-108-50.2-41.3 2.1-79.1 24.5-103.8 61.5-20.6 30.9-37.5 69.9-50.6 116.5-.3-1.4-.5-2.9-.8-4.3-10.3-52.1-26.9-93.5-49.4-123-27.9-36.7-65.1-56.3-110.6-58.4-32.7-1.5-62 10.5-87.2 35.4-38.5 38.2-67 107.1-84.8 205-1.3-5.8-2.7-11.5-4.3-17.2-22.4-84.4-64.9-149.7-130-199.7-8.8-6.7-21.3-5.1-28 3.7-6.7 8.8-5.1 21.3 3.7 28 129.5 99.6 133.9 244.5 138.6 398 .3 11 .7 22.4 1.1 33.6.4 11 9.7 19.7 20.7 19.3 11-.4 19.7-9.7 19.3-20.7-1.2-33 .1-118.6 13.1-206.5 15.6-105.2 42.8-179.5 78.7-215.1 17.2-17 35.9-24.8 57.3-23.9 63.1 2.8 103.2 51.6 122.5 149.2 9.6 48.7 12.6 103.6 12.9 155-5.1 59.7-4.6 111-3.5 140.8v.3c-.4 11.6-.5 22-.4 30.6.1 11 9.1 19.7 20 19.7h.3c11-.1 19.9-9.2 19.7-20.3-.2-14.7.6-35.4 1.5-59.4 1.2-31.5 2.6-69.9 2.4-110.8 8.3-95.5 29.7-192 71-254 17.6-26.4 44-42.3 72.5-43.7 28.4-1.4 55 11.2 75.1 35.6 21.6 26.3 34.6 63.1 40.8 116 7.5 63.4 5.6 132.9-5.9 218.8-2.1 15.8-4.6 31.6-6.9 46.9-8.8 57.3-17.2 111.4-11.3 171.8 6.5 65.9 29.9 126.6 65.9 170.7 26.1 32 58 54.7 94.2 67.3-38.9 20.5-69.3 46.4-92.1 78.3-6.4 9-4.3 21.5 4.7 27.9 3.5 2.5 7.6 3.7 11.6 3.7 6.2 0 12.4-2.9 16.3-8.4 29.6-41.5 73.5-70.3 138.1-90.8 10.6-2.9 16.4-14.2 13.1-24.7z"></path></symbol><symbol viewBox="0 0 1000 1000" id="Iconz66-setting"><path d="M127.6 370.3c-10 0-18-8.1-18-18V18a18 18 0 1 1 36 0v334.3c0 9.9-8 18-18 18ZM127.6 1000c-10 0-18-8-18-18V703a18 18 0 1 1 36 0v279c0 10-8 18-18 18ZM872.4 507.7c-10 0-18-8-18-18V18a18 18 0 1 1 36 0v471.7c0 10-8 18-18 18ZM872.4 1000c-10 0-18-8-18-18V840.5a18 18 0 1 1 36 0V982c0 10-8 18-18 18ZM500 1000c-10 0-18-8-18-18V509.8a18 18 0 1 1 36 0V982c0 10-8 18-18 18ZM500 177.5c-10 0-18-8-18-18V18a18 18 0 1 1 36 0v141.5c0 10-8 18-18 18ZM943.6 738.3H801.2c-24 0-43.4-19.5-43.4-43.5v-59.4c0-24 19.5-43.5 43.4-43.5h142.4c24 0 43.4 19.5 43.4 43.5v59.4c0 24-19.4 43.5-43.4 43.5ZM801.2 627.9a7.5 7.5 0 0 0-7.4 7.5v59.4c0 4.1 3.3 7.5 7.4 7.5h142.4c4.1 0 7.4-3.4 7.4-7.5v-59.4c0-4.1-3.3-7.5-7.4-7.5H801.2ZM571.2 408H428.8c-24 0-43.4-19.4-43.4-43.4v-59.4c0-24 19.5-43.5 43.4-43.5h142.4c24 0 43.4 19.5 43.4 43.5v59.4c0 24-19.5 43.5-43.4 43.5ZM428.8 297.8a7.5 7.5 0 0 0-7.4 7.5v59.4c0 4.1 3.3 7.5 7.4 7.5h142.4c4 0 7.4-3.4 7.4-7.5v-59.4c0-4.1-3.3-7.5-7.4-7.5H428.8ZM198.8 600.8H56.4c-24 0-43.4-19.5-43.4-43.4v-59.5c0-24 19.4-43.4 43.4-43.4h142.4c24 0 43.4 19.5 43.4 43.4v59.5c0 24-19.5 43.4-43.4 43.4ZM56.4 490.5a7.5 7.5 0 0 0-7.4 7.4v59.5c0 4 3.3 7.4 7.4 7.4h142.4c4 0 7.4-3.3 7.4-7.4v-59.5c0-4.1-3.3-7.4-7.4-7.4H56.4Z"></path></symbol><symbol viewBox="0 0 1000 1000" id="Iconz66-sign_in"><path d="M838.6 703.6a18 18 0 0 0-18 18.1v116.8c0 15.6-21.3 29.3-45.6 29.3H512.9V179.5c0-16 0-65-60.1-82.8l-241-60.5H775c24.3 0 45.6 13.7 45.6 29.3v117.7a18 18 0 1 0 36 0V65.5c0-18.3-9.4-35.8-25.9-48A93.5 93.5 0 0 0 775 0H65.2C29.2 0 0 29.4 0 65.5v773c0 35.3 28 64.2 62.8 65.5l382.7 96h2.2c36 0 65.2-29.4 65.2-65.5V904h262c21 0 40.7-6.2 55.8-17.4a60.5 60.5 0 0 0 25.9-48V721.8c0-10-8-18.1-18-18.1Zm-361.8 231c0 15.4-12 28.1-27.2 29.1L67.4 867.8h-2.2c-16 0-29.1-13.1-29.1-29.2V65.5C36 50 48 37.3 63.3 36.3l379.6 95.3c28.3 8.4 34 24.6 34 48v755Z"></path><path d="M982 434H797.3l41.8-71.2a23 23 0 0 0-28.6-33L570 430.9a23 23 0 0 0 0 42.4l240.6 101a22.8 22.8 0 0 0 26.1-6.1 23 23 0 0 0 2.5-26.8L797.3 470H982a18 18 0 0 0 0-36.2Zm-369.1 18 175-73.4-36.2 61.7a23.1 23.1 0 0 0 0 23.4l36.2 61.7L613 452Z"></path></symbol><symbol viewBox="0 0 1000 1000" id="Iconz66-sign_out"><path d="M838.6 703.6a18 18 0 0 0-18 18.1v116.8c0 15.6-21.3 29.3-45.6 29.3H512.9V179.5c0-16 0-65-60.1-82.8l-241-60.5H775c24.3 0 45.6 13.7 45.6 29.3v117.7a18 18 0 1 0 36 0V65.5c0-18.3-9.4-35.8-25.9-48A93.5 93.5 0 0 0 775 0H65.2C29.2 0 0 29.4 0 65.5v773c0 35.3 28 64.2 62.8 65.5l382.7 96h2.2c36 0 65.2-29.4 65.2-65.5V904h262c21 0 40.7-6.2 55.8-17.4a60.5 60.5 0 0 0 25.9-48V721.6c0-10-8-18-18-18Zm-361.8 231c0 15.4-12 28.1-27.2 29.1L67.4 867.8h-2.2c-16 0-29.1-13.1-29.1-29.2V65.5C36 50 48 37.3 63.3 36.3l379.6 95.3c28.3 8.4 34 24.6 34 48v755Z"></path><path d="m986 430.8-240.7-101a23 23 0 0 0-28.6 32.9l41.8 71.2H573.8a18 18 0 0 0 0 36.2h184.7l-41.8 71.2a23 23 0 0 0 28.6 32.9l240.6-101c8.6-3.6 14-11.9 14-21.2s-5.4-17.6-14-21.2Zm-218.1 94.7 36.2-61.8a23 23 0 0 0 0-23.3L768 378.6l175 73.4-175 73.5Z"></path></symbol><symbol viewBox="0 0 1000 1000" id="Iconz66-sign_switch">
    <path d="M535 593.6h260.4a48 48 0 0 0 48-48v-34.1c0-45.2-17.6-87.8-49.8-120a168.6 168.6 0 0 0-120-49.9h-50.8c-56.5 0-94 43.6-95.6 45.4a16.6 16.6 0 0 0 25.2 21.4c.3-.3 29.5-33.7 70.4-33.7h50.8a137 137 0 0 1 136.8 136.8v34a15 15 0 0 1-15 15H535a16.5 16.5 0 1 0 0 33ZM664.2 327.5a115.9 115.9 0 0 0 0-231.5 115.9 115.9 0 0 0 0 231.5Zm0-198.5a82.8 82.8 0 0 1 0 165.4 82.8 82.8 0 0 1 0-165.4ZM398 601.4h-50.8c-45.2 0-87.8 17.8-120 50a168.6 168.6 0 0 0-49.8 119.9v34a48 48 0 0 0 48 48.1h294.4a48 48 0 0 0 48-48v-34.1c0-45.2-17.6-87.8-49.8-120a168.6 168.6 0 0 0-120-49.9Zm136.8 204a15 15 0 0 1-15 15H225.4a15 15 0 0 1-15-15v-34.1a137 137 0 0 1 136.8-136.8H398a137 137 0 0 1 136.8 136.8v34ZM256.9 469.6c0 63.9 51.9 115.8 115.7 115.8s115.8-52 115.8-115.8S436.4 354 372.6 354 257 405.9 257 469.6Zm198.4 0a82.8 82.8 0 0 1-165.4 0 82.8 82.8 0 0 1 165.4 0ZM997.5 811.8 930 689a19.7 19.7 0 0 0-36 3.8l-40.9 134a19.6 19.6 0 0 0 18.8 25.5c3.3 0 6.6-.9 9.6-2.5l21.4-11.8a185.4 185.4 0 0 1-42.3 66.9c-52.8 53.1-134.3 70.6-242.1 52a18 18 0 0 0-6.1 35.5c29.6 5 57.5 7.6 83.7 7.6 64.5 0 118.8-15.4 161.9-46a217.4 217.4 0 0 0 84.7-123.6l31.8 9.7a19.6 19.6 0 0 0 23-28.3Zm-67.6-23c-5-1.6-10.7-1-15.3 1.6L899 799l18-58.9 29.7 54-16.9-5.2ZM381.8 42.3a18 18 0 0 0 6-35.4c-97-16.7-176.2-3-235.1 40.4-64.3 47.5-84.6 116-90.1 142L28.2 173A19.6 19.6 0 0 0 6.4 176c-6 5.4-8 13.8-5.2 21.4L50 328.9a19.7 19.7 0 0 0 17.6 12.8h1c7.5 0 14.4-4.3 17.7-11.2l60.1-126.6a19.6 19.6 0 0 0-24.7-26.9l-20.9 7.8c7.6-26.4 27-74.4 73.3-108.6 50.8-37.5 120.7-48.9 207.8-33.9Zm-311.6 238L49 222.6l15.9 7.6a19.9 19.9 0 0 0 15.4.7l16.5-6.2-26.5 55.6Z"></path>
</symbol><symbol viewBox="0 0 1000 1000" id="Iconz66-sign_up"><path d="M540.1 699.2c10.2 0 18.5-8.2 18.5-18.3s-8.3-18.4-18.5-18.4H371.3a18.4 18.4 0 1 0 0 36.7h168.8Z"></path><path d="m579.5 957.8-436.4-5.5h-.3a34.4 34.4 0 0 1-33.8-35V850h5a71.6 71.6 0 0 0 140.7-18.4A71.7 71.7 0 0 0 114 813.3h-5V515.6h7.6a71.6 71.6 0 0 0 140.8-18.4c0-39.1-32.2-71-71.7-71-33 0-61 22.4-69.1 52.7H109V181.2h7.4A71.6 71.6 0 0 0 257.2 163a71.7 71.7 0 0 0-140.8-18.3H109v-73a34.4 34.4 0 0 1 33.8-35H866c18.7 0 34 14.1 34 31.4v179a18.4 18.4 0 0 0 37 0V68c-.1-37.5-31.9-68-71-68H143c-39.1 0-71 32.1-71 71.6v73H21c-10.1 0-18.4 8.1-18.4 18.3s8.3 18.3 18.5 18.3h51V479H21a18.4 18.4 0 1 0 0 36.7h51v297.7H18.5C8.3 813.3 0 821.5 0 831.6S8.3 850 18.5 850H72v67.4a71.3 71.3 0 0 0 70.7 71.5l436.4 5.6h.2c10 0 18.3-8 18.5-18.1.1-10.1-8-18.5-18.3-18.6ZM183.1 797.3c19.1 0 34.6 15.4 34.6 34.3a34.6 34.6 0 0 1-69.2 0c0-19 15.5-34.3 34.6-34.3Zm2.5-334.4c19.1 0 34.7 15.4 34.7 34.4s-15.6 34.3-34.7 34.3-34.6-15.4-34.6-34.3 15.5-34.4 34.6-34.4Zm0-334.4c19 0 34.6 15.4 34.6 34.4s-15.5 34.4-34.6 34.4-34.7-15.5-34.7-34.4 15.6-34.4 34.7-34.4Z"></path><path d="M702.8 251.3c0-10.1-8.3-18.3-18.5-18.3H403.7c-10.2 0-18.5 8.2-18.5 18.3s8.3 18.3 18.5 18.3h280.6c10.2 0 18.5-8.2 18.5-18.3ZM403.7 312c-10.2 0-18.5 8.3-18.5 18.4s8.3 18.3 18.5 18.3h168.8c10.2 0 18.5-8.2 18.5-18.3s-8.3-18.4-18.5-18.4H403.7ZM651.9 583.5H371.3c-10.2 0-18.5 8.2-18.5 18.3s8.3 18.3 18.5 18.3H652c10.2 0 18.5-8.2 18.5-18.3s-8.3-18.3-18.5-18.3ZM992.1 441.2a64.3 64.3 0 0 0-38.8-31l-76-21.9a65.4 65.4 0 0 0-80.7 43.5l-7 23.5L686 800.2a63 63 0 0 0 2.2 42.7l34.4 143v.3a11.3 11.3 0 0 0 .5 1.6 17 17 0 0 0 1 2.3l.5 1 .3.4c.3.5.6 1 1 1.3v.1l1.1 1.4.3.2 1 1 .5.4a15.3 15.3 0 0 0 3.2 2.1l1.2.6.6.2a17 17 0 0 0 4.7 1.2h.3a17.1 17.1 0 0 0 3.3 0h.3c.5 0 1 0 1.4-.2h.4l.6-.2h.3l1.2-.4.6-.2 1-.4.7-.3.8-.5.8-.4.7-.5.8-.5.5-.5a27.9 27.9 0 0 0 1-.8l113.4-106.2a63.9 63.9 0 0 0 20-30.5l110.6-368.2a63 63 0 0 0-5.2-48.9ZM867 423.6l76 22c7.2 2 13.1 6.7 16.7 13.2a26.9 26.9 0 0 1 2.2 20.8l-1.8 6L830.3 448l1.8-5.7c4.3-14.6 20-23 35-18.7Zm-115.8 523-15.6-65.2 65 18.8-49.4 46.3Zm100.1-98.8c-4.4 14.6-20 23-35 18.8l-76-22a27.6 27.6 0 0 1-17.6-15.3l-.1-.2c-2.6-5.9-3-12.4-1.1-18.6l98.3-327.3 129.7 37.5-98.2 327.1Z"></path></symbol><symbol id="Iconz66-star5"><path d="m983.622 372.285-298.3-64.2c-5.7-1.2-10.6-4.8-13.6-9.8l-153.7-264c-8-13.8-28-13.7-35.9.1l-151.8 263.8c-2.9 5.1-7.9 8.7-13.6 9.9l-300.3 64.2c-15.6 3.3-21.8 22.3-11.1 34.2l204.2 226.8c3.9 4.4 5.8 10.2 5.2 16l-31.5 303.8c-1.7 15.9 14.5 27.6 29 21.1l279.4-123.9c5.4-2.4 11.5-2.4 16.8 0l279.4 123.9c14.6 6.5 30.7-5.3 29-21.1l-31.6-303.7c-.6-5.8 1.3-11.7 5.2-16l204.3-226.9c10.6-11.9 4.5-30.8-11.1-34.2z"></path></symbol><symbol id="Iconz66-taurus"><path d="M979.602 54.502c-1.6 0-40.5 1.1-91.5 18-67.6 22.4-125.2 62.5-166.5 115.9-34.1 44.1-52.7 81.8-67.7 112.1-21.9 44.4-35.5 71.9-81.8 90-23.3-6.1-47.4-9.3-72.1-9.3-25.8 0-51.1 3.5-75.4 10.1-43.6-18.1-57-45.1-78.5-88.7-14.9-30.3-33.6-68-67.7-112.1-41.3-53.4-98.9-93.5-166.5-115.9-51-16.9-89.9-18-91.5-18-11-.2-20.2 8.5-20.4 19.5-.3 11 8.5 20.2 19.5 20.5.4 0 35.6 1.1 81.2 16.4 60.3 20.3 109.5 54.6 146.1 102 31.6 40.9 48.5 75.1 63.4 105.3 17.8 36.2 32.9 66.7 65.3 89.7-27.4 13.5-52.8 31.6-75.1 53.8-53.3 53.3-82.6 124.1-82.6 199.5s29.3 146.2 82.6 199.5c53.4 53.4 124.2 82.7 199.6 82.7 75.4 0 146.2-29.3 199.5-82.6 53.3-53.3 82.6-124.1 82.6-199.5s-29.3-146.2-82.6-199.5c-22.8-22.8-48.7-41.1-76.9-54.7 33.7-23.2 49-54.2 67.2-90.9 14.9-30.2 31.8-64.4 63.4-105.4 36.7-47.4 85.8-81.7 146.1-102 45.6-15.3 80.8-16.4 81.1-16.4 11-.2 19.8-9.4 19.6-20.4-.3-11.1-9.4-19.8-20.4-19.6zm-237.5 608.9c0 133.5-108.6 242.1-242.1 242.1s-242.1-108.6-242.1-242.1 108.6-242.1 242.1-242.1 242.1 108.6 242.1 242.1z"></path></symbol><symbol viewBox="0 0 1000 1000" id="Iconz66-top_star"><path d="M773 978.4c-9.3 0-18.6-2.3-27.2-6.8L510.3 847.8a22.1 22.1 0 0 0-20.6 0L254.2 971.6a58 58 0 0 1-61.4-4.4 58 58 0 0 1-23.3-57.1l45-262.2a22.2 22.2 0 0 0-6.4-19.6L17.7 442.6a58 58 0 0 1-14.8-59.8A58 58 0 0 1 50 343l263.3-38.3c7.2-1 13.4-5.6 16.6-12L447.7 54.1A58 58 0 0 1 500 21.6a58 58 0 0 1 52.3 32.6l117.8 238.5c3.2 6.5 9.4 11 16.6 12.1L950 343.1a58 58 0 0 1 47.1 39.7 58 58 0 0 1-14.8 59.8L792 628.3c-5.3 5-7.6 12.4-6.4 19.6l45 262.2a58 58 0 0 1-23.3 57 58.2 58.2 0 0 1-34.2 11.3ZM500 57.9c-8.6 0-16 4.6-19.9 12.3L362.4 308.7a58.3 58.3 0 0 1-44 32L55.3 378.9a21.7 21.7 0 0 0-17.8 15 21.7 21.7 0 0 0 5.6 22.8l190.5 185.7a58.4 58.4 0 0 1 16.7 51.6l-45 262.2a21.7 21.7 0 0 0 8.9 21.6c7 5.1 15.7 5.8 23.3 1.7l235.5-123.8c17-8.9 37.3-8.9 54.3 0l235.4 123.8c7.7 4 16.4 3.4 23.4-1.7 7-5 10.2-13.1 8.8-21.6l-45-262.2c-3.3-19 3-38.2 16.8-51.6L957 416.7c6.1-6 8.2-14.5 5.6-22.7a21.7 21.7 0 0 0-17.9-15l-263.2-38.3a58.4 58.4 0 0 1-44-32L519.9 70.2A21.7 21.7 0 0 0 500 57.9Z"></path><path d="M367.3 428.8h-45v147.9c0 8.5-1.8 14.8-5.6 19-3.8 4-8.7 6-14.7 6s-11.1-2-15-6.2c-3.8-4.1-5.7-10.4-5.7-18.8V428.8h-45c-7 0-12.2-1.5-15.7-4.6-3.4-3.1-5.1-7.2-5.1-12.3s1.8-9.4 5.3-12.5c3.6-3 8.8-4.6 15.5-4.6h131c7.2 0 12.5 1.6 16 4.8 3.4 3.1 5.1 7.2 5.1 12.3s-1.7 9.2-5.2 12.3c-3.5 3-8.8 4.6-15.8 4.6ZM498.6 391.4c21.1 0 39.2 4.3 54.4 12.8a83.2 83.2 0 0 1 34.3 36.5 124.5 124.5 0 0 1 11.7 55.6c0 15.7-2.1 30-6.4 42.9a92.9 92.9 0 0 1-19.2 33.4 83.6 83.6 0 0 1-31.3 21.7c-12.4 5-26.6 7.5-42.6 7.5s-30.2-2.6-42.8-7.7a84.8 84.8 0 0 1-50.6-55.5c-4.3-13.1-6.4-27.3-6.4-42.6s2.2-30 6.7-43 11-24.2 19.5-33.3a84.4 84.4 0 0 1 31-21c12.3-4.9 26.2-7.3 41.7-7.3ZM557.2 496c0-14.9-2.4-27.8-7.2-38.7a53.9 53.9 0 0 0-20.6-24.8c-9-5.6-19.2-8.4-30.8-8.4-8.2 0-15.8 1.6-22.8 4.7-7 3-13 7.6-18 13.5-5 6-9 13.5-12 22.7-2.9 9.2-4.4 19.5-4.4 31s1.5 22 4.4 31.4c3 9.3 7 17 12.4 23.2a52 52 0 0 0 41 18.4c10.5 0 20.2-2.6 29-7.9a54.7 54.7 0 0 0 21.2-24.4c5.2-11 7.8-24.6 7.8-40.7ZM713.2 519h-37.7v57.7c0 8.2-2 14.4-5.9 18.7-3.9 4.3-8.8 6.4-14.7 6.4s-11.2-2.1-15-6.3c-3.8-4.3-5.7-10.4-5.7-18.6V420.1c0-9 2.1-15.6 6.3-19.5 4.2-3.8 10.8-5.8 19.8-5.8h53c15.6 0 27.6 1.2 36 3.6a52 52 0 0 1 35.4 31.2 69.5 69.5 0 0 1 4.7 26.3c0 20.7-6.4 36.4-19.1 47.1-12.8 10.7-31.8 16-57 16Zm-10-93.2h-27.7V488h27.7a83 83 0 0 0 24.4-3c6.5-2.1 11.5-5.5 15-10a29.9 29.9 0 0 0 5-18.3c0-9-2.6-16.2-7.9-21.9-5.9-6-18-9-36.5-9Z"></path></symbol><symbol viewBox="0 0 1000 1000" id="Iconz66-trash"><defs></defs><path d="M982 186H683.2V59.4A59 59 0 0 0 625 0H375a59 59 0 0 0-58.3 59.4V186H18.1a18 18 0 1 0 0 36h78.4v718.6c0 32.8 28.5 59.4 63.5 59.4h680c35 0 63.5-26.6 63.5-59.4V222H982a18 18 0 1 0 0-36ZM352.8 59.4c0-12.9 9.9-23.4 22-23.4H625a22.8 22.8 0 0 1 22.1 23.4V186H353V59.4Zm514.4 881.2c0 12.7-12.5 23.4-27.3 23.4H160c-14.8 0-27.3-10.7-27.3-23.4V222h734.6v718.5Z" class="b"></path><path d="M375.1 832.5c10 0 18.1-8 18.1-18V371a18 18 0 0 0-36.1 0v443.3c0 10 8 18 18 18ZM496 832.5c9.9 0 18-8 18-18V371a18 18 0 0 0-36.2 0v443.3c0 10 8.1 18 18.1 18ZM624.9 832.5c10 0 18-8 18-18V371a18 18 0 0 0-36.1 0v443.3c0 10 8 18 18 18Z" class="b"></path></symbol><symbol id="Iconz66-undo"><path d="M888.269 0c-11.4 0-17 6-17 18v524c0 28.7-7.2 55.3-21.5 79.7-14.4 24.4-33.7 43.8-58.1 58.1-24.4 14.4-50.9 21.5-79.7 21.5h-566.2l247.5-247.5c1.3-3.3 1.7-6.8 1-10.5s-2.2-6.8-4.5-9.5-5.3-4.3-9-5c-3.7-.7-7.2-.3-10.5 1l-267.6 262.1c-12.1 11.8-12 31.2 0 43l267.6 261.1c3.3 2.7 7.2 4 11.5 4s8.2-1.3 11.5-4c.9-1.1 4.2-5.1 4.3-11.2.1-6.5-3.5-10.9-4.3-11.9-80.5-78.8-161-157.6-241.5-236.5h560.2c34.7 0 67-8.9 96.7-26.6 29.7-17.7 53.4-41.4 71.1-71.1 17.7-29.7 26.6-62 26.6-96.7V18c0-5.3-2-9.7-6-13-4-3.3-8.1-5-12.1-5z"></path></symbol><symbol id="Iconz66-up-down-arrow-circle"><path d="M960.799 305.4c-25.2-59.5-61.2-113-107.1-158.9-45.9-45.9-99.4-82-158.9-107.1-6-2.5-12-4.9-18-7.2-2.8-2-6.1-3.2-9.7-3.6-53.4-18.9-109.4-28.5-166.9-28.5-67.5 0-133 13.2-194.6 39.3-59.5 25.2-113 61.2-158.9 107.1-45.9 45.9-82 99.4-107.1 158.9C13.299 367 .099 432.5.099 500s13.2 133 39.3 194.6c25.2 59.5 61.2 113 107.1 158.9 45.9 45.9 99.4 82 158.9 107.1 61.7 26.1 127.1 39.3 194.6 39.3s133-13.2 194.6-39.3c59.5-25.2 113-61.2 158.9-107.1 45.9-45.9 82-99.4 107.1-158.9 26.1-61.7 39.3-127.1 39.3-194.6.2-67.5-13-133-39.1-194.6zM500.099 960c-49.5 0-97.2-7.9-141.9-22.4V389l89.4 127.1c3.9 5.5 10.1 8.5 16.4 8.5 4 0 8-1.2 11.5-3.6 9-6.4 11.2-18.8 4.9-27.9l-125.9-178.8-.1-.1c-.4-.5-.7-1-1.1-1.4l-.3-.3c-.3-.3-.6-.7-.9-1-.2-.2-.4-.3-.5-.5-.3-.2-.5-.5-.8-.7-.2-.2-.4-.3-.6-.5l-.9-.6c-.2-.1-.4-.3-.6-.4-.5-.3-1-.6-1.5-.8l-.6-.3c-.3-.2-.7-.3-1.1-.5-.2-.1-.5-.2-.7-.2-.2-.1-.4-.2-.6-.2-.1 0-.3-.1-.4-.1-.2-.2-.4-.2-.7-.3l-1.2-.3c-.2 0-.4-.1-.6-.1-.5-.1-1-.1-1.4-.2h-.3c-.6 0-1.2-.1-1.8-.1h-.5c-.4 0-.9 0-1.3.1-.2 0-.5.1-.7.1-.3 0-.7.1-1 .2-.3 0-.5.1-.8.2-.3.1-.7.2-1 .3-.2.1-.5.1-.7.2-.5.2-1.1.4-1.6.6-.2.1-.3.2-.5.2l-1.2.6c-.2.1-.4.2-.5.3-.4.2-.8.5-1.2.7-.1.1-.2.1-.3.2l-.1.1c-.5.4-1 .7-1.5 1.2-.1 0-.1.1-.2.1-.4.3-.8.7-1.1 1.1-.2.2-.3.4-.5.6-.2.3-.5.5-.7.8-.2.2-.4.4-.5.7-.1.1-.1.2-.2.3l-121.6 171c-6.4 9-4.3 21.5 4.7 27.9 9 6.4 21.5 4.3 27.9-4.7l85.3-120v534c-163.3-70.7-277.9-233.4-277.9-422.5 0-253.6 206.4-460 460-460 50.7 0 99.5 8.2 145.1 23.4v544.7l-85.3-120c-6.4-9-18.9-11.1-27.9-4.7-9 6.4-11.1 18.9-4.7 27.9l121.6 171c.1.1.2.2.2.3.1.2.2.3.4.5.3.4.7.8 1 1.2l.3.3 1.1 1.1.1.1c.5.4.9.8 1.4 1.1l.1.1.1.1c.4.2.7.5 1.1.7l.1.1 1.2.6c.2.1.4.2.5.2.2.1.5.2.7.3l.6.3c.2.1.4.1.6.2.4.1.8.3 1.2.4.2.1.4.1.6.2.2.1.5.1.7.2.2 0 .4.1.6.1.2 0 .5.1.7.1.2 0 .5.1.7.1.2 0 .4 0 .6.1h1.3c.5 0 .9 0 1.4-.1h.4c.3 0 .7-.1 1-.1.2 0 .3 0 .5-.1.4-.1.8-.1 1.2-.2h.2c.5-.1.9-.2 1.4-.4h.1c.1 0 .1 0 .2-.1.4-.1.8-.3 1.2-.4.1 0 .2-.1.3-.1.9-.4 1.8-.8 2.7-1.4.1 0 .1-.1.2-.1.4-.2.7-.5 1.1-.7.1 0 .1-.1.2-.1.8-.6 1.6-1.2 2.3-1.9l.2-.2c.3-.3.5-.6.8-.9l.3-.3c.2-.3.4-.5.6-.8.1-.1.2-.2.3-.4 0-.1.1-.1.1-.2l125.8-178.8c6.4-9 4.2-21.5-4.8-27.9-9-6.4-21.5-4.2-27.9 4.9l-89.4 127.1V78.8c161.7 71.5 274.9 233.4 274.9 421.2 0 253.6-206.4 460-460 460z"></path></symbol><symbol viewBox="0 0 1000 1000" id="Iconz66-up"><path d="M985.3 510.3 556.3 24A74.6 74.6 0 0 0 500 0a74.6 74.6 0 0 0-56.3 24l-429 486.8A54.5 54.5 0 0 0 5 570.9c10.8 23.5 36.7 38.8 65.9 38.8l221.1-.2v210c0 34 31.8 61.5 70.9 61.5h274c39 0 70.8-27.5 70.8-61.4V609.3l221.2-.1c29.3 0 55.1-15.3 66-38.8a54.5 54.5 0 0 0-9.7-60.1Zm-23.5 45.2c-3.7 8.1-14.5 17.6-32.8 17.6l-239.4.1a18.1 18.1 0 0 0-18.1 18.3v228.1c0 13.8-15.8 25.4-34.5 25.4H363c-18.7 0-34.5-11.6-34.5-25.4V591.5c0-10-8.1-18-18.2-18l-239.3.1c-18.2 0-29-9.5-32.8-17.6-2.4-5.1-3.6-13 3.9-21.5L471 47.8A38.7 38.7 0 0 1 500 36c11.6 0 22.5 4.4 29 11.8L958 534c7.4 8.5 6.2 16.3 3.8 21.5ZM688.3 964H311.6c-10 0-18.2 8-18.2 18s8.2 18 18.2 18h376.6c10 0 18.1-8 18.1-18s-8.1-18-18.2-18Z"></path></symbol><symbol id="Iconz66-virgo"><path d="M979.916 856.963c-47.3 0-84.7-16.3-113.6-41.8 1.8-2.8 3.7-5.5 5.4-8.3 51.1-79.4 79.3-161.3 83.8-243.5 6-108.5-11.8-170.4-53-184-14.8-4.9-39.7-5.3-73.7 20.6-6.8 5.2-13.8 11.3-20.7 18.1 10.3-82.6 11.5-151 4.1-214.2-4.5-38.3-14.6-94.2-49.7-136.9-27.9-34-67.3-52.3-108.1-50.2-41.4 2.1-79.3 24.5-103.9 61.6-20.6 31-37.6 70.1-50.7 116.8-.3-1.5-.5-3-.8-4.4-10.3-52.2-27-93.6-49.5-123.2-28-36.8-65.2-56.4-110.7-58.4-32.7-1.5-62.1 10.5-87.3 35.5-38.6 38.3-67.1 107.3-84.9 205.5-1.3-5.8-2.8-11.7-4.3-17.4-22.5-84.5-65-149.9-130.2-200-8.8-6.7-21.3-5.1-28 3.7-6.7 8.8-5.1 21.3 3.7 28 129.6 99.7 134.1 244.9 138.8 398.6.3 11.1.7 22.5 1.1 33.7.4 11 9.7 19.7 20.7 19.3 11-.4 19.7-9.7 19.3-20.7-1.2-33 .1-118.8 13.2-206.8 15.6-105.3 42.9-179.8 78.8-215.4 17.2-17 36-24.9 57.4-23.9 63.3 2.8 103.4 51.7 122.7 149.5 9.6 48.8 12.6 103.8 12.9 155.3-5.1 59.8-4.6 111.2-3.5 141.1v.3c-.4 11.7-.5 22-.4 30.7.1 11 9.1 19.7 20 19.7h.3c11-.1 19.9-9.2 19.7-20.3-.2-14.7.6-35.5 1.5-59.5 1.2-31.5 2.6-70 2.4-110.9 8.4-95.7 29.8-192.3 71.1-254.4 17.6-26.4 44.1-42.4 72.7-43.8 28.4-1.4 55.1 11.2 75.2 35.7 21.6 26.3 34.6 63.2 40.9 116.2 7.5 63.5 5.6 133.1-5.9 219.1-2.1 15.9-4.6 31.7-6.9 46.9-8.9 57.4-17.2 111.6-11.3 172.1 6.5 66 29.9 126.8 66 171 .2.2.4.4.5.7-39.8 54.2-86 100.4-128.3 137.2-8.3 7.2-9.2 19.9-2 28.2 4 4.6 9.5 6.9 15.1 6.9 4.6 0 9.3-1.6 13.1-4.9 51.2-44.5 95-90.8 130.6-138.3 38 32.4 84.5 49.3 136.5 49.4 11 0 20-8.9 20-20-.1-11.2-9-20.2-20.1-20.2zm-191.7-214c-5-51.2 1.4-99.2 9-149.3 39.4-56.4 77-81.5 92.8-76.2 12.2 4 31.4 38.9 25.6 143.8-4.6 82.6-35.4 157.7-77.2 223.1-29.6-40.9-45.4-93.1-50.2-141.4z"></path></symbol></svg>