<svg xmlns="http://www.w3.org/2000/svg" xmlns:xlink="http://www.w3.org/1999/xlink" width="0" height="0" style="display:none;"><symbol id="Iconz30-aquarius"><path d="M860 447.47c-6.6 0-12.9-3.3-16.6-8.8L740 285.37l-103.4 153.2c-3.7 5.5-9.9 8.8-16.6 8.8-6.7 0-12.9-3.3-16.6-8.8L500 285.37l-103.4 153.2c-3.7 5.5-9.9 8.8-16.6 8.8-6.7 0-12.9-3.3-16.6-8.8L260 285.37l-103.4 153.2c-3.7 5.5-9.9 8.8-16.6 8.8-6.6 0-12.9-3.3-16.6-8.8l-120-177.8c-6.2-9.2-3.8-21.6 5.4-27.8 9.2-6.2 21.6-3.8 27.8 5.4L140 391.67l103.4-153.2c3.7-5.5 9.9-8.8 16.6-8.8 6.7 0 12.9 3.3 16.6 8.8L380 391.67l103.4-153.2c3.7-5.5 9.9-8.8 16.6-8.8 6.6 0 12.9 3.3 16.6 8.8L620 391.67l103.4-153.2c3.7-5.5 9.9-8.8 16.6-8.8 6.7 0 12.9 3.3 16.6 8.8L860 391.67l103.4-153.2c6.2-9.2 18.6-11.6 27.8-5.4 9.2 6.2 11.6 18.6 5.4 27.8l-120 177.8c-3.7 5.5-10 8.8-16.6 8.8zm0 323c-6.6 0-12.9-3.3-16.6-8.8L740 608.47l-103.4 153.2c-3.7 5.5-9.9 8.8-16.6 8.8-6.7 0-12.9-3.3-16.6-8.8L500 608.47l-103.4 153.2c-3.7 5.5-9.9 8.8-16.6 8.8-6.7 0-12.9-3.3-16.6-8.8L260 608.47l-103.4 153.2c-3.7 5.5-9.9 8.8-16.6 8.8-6.6 0-12.9-3.3-16.6-8.8l-120-177.8c-6.2-9.2-3.8-21.6 5.4-27.8 9.2-6.2 21.6-3.8 27.8 5.4L140 714.77l103.4-153.2c3.7-5.5 9.9-8.8 16.6-8.8 6.7 0 12.9 3.3 16.6 8.8L380 714.77l103.4-153.2c3.7-5.5 9.9-8.8 16.6-8.8 6.6 0 12.9 3.3 16.6 8.8L620 714.77l103.4-153.2c3.7-5.5 9.9-8.8 16.6-8.8 6.7 0 12.9 3.3 16.6 8.8L860 714.77l103.4-153.2c6.2-9.2 18.6-11.6 27.8-5.4 9.2 6.2 11.6 18.6 5.4 27.8l-120 177.8c-3.7 5.4-10 8.7-16.6 8.7z"></path></symbol><symbol id="Iconz30-aries"><path d="M969.2 91.118c-26.3-38.2-71.1-67.8-122.9-81.1-53.9-13.9-106.7-7.3-144.8 18.1-49.1 32.7-84 81.2-106.6 148.4-19.2 57-26.9 118.3-34.4 177.6-2.3 18.3-4.5 35.6-7 52.5-12.8 86.7-21.8 175.2-30.6 260.8-6.9 67.3-14 136.1-22.9 204.5-8.9-68.4-16-137.2-22.9-204.5-8.8-85.6-17.9-174.1-30.6-260.8-2.5-16.9-4.7-34.2-7-52.5-7.5-59.2-15.2-120.5-34.4-177.5-22.6-67.1-57.5-115.7-106.6-148.4-38.1-25.4-90.9-32-144.8-18.1-51.8 13.3-96.6 42.9-122.9 81.1-30.1 43.7-38.7 104.1-23.6 165.6 20 81.6 78 153.1 159 196 9.8 5.2 21.9 1.4 27-8.3 5.2-9.8 1.4-21.9-8.3-27-71-37.6-121.6-99.6-138.9-170.2-12.4-50.5-5.9-99.1 17.7-133.4 20.6-29.9 57.9-54.3 99.9-65.1 42.9-11.1 84-6.4 112.7 12.6 94 62.4 109.8 187.3 123.6 297.6 2.3 18.5 4.5 36 7.1 53.3 12.6 85.9 21.7 173.9 30.4 259.1 10.4 101.5 21.2 206.5 38.2 309 1.6 9.8 10.1 16.7 19.7 16.7 1.1 0 2.2-.1 3.3-.3l1.5-.3 1.5.3c1.1.2 2.2.3 3.3.3 9.6 0 18.1-6.9 19.7-16.7 17-102.5 27.7-207.5 38.2-309 8.7-85.2 17.8-173.2 30.4-259.1 2.5-17.3 4.7-34.8 7.1-53.3 13.9-110.2 29.6-235.2 123.4-297.6 28.7-19.1 69.7-23.7 112.7-12.6 42 10.8 79.3 35.1 99.9 65.1 23.6 34.3 30.1 83 17.7 133.4-17.3 70.6-67.9 132.6-138.9 170.2-9.8 5.2-13.5 17.3-8.3 27 5.2 9.8 17.3 13.5 27 8.3 81-42.9 139-114.3 159-196 15.1-61.6 6.5-122-23.6-165.7z"></path></symbol><symbol id="Iconz30-ban"><path d="M960.799 305.45c-25.2-59.5-61.2-113-107.1-158.9-45.9-45.9-99.4-82-158.9-107.1-61.7-26.2-127.2-39.4-194.7-39.4-67.5 0-133 13.2-194.6 39.3-59.5 25.2-113 61.2-158.9 107.1-45.9 45.9-82 99.4-107.1 158.9-26.2 61.7-39.4 127.2-39.4 194.7 0 67.5 13.2 133 39.3 194.6 25.2 59.5 61.2 113 107.1 158.9 45.9 45.9 99.4 82 158.9 107.1 61.7 26.1 127.1 39.3 194.6 39.3s133-13.2 194.6-39.3c59.5-25.2 113-61.2 158.9-107.1 45.9-45.9 82-99.4 107.1-158.9 26.1-61.7 39.3-127.1 39.3-194.6.2-67.5-13-133-39.1-194.6zm-460.7 654.6c-253.6 0-460-206.4-460-460 0-119.6 45.9-228.8 121.1-310.7l649.6 649.6c-81.9 75.2-191.1 121.1-310.7 121.1zm338.9-149.3-649.6-649.7c81.9-75.1 191.1-121 310.7-121 253.6 0 460 206.4 460 460 0 119.6-45.9 228.7-121.1 310.7z"></path></symbol><symbol id="Iconz30-bookmark-fill"><path d="M289.5-.008c-22.9 0-44 5.7-63.2 17.2-19.2 11.5-34.6 27-46 46.5-11.5 19.6-17.2 40.5-17.2 62.7v830.7c0 11.5 3.5 21.1 10.6 28.8 7.1 7.8 15.9 12.3 26.3 13.7 10.5 1.3 20.4-1.3 29.8-8.1l270.2-193.2 270.2 193.3c9.4 6.7 19.4 9.4 29.8 8.1 10.5-1.3 19.2-5.9 26.3-13.7 7.1-7.8 10.6-17.4 10.6-28.8v-830.7c0-22.3-5.7-43.2-17.2-62.7-11.5-19.6-26.8-35.1-46-46.5-19.2-11.5-40.3-17.2-63.2-17.2h-421z"></path></symbol><symbol id="Iconz30-bookmark"><path fill="#1d1d1b" d="M206.25 1000c-6.5 0-13-1.6-18.9-4.8-13-7-21.1-20.5-21.1-35.3V100.2c0-55.3 45-100.2 100.2-100.2h467.1c55.3 0 100.2 45 100.2 100.2v858.9c0 15-8.2 28.6-21.5 35.5-13.2 6.9-29.1 6-41.4-2.5l-231.6-160c-20.4-14.1-46.8-14.3-67.5-.6l-243.3 161.8c-6.7 4.4-14.5 6.7-22.2 6.7zm0-40.1 243.3-161.7c16.8-11.1 36.3-16.9 56.4-16.8 20.1.2 39.5 6.3 56.1 17.7L793.65 959V100.1c0-33.2-27-60.1-60.1-60.1h-467.2c-33.2 0-60.1 27-60.1 60.1z"></path></symbol><symbol id="Iconz30-calendar"><path d="M318.6 352.85H218.1c-16.6 0-30.1 13.5-30.1 30.1v70.6c0 16.6 13.5 30.1 30.1 30.1h100.5c16.6 0 30.1-13.5 30.1-30.1v-70.6c0-16.6-13.5-30.1-30.1-30.1zm-9.9 90.8H228v-50.8h80.7zm241.3-90.8H449.5c-16.6 0-30.1 13.5-30.1 30.1v70.6c0 16.6 13.5 30.1 30.1 30.1H550c16.6 0 30.1-13.5 30.1-30.1v-70.6c0-16.6-13.5-30.1-30.1-30.1zm-9.9 90.8h-80.7v-50.8h80.7zm241.8-90.8H681.4c-16.6 0-30.1 13.5-30.1 30.1v70.6c0 16.6 13.5 30.1 30.1 30.1h100.5c16.6 0 30.1-13.5 30.1-30.1v-70.6c0-16.6-13.5-30.1-30.1-30.1zm-9.9 90.8h-80.7v-50.8H772Zm-453.4 80.7H218.1c-16.6 0-30.1 13.5-30.1 30.1v70.6c0 16.6 13.5 30.1 30.1 30.1h100.5c16.6 0 30.1-13.5 30.1-30.1v-70.6c0-16.6-13.5-30.1-30.1-30.1zm-9.9 90.7H228v-50.8h80.7zm241.3-90.7H449.5c-16.6 0-30.1 13.5-30.1 30.1v70.6c0 16.6 13.5 30.1 30.1 30.1H550c16.6 0 30.1-13.5 30.1-30.1v-70.6c0-16.6-13.5-30.1-30.1-30.1zm-9.9 90.7h-80.7v-50.8h80.7zm241.8-90.7H681.4c-16.6 0-30.1 13.5-30.1 30.1v70.6c0 16.6 13.5 30.1 30.1 30.1h100.5c16.6 0 30.1-13.5 30.1-30.1v-70.6c0-16.6-13.5-30.1-30.1-30.1zm-9.9 90.7h-80.7v-50.8H772Zm-453.4 81.2H218.1c-16.6 0-30.1 13.5-30.1 30.1v70.6c0 16.6 13.5 30.1 30.1 30.1h100.5c16.6 0 30.1-13.5 30.1-30.1v-70.6c0-16.6-13.5-30.1-30.1-30.1zm-9.9 90.7H228v-50.8h80.7zm241.3-90.7H449.5c-16.6 0-30.1 13.5-30.1 30.1v70.6c0 16.6 13.5 30.1 30.1 30.1H550c16.6 0 30.1-13.5 30.1-30.1v-70.6c0-16.6-13.5-30.1-30.1-30.1zm-9.9 90.7h-80.7v-50.8h80.7zm241.8-90.7H681.4c-16.6 0-30.1 13.5-30.1 30.1v70.6c0 16.6 13.5 30.1 30.1 30.1h100.5c16.6 0 30.1-13.5 30.1-30.1v-70.6c0-16.6-13.5-30.1-30.1-30.1zm-9.9 90.7h-80.7v-50.8H772Zm157.6-695.2H802.4v-68.7c0-11-9-20-20-20s-20 9-20 20v68.7H520v-68.7c0-11-9-20-20-20s-20 9-20 20v68.7H228.2v-68.7c0-11-9-20-20-20s-20 9-20 20v68.7H70.4c-38.8 0-70.4 31.6-70.4 70.4v764.4c0 38.8 31.6 70.4 70.4 70.4h859.2c38.8 0 70.4-31.6 70.4-70.4v-764.4c0-38.8-31.6-70.4-70.4-70.4zm30.4 834.8c0 16.8-13.6 30.4-30.4 30.4H70.4c-16.8 0-30.4-13.6-30.4-30.4v-764.4c0-16.8 13.6-30.4 30.4-30.4h117.8v117.6c0 11 9 20 20 20s20-9 20-20v-117.6H480v117.6c0 11 9 20 20 20s20-9 20-20v-117.6h242.4v117.6c0 11 9 20 20 20s20-9 20-20v-117.6h127.2c16.8 0 30.4 13.6 30.4 30.4z"></path></symbol><symbol id="Iconz30-cancer"><path d="M967.212 136.941c-50.7-34.4-107.9-63.2-170.2-85.4-60.7-21.7-124.9-36.8-190.7-44.8-66-8.1-131.9-8.8-196.1-2.3-66.1 6.7-128.8 21.1-186.5 42.7-1.9.7-3.6 1.7-5.1 2.8-22.6 7.6-44 18.8-63.7 33.4-49.5 36.6-81.7 90.4-90.8 151.2-9.1 60.8 6.1 121.7 42.8 171.1 36.6 49.5 90.4 81.7 151.2 90.8 11.5 1.7 23 2.6 34.4 2.6 49 0 96.6-15.6 136.7-45.3 49.5-36.6 81.7-90.4 90.8-151.2 9.1-60.9-6.1-121.7-42.8-171.1-28.1-38-66.3-65.8-110.1-80.8 196.1-32.1 418.2 11.3 577.5 119.5 3.4 2.3 7.4 3.5 11.2 3.5 6.4 0 12.7-3.1 16.6-8.8 6.3-9.3 3.9-21.7-5.2-27.9zm-486.7 159.5c-15.4 103.9-112.5 175.8-216.4 160.4-50.3-7.5-94.7-34.1-125-75-30.3-40.9-42.8-91.1-35.3-141.4 11.7-78.7 70.2-139 143.1-156.9 2.5-.5 5.1-1.1 7.7-1.7 12.2-2.5 24.7-3.8 37.4-3.8 9.3 0 18.7.7 28.2 2.1 103.9 15.4 175.8 112.5 160.3 216.3zm261.3 207.1c-60.9-9.1-121.7 6.1-171.1 42.8-49.4 36.7-81.7 90.4-90.8 151.2-9.1 60.9 6.1 121.7 42.8 171.1 28.1 38 66.3 65.8 110.1 80.8-196.1 32.1-418.2-11.3-577.5-119.5-9.1-6.2-21.6-3.8-27.8 5.3-6.2 9.1-3.8 21.6 5.3 27.8 50.7 34.4 107.9 63.1 170.2 85.4 60.7 21.7 124.9 36.8 190.7 44.8 36.5 4.5 72.9 6.7 109.1 6.7 29.3 0 58.3-1.5 87-4.4 66.1-6.7 128.8-21.1 186.5-42.7 1.9-.7 3.6-1.7 5.1-2.8 22.6-7.6 44.1-18.8 63.7-33.4 49.5-36.6 81.7-90.4 90.8-151.2 9.1-60.9-6.1-121.7-42.8-171.1-36.7-49.5-90.4-81.8-151.3-90.8zm154.5 256c-7.5 50.3-34.1 94.7-75 125-20.1 14.9-42.4 25.4-65.8 31.5-4.1.8-8 1.7-11.5 2.5-.1 0-.2.1-.4.1-11.6 2.2-23.4 3.3-35.3 3.3-9.4 0-19-.7-28.5-2.1-50.3-7.5-94.7-34.1-125-75-30.3-40.9-42.8-91.1-35.3-141.4 7.5-50.3 34.1-94.7 75-125 33.2-24.6 72.5-37.5 113-37.5 9.4 0 19 .7 28.5 2.1 103.8 15.5 175.7 112.6 160.3 216.5z"></path></symbol><symbol id="Iconz30-capricorn"><path d="M789.543 436.894c-78.7-27.6-161.5 6-213.3 68-.5-86.5-.5-173.9-6.8-260.2-5.3-73-16.4-156.6-71.3-210.4-57.9-56.8-134.2-40.5-170.1 30.2-32.2 63.5-42.1 144.4-54.3 213.8-21.3-92.9-65.1-187.4-139-250.4-12.3-10.4-37.7-17.6-39.7 7.5-1.5 19.3 29.8 38.3 41.4 51.3 29.8 33.6 53.4 72.2 70.7 113.6 31.4 74.9 42.6 156.4 47.3 236.9.9 14.8-3.8 46.4 6.3 58.3 10.5 12.4 29.6 8.5 35-6.6 5.8-15.9.5-42 1.1-59.1.8-20.4 2.4-40.7 4.5-61 9-85.4 23.2-177.7 51.4-259.2 10.9-31.7 32.4-76.1 73-71.5 39.4 4.5 67.9 48.4 80.2 82.1 32.7 89.7 25.1 189.9 28.4 283.6 1.7 48.2 0 96.6 3.1 144.7 1.6 24.4-13.3 46.9-21 70.2-7.3 22-13.3 44.5-18.7 67.1-18.7 77.9-26.5 183.9-83.6 245.5-12.8 13.8-28.5 23.4-47 27-21.5 4.3-39.1-5.5-59.6-4.6-16.6.7-29.3 16.2-18 32 10 14.1 44.7 14.3 60.1 14.3 78.1 0 120.2-65.7 143.3-131.8 26.6-76.4 35.7-157.4 60.8-234.2 29.8 83.1 109 142.2 198.8 135.4 83.2-6.3 143.9-70.9 151.7-152.9 7.4-79.3-39.4-153.2-114.7-179.6zm70.6 199.1c-17 66.6-80.7 103.7-147.6 91.6-76.8-13.8-122.5-81.8-132.5-155.2 0-.2-.1-.4-.1-.7 0-.2-.1-.5-.1-.7.1-.2.3-.5.4-.7.1-.2.3-.5.4-.7 36.2-66.1 107.4-119.2 185.9-98 72.4 19.6 111.8 92.8 93.6 164.4z"></path></symbol><symbol id="Iconz30-chevron-down"><path d="M0 263.1c0-7 2.5-13.2 7.4-18.4 4.9-5.3 11.1-7.9 18.4-7.9 7.3 0 13.9 2.5 19.5 7.4L500 700l454.7-455.8c5.6-4.9 12.1-7.4 19.5-7.4s13.5 2.5 18.4 7.4c4.9 4.9 7.4 11.1 7.4 18.4 0 7.3-2.5 13.9-7.4 19.5L518.9 755.8c-4.9 4.9-11.1 7.4-18.4 7.4-7.3 0-13.9-2.5-19.5-7.4L7.4 282.1c-4.9-5.6-7.4-11.9-7.4-19Z"></path></symbol><symbol id="Iconz30-claim"><path fill="#1d1d1b" d="M936.05 314.7c-28.6-36.8-65.3-62.5-109.3-76.6V64.6c0-13.3-5-32.4-29.1-48.2C781.05 5.5 761.25 0 738.75 0s-42.3 5.5-58.9 16.4c-24 15.8-29.1 34.9-29.1 48.2v45.2l-319 109.7h-57.5c-23.4 0-29.1-.6-41.1 0-17 .9-34 1.8-54.8 7.7-34.7 9.9-58.2 27.4-68.4 35.3-3.3 2.5-13.3 10.3-24.9 22.2-17.4 17.9-32 38.5-43.6 61.7-16.8 33.5-25.3 70-25.3 108.4 0 38.4 8.5 74.7 25.3 107.9 16.7 33 39.7 60.9 68.4 83.1 25.8 19.9 54.6 33.5 85.8 40.4l93.3 278.8.2.5c7.5 20.6 27.2 34.5 49.2 34.5h53.4c16.8 0 32.7-8.1 42.5-21.8 9.8-13.6 12.5-31.2 7.2-47.1l-74.7-230 284.2 100.2v32.6c0 13.3 5 32.4 29.1 48.2 16.6 10.9 36.4 16.4 58.9 16.4s42.3-5.5 58.9-16.4c24-15.8 29.1-34.9 29.1-48.2V670.2c44-14.1 80.7-39.8 109.3-76.6 31.6-40.7 47.6-87.6 47.6-139.5-.2-51.8-16.2-98.8-47.8-139.4zm-705.2-55.2h84.2v389.3h-84.2zM77.05 544.6c-13.9-27.5-21-57.7-21-89.8 0-32.1 7.1-62.6 21-90.5 14-28 33.2-51.6 57.2-70.1 14-10.8 37.3-21.6 56.4-28.3v377.7c-20.3-6.3-39.2-16.1-56.4-29.4-23.9-18.6-43.2-42-57.2-69.6zm326.3 399.2c1.8 5.4-.6 9.6-1.7 11.1s-4.3 5.1-10 5.1h-53.4c-5.1 0-9.7-3.2-11.5-7.9l-88.1-263.3h81.9l82.8 254.8zm-48.3-289.2V253.8l295.9-101.7v606.8zm431.7 179.3c0 2 0 7.5-11 14.7-10.1 6.6-22.2 9.9-36.9 9.9s-26.8-3.2-36.9-9.9c-11-7.2-11-12.7-11-14.7v-18.5h.1V96h-.1V64.5c0-2 0-7.5 11-14.7 10.1-6.6 22.2-9.9 36.9-9.9s26.8 3.2 36.9 9.9c11 7.2 11 12.7 11 14.7zm117.7-264.8c-20.9 26.9-46.2 46.2-76.7 58.4V280.8c30.5 12.2 55.8 31.4 76.7 58.4 26.4 34 39.2 71.6 39.2 115 0 43.3-12.8 80.9-39.2 114.9z"></path></symbol><symbol id="Iconz30-crown"><path d="M768.287 792h-541.5c-15.8 0-30-9.3-35.9-23.6L2.987 317.8c-6.7-16-1.8-33.8 12.1-44.4 14.6-11 33.9-10.8 48.2.5l255.2 202.1 143.7-361.5c5.8-14.6 19.9-24.1 35.8-24.2h.4c15.8 0 29.9 9.2 35.9 23.6.1.3.2.5.3.8l133.3 362.8 268.7-203.5c14.1-11.2 33.8-11.4 48.2-.6 14.1 10.6 19 28.6 12.1 44.7l-192.8 450.6c-6.1 14.2-20.1 23.3-35.8 23.3zm-540.9-40h540.3l189.9-443.7-265.7 201.2c-9.5 7.6-22.3 10.3-34.2 7.3-12-3-21.6-11.2-26.3-22.4-.1-.3-.2-.5-.3-.8l-132.8-361.7-143.2 360.3c-4.5 11.3-14 19.7-25.9 22.9-12 3.2-25 .6-34.7-7.1l-252.2-199.7Zm554.5 157.7h-570c-11 0-20-9-20-20s9-20 20-20h570c11 0 20 9 20 20s-8.9 20-20 20z"></path></symbol><symbol id="Iconz30-events"><path d="M195.7 75.8H67c-18.1 0-33.9 6.4-47 19.1-13.1 12.7-20 28.9-20 47v129.6c0 18.1 6.9 34.4 20 47 13.1 12.6 28.9 19.1 47 19.1h128.6c18.1 0 33.9-6.4 47-19.1 13.1-12.7 20-28.9 20-47V141.9c0-18.1-6.9-34.4-20-47-13-12.7-28.8-19.1-46.9-19.1zm27 195.7c0 7.4-2.4 13-7.8 18.3-5.5 5.3-11.6 7.8-19.2 7.8H67c-7.6 0-13.7-2.5-19.2-7.8-5.4-5.2-7.8-10.8-7.8-18.3V141.9c0-7.4 2.4-13 7.8-18.3 5.5-5.3 11.6-7.8 19.2-7.8h128.6c7.6 0 13.7 2.5 19.2 7.8 5.4 5.2 7.8 10.8 7.8 18.3v129.6ZM980 94.9c-13.1-12.6-28.9-19.1-47-19.1H351.2c-18.1 0-33.9 6.4-47 19.1-13.1 12.7-20 28.9-20 47v129.6c0 18.1 6.9 34.4 20 47 13.1 12.6 28.9 19.1 47 19.1H933c18.1 0 33.9-6.4 47-19.1 13.1-12.7 20-28.9 20-47V141.9c0-18.1-6.9-34.4-20-47zm-20 176.6c0 7.4-2.4 13-7.8 18.3-5.5 5.3-11.6 7.8-19.2 7.8H351.2c-7.6 0-13.7-2.5-19.2-7.8-5.4-5.2-7.8-10.8-7.8-18.3V141.9c0-7.4 2.4-13 7.8-18.3 5.5-5.3 11.6-7.8 19.2-7.8H933c7.6 0 13.7 2.5 19.2 7.8 5.4 5.2 7.8 10.8 7.8 18.3zm-27 97.1H351.2c-18 0-34.3 6.8-47.3 19.8-12.9 12.9-19.8 29.3-19.8 47.3v128.6c0 18 6.8 34.3 19.8 47.3 12.9 12.9 29.3 19.8 47.3 19.8H933c18 0 34.3-6.8 47.3-19.8 12.9-12.9 19.8-29.3 19.8-47.3V435.7c0-18-6.8-34.3-19.8-47.3-13-12.9-29.4-19.8-47.3-19.8zm27 195.7c0 7.4-2.6 13.5-8.1 19s-11.5 8.1-19 8.1H351.2c-7.4 0-13.5-2.6-19-8.1s-8.1-11.5-8.1-19V435.7c0-7.4 2.6-13.5 8.1-19s11.5-8.1 19-8.1H933c7.4 0 13.5 2.6 19 8.1s8.1 11.5 8.1 19v128.6zm-27 98.1H351.2c-18.1 0-33.9 6.4-47 19.1-13.1 12.7-20 28.9-20 47v129.6c0 18.1 6.9 34.4 20 47 13.1 12.6 28.9 19.1 47 19.1H933c18.1 0 33.9-6.4 47-19.1 13.1-12.7 20-28.9 20-47V728.5c0-18.1-6.9-34.4-20-47-13.1-12.7-28.9-19.1-47-19.1zm27 195.7c0 7.4-2.4 13-7.8 18.3-5.5 5.3-11.6 7.8-19.2 7.8H351.2c-7.6 0-13.7-2.5-19.2-7.8-5.4-5.2-7.8-10.8-7.8-18.3V728.5c0-7.4 2.4-13 7.8-18.3 5.5-5.3 11.6-7.8 19.2-7.8H933c7.6 0 13.7 2.5 19.2 7.8 5.4 5.2 7.8 10.8 7.8 18.3zM195.7 368.6H67c-18 0-34.3 6.8-47.3 19.8C6.8 401.3-.1 417.7-.1 435.7v128.6c0 18 6.8 34.3 19.8 47.3C32.6 624.5 49 631.4 67 631.4h128.6c18 0 34.3-6.8 47.3-19.8 12.9-12.9 19.8-29.3 19.8-47.3V435.7c0-18-6.8-34.3-19.8-47.3-12.9-12.9-29.2-19.8-47.2-19.8zm27 195.7c0 7.4-2.6 13.5-8.1 19s-11.5 8.1-19 8.1H67c-7.4 0-13.5-2.6-19-8.1s-8.1-11.5-8.1-19V435.7c0-7.4 2.6-13.5 8.1-19s11.5-8.1 19-8.1h128.6c7.4 0 13.5 2.6 19 8.1s8.1 11.5 8.1 19zm-27 98.1H67c-18.1 0-33.9 6.4-47 19.1-13.1 12.7-20 28.9-20 47v129.6c0 18.1 6.9 34.4 20 47 13.1 12.6 28.9 19.1 47 19.1h128.6c18.1 0 33.9-6.4 47-19.1 13.1-12.7 20-28.9 20-47V728.5c0-18.1-6.9-34.4-20-47-13-12.7-28.8-19.1-46.9-19.1zm27 195.7c0 7.4-2.4 13-7.8 18.3-5.5 5.3-11.6 7.8-19.2 7.8H67c-7.6 0-13.7-2.5-19.2-7.8-5.4-5.2-7.8-10.8-7.8-18.3V728.5c0-7.4 2.4-13 7.8-18.3 5.5-5.3 11.6-7.8 19.2-7.8h128.6c7.6 0 13.7 2.5 19.2 7.8 5.4 5.2 7.8 10.8 7.8 18.3v129.6z"></path></symbol><symbol id="Iconz30-filter"><path fill="#1d1d1b" d="M387.407 1000c-9.6 0-19.2-2.8-27.5-8.3-14-9.3-22.4-24.8-22.4-41.6V544.6l-308-467.3c-10.1-15.3-11-34.9-2.3-51.1C35.907 10 52.707 0 71.107 0h857.8c18.6 0 35.5 10.2 44.1 26.7 8.6 16.4 7.5 36.2-3.1 51.5l-321.3 466.6v315.1c0 20-11.9 38-30.3 45.9l-211.4 90.2c-6.2 2.7-12.8 4-19.5 4zM71.207 39.9c-5.4 0-7.9 3.7-8.8 5.2-.8 1.6-2.5 5.7.5 10.2l314.6 477.3v417.5c0 4.7 2.8 7.2 4.5 8.3 1.7 1.1 5.1 2.7 9.4.9l211.4-90.2c3.7-1.6 6.1-5.2 6.1-9.2V532.4l328.3-476.9c3.1-4.5 1.5-8.7.6-10.3-.8-1.6-3.4-5.3-8.8-5.3z"></path></symbol><symbol id="Iconz30-gemini"><path d="M990.9 944.45c-56.6-36.8-118.1-67.4-182.8-91.1-36.7-13.4-73.8-24.3-111.4-32.9v-640.9c37.6-8.5 74.8-19.5 111.4-32.9 64.7-23.6 126.2-54.3 182.8-91.1 9.3-6 11.9-18.4 5.9-27.7s-18.4-11.9-27.7-5.9c-82.8 53.8-255.9 143.5-484.8 139.3-203.4-3.7-358.8-77.8-453.4-139.3-9.3-6-21.6-3.4-27.7 5.9-6 9.3-3.4 21.6 5.9 27.7 54.1 35.2 112.6 64.8 173.9 87.9 39.4 14.9 79.6 26.9 120.2 36.1v640.7c-40.6 9.3-80.7 21.4-120.2 36.3-61.3 23.1-119.8 52.7-173.9 87.9-9.3 6-11.9 18.4-5.9 27.7s18.4 11.9 27.7 5.9c94.6-61.5 250-135.6 453.4-139.3 67.8-1.2 130.7 5.8 187.9 17.6.3.1.7.2 1 .2 135.2 28.3 237.8 83.7 295.9 121.5 3.4 2.2 7.1 3.2 10.9 3.2 6.5 0 13-3.2 16.8-9.1 6-9.3 3.4-21.7-5.9-27.7zm-507.4-145.8c-47.2.9-94 5.5-140.3 13.7v-624.6c46.3 8.3 93.1 12.8 140.3 13.7 5.5.1 10.9.1 16.4.1 52.7 0 105.1-4.7 156.8-13.9v624.7a887.91 887.91 0 0 0-173.2-13.7z"></path></symbol><symbol id="Iconz30-guests"><path fill="#000" d="M3 5.5A2.5 2.5 0 0 0 .5 8v13c0 1.4 1.1 2.5 2.5 2.5h20c1.4 0 2.5-1.1 2.5-2.5V8c0-1.4-1.1-2.5-2.5-2.5Zm0 1h20c.8 0 1.5.7 1.5 1.5v13c0 .8-.7 1.5-1.5 1.5H3c-.8 0-1.5-.7-1.5-1.5V8c0-.8.7-1.5 1.5-1.5Z" color="#000" style="-inkscape-stroke:none"></path><path fill="#000" d="M3 5.5A2.5 2.5 0 0 0 .5 8v.6c0 3.3 2.6 5.9 5.9 5.9h13.2c3.3 0 5.9-2.6 5.9-5.9V8c0-1.4-1.1-2.5-2.5-2.5h-9.1zm0 1h20c.8 0 1.5.7 1.5 1.5v.6a5 5 0 0 1-4.9 4.9H6.4a4.9 4.9 0 0 1-4.9-4.9V8c0-.8.7-1.5 1.5-1.5Z" color="#000" style="-inkscape-stroke:none"></path><path fill="#000" d="M6.5 14v2h1v-2zm12 0v2h1v-2ZM13 .5a7.5 7.5 0 0 0-7.2 5.4l1 .2a6.5 6.5 0 0 1 12.4 0l1-.2A7.5 7.5 0 0 0 13 .5Z" color="#000" style="-inkscape-stroke:none"></path></symbol><symbol id="Iconz30-heart"><path d="M745.99 247.156c-7.4-8.2-20-8.9-28.2-1.5s-8.9 20-1.5 28.2l131.4 146.5-130.8 132.1c-7.8 7.9-7.7 20.5.1 28.3 3.9 3.9 9 5.8 14.1 5.8 5.2 0 10.3-2 14.2-5.9l144-145.5c7.4-7.5 7.7-19.5.7-27.4zm241.1 143.2-246.2-270.5c-9.1-10-22-15.9-35.5-16.2-13.5-.3-26.7 5-36.2 14.6l-154.6 155.5c-2.5 2.5-5.5 2.9-7 2.8-1.5 0-4.5-.5-6.9-3.2l-138.1-153.2c-9.1-10.2-21.6-16-35.2-16.4-13.6-.4-26.5 4.6-36.2 14.2l-276.4 271.2c-9.6 9.5-15 22.6-14.8 36.1.2 13.5 6 26.5 16 35.6l458.3 422.4c9.5 8.7 21.5 13.1 33.6 13.1 12.4 0 24.7-4.6 34.2-13.7l442.6-423.2c9.4-9 14.8-21.1 15.3-34.1.4-12.9-4.2-25.4-12.9-35zm-30 40.3-442.7 423.1c-3.6 3.5-9.4 3.5-13.1.1l-458.2-422.4c-2.6-2.4-3-5.3-3.1-6.9 0-1.5.3-4.5 2.9-7l276.3-271.1c2.5-2.5 5.5-2.8 7-2.7 1.5 0 4.4.5 6.8 3.1l138 153.3c9.1 10.1 22 16 35.6 16.4 13.5.3 26.8-5 36.3-14.6l154.6-155.5c2.5-2.5 5.5-2.8 7-2.8s4.4.5 6.8 3.1l246.2 270.5c3.5 3.9 3.3 9.8-.4 13.4z"></path></symbol><symbol id="Iconz30-info"><path d="M486.916 308.565a63.403 34.201 86.34 0 1-30.084 65.457 63.403 34.201 86.34 0 1-38.18-61.09 63.403 34.201 86.34 0 1 30.085-65.457 63.403 34.201 86.34 0 1 38.179 61.09zM416.35 691.95c1.6-57.5 13.4-143.2 22.7-197.6 2-18.7-8.7-7.1-10.6-1.7-5.3 5.8-11.6 14.3-14.5 15.7-3.9 1.8-5.8 2.7-15.9-.3-5.3-.9-8.7-2.6-9.6-4.4-3.8-7.1 13.5-8.6 44.9-37.8 19.3-18 33.3-30.1 41.1-33.7 7.7-3.6 13.5-1.9 16.9 4.3 10.6 19.5-3.2 101.6-14.9 165-7.3 37.9-11.3 68.7-12.3 87-.5 16.9 5.7 19.6 11.1 4.8 12.1-29.1 29.6-70.6 45.6-97 22.8-38.5 37.3-60.9 51.8-67.7 18.3-8.6 36.7-8.3 39.1-3.8 4.3 8-29.4 14.9-54.1 49.9-21.8 31.4-40.7 63.6-61.5 105.6-26.2 54.6-18.5 66.5-29.1 71.5-10.6 5-36.6-11.8-44.8-26.9-4-7.1-6.4-16-5.9-32.9zm512.7 308.1H70.85c-39.1 0-70.9-31.8-70.9-70.9V70.85c0-39.1 31.8-70.9 70.9-70.9h858.3c39.1 0 70.9 31.8 70.9 70.9v858.3c-.1 39.1-31.9 70.9-71 70.9zm-858.2-960c-17 0-30.9 13.8-30.9 30.9v858.3c0 17 13.8 30.9 30.9 30.9h858.3c17 0 30.9-13.8 30.9-30.9V70.95c0-17-13.8-30.9-30.9-30.9z" style="stroke-width:1.00004"></path></symbol><symbol id="Iconz30-leo"><path d="M885.456 847.123c-10-4.8-21.9-.6-26.7 9.3-28.5 59.1-86.5 116.7-163.9 100.9-47.7-9.7-88-47.8-100.5-94.8-13.5-51 8.9-86.5 37.3-131.4 1.6-2.5 3.2-5 4.7-7.5 9.4-14.9 19-30.1 28.4-44.8 20.9-32.9 42.6-66.9 63-100.8 37.1-61.7 61.9-114.4 78-165.7 20.6-65.4 26-125.9 16.7-185.1-6.5-41.1-21.4-80.8-43.2-114.9-23.3-36.4-54.1-65.7-89.1-84.8-48.9-26.7-107.4-34.4-160.4-21.3-68 16.8-122.4 64.1-153.1 132.9-17.9 40-26.8 85.3-25.8 131.1.6 29.3 5.3 57.9 13.8 84.5-16.8-4.2-34.1-6.4-51.6-6.4-115.7 0-209.8 94.1-209.8 209.8 0 115.7 94.1 209.8 209.8 209.8 115.7 0 209.8-94.1 209.8-209.8 0-77.1-42.2-146.5-107-183-32.5-65.1-33.7-150.6-2.9-219.6 25.6-57.4 70.5-96.6 126.2-110.4 43.5-10.8 91.5-4.4 131.7 17.6 58.3 31.8 100.1 95.7 112 170.9 19.3 122.9-37.7 237.7-89.5 324-20.1 33.5-41.6 67.3-62.4 100-9.4 14.7-19.1 30-28.5 44.9-1.6 2.5-3.1 5-4.7 7.4-15.3 24.2-29.8 47.2-38.8 72.8-10.4 29.8-11.5 59.3-3.3 90.1 16.2 61.4 69 111.1 131.2 123.8 11.1 2.3 22.2 3.4 33.2 3.4 32.6 0 64.4-9.9 93.3-29.2 33-22 61.9-56.4 81.4-97 4.8-9.9.6-21.9-9.3-26.7zm-402.8-288.9c0 93.6-76.2 169.8-169.8 169.8-93.6 0-169.8-76.2-169.8-169.8 0-93.6 76.2-169.8 169.8-169.8 14.8 0 29.5 1.9 43.7 5.7 12.1 3.2 23.6 7.7 34.3 13.3.3.2.6.3.9.5 54.9 28.7 90.9 86.2 90.9 150.3z"></path></symbol><symbol id="Iconz30-libra"><path d="M980 683.9H607.9c-7.2 0-13.9-3.9-17.4-10.1-3.5-6.3-3.5-14 .3-20.1 2.3-3.8 5.7-6.7 9.7-8.3 89.5-37.8 147.3-125 147.3-222.2 0-132.9-108.2-241.1-241.1-241.1-132.9 0-241.1 108.2-241.1 241.1 0 97.2 57.9 184.4 147.4 222.2 3.5 1.4 6.6 3.9 8.9 7.1 4.3 6.1 4.8 14.1 1.4 20.7S413 684 405.6 684H20c-11 0-20-9-20-20s9-20 20-20h312.6c-22.6-17.8-42.5-39.2-58.8-63.4-31.5-46.5-48.2-101-48.2-157.4 0-75.1 29.2-145.7 82.3-198.8 53.1-53.1 123.7-82.3 198.8-82.3 75.1 0 145.7 29.2 198.8 82.3 53.1 53.1 82.3 123.7 82.3 198.8 0 56.4-16.7 110.8-48.2 157.4-16.4 24.2-36.2 45.5-58.8 63.4H980c11 0 20 9 20 20s-9 19.9-20 19.9zm0 174H20c-11 0-20-9-20-20s9-20 20-20h960c11 0 20 9 20 20s-9 20-20 20z"></path></symbol><symbol id="Iconz30-message"><path d="M641.4 428.5a53.2 53.2 0 0 1-53.2 53.2 53.2 53.2 0 0 1-53.2-53.2 53.2 53.2 0 0 1 53.2-53.2 53.2 53.2 0 0 1 53.2 53.2zm-189.4-.4a53.2 53.2 0 0 1-53.2 53.2 53.2 53.2 0 0 1-53.2-53.2 53.2 53.2 0 0 1 53.2-53.2 53.2 53.2 0 0 1 53.2 53.2zm-196.4 0a53.2 53.2 0 0 1-53.2 53.2 53.2 53.2 0 0 1-53.2-53.2 53.2 53.2 0 0 1 53.2-53.2 53.2 53.2 0 0 1 53.2 53.2zm673.1-175.9H790.2V133.4c0-40.8-33.2-73.9-73.9-73.9H73.9C33.1 59.5 0 92.7 0 133.4v399.2c0 40.8 33.2 73.9 73.9 73.9H106v174l235.9-174h374.3c40.8 0 73.9-33.2 73.9-73.9V292.1h138.5c17.3 0 31.3 14 31.3 31.3v379.5c0 17.3-14 31.3-31.3 31.3h-69.5v127.2L686.7 734.2H318.2c-17.3 0-31.3-14.1-31.3-31.3h-40c0 39.3 32 71.3 71.3 71.3h355.5l225.5 166.3V774.2h29.5c39.3 0 71.3-32 71.3-71.3V323.4c0-39.3-32-71.2-71.3-71.2zM750.2 532.6c0 18.7-15.2 34-34 34H328.8L146 701.4V566.6H73.9c-18.7 0-34-15.2-34-34V133.4c0-18.7 15.2-34 34-34h642.3c18.7 0 34 15.2 34 34z" style="fill:#1d1d1b"></path></symbol><symbol id="Iconz30-photo"><path d="M858.95 940.2h-717.8C63.35 940.2.05 876.9.05 799.1v-477c0-77.8 63.3-141.1 141.1-141.1h143.6l17.2-62.1c9.6-34.8 41.5-59.1 77.6-59.1h240.9c36.1 0 68 24.3 77.6 59.1l17.2 62.1h143.6c77.8 0 141.1 63.3 141.1 141.1v477c.1 77.8-63.2 141.1-141 141.1zm-717.8-719.3c-55.7 0-101.1 45.4-101.1 101.2v477c0 55.8 45.4 101.1 101.1 101.1h717.7c55.8 0 101.1-45.4 101.1-101.1v-477c0-55.8-45.4-101.1-101.1-101.1h-174l-25.3-91.4c-4.8-17.5-20.9-29.8-39.1-29.8h-240.9c-18.2 0-34.2 12.2-39.1 29.7l-25.3 91.4zm30.4 70.6c-14 0-25.8 4.8-35.5 14.5s-14.5 21.5-14.5 35.5 4.8 25.8 14.5 35.5 21.5 14.5 35.5 14.5 25.8-4.8 35.5-14.5 14.5-21.5 14.5-35.5-4.8-25.8-14.5-35.5-21.5-14.5-35.5-14.5zm328.5 463.4c-103.6 0-187.8-84.3-187.8-187.8 0-103.6 84.2-187.9 187.8-187.9 103.6 0 187.8 84.3 187.8 187.8 0 103.6-84.2 187.9-187.8 187.9zm0-335.7c-81.5 0-147.8 66.3-147.8 147.8 0 81.5 66.3 147.9 147.8 147.9 81.5 0 147.8-66.3 147.8-147.8 0-81.5-66.3-147.9-147.8-147.9z"></path></symbol><symbol id="Iconz30-pin"><path d="M700.45 529.337v-304.6c61.2-23.8 94.6-57.6 94.6-96 0-37.8-33.1-71.8-93.3-95.5-54.2-21.4-125.9-33.2-201.8-33.2s-147.6 11.8-201.8 33.2c-60.2 23.7-93.3 57.7-93.3 95.5 0 38.4 33.5 72.2 94.6 96v304.6c-61.2 23.8-94.6 57.6-94.6 96 0 37.8 33.1 71.8 93.3 95.5 47.7 18.8 109 30.2 174.8 32.7l16.7 236.8c.3 5.1 4.4 9.3 9.6 9.6 5.7.4 10.7-3.9 11.1-9.6l16.7-236.8c65.8-2.5 127-13.8 174.8-32.7 60.2-23.7 93.3-57.7 93.3-95.5-.1-38.4-33.5-72.2-94.7-96zm-13.5 153.9c-42.6 16.8-97.5 27.1-157.1 29.7-9.8.4-19.8.7-29.9.7-10.1 0-20.1-.2-29.9-.7-59.6-2.6-114.5-12.9-157.1-29.7-42.4-16.7-67.7-38.4-67.7-57.9 0-21.6 31-45.6 81-62.8 8.2-2.8 13.6-10.5 13.6-19.1v-332.8c0-8.6-5.5-16.3-13.6-19.1-49.9-17.1-81-41.2-81-62.8 0-19.5 25.3-41.2 67.7-57.9 49.6-19.6 116-30.4 187-30.4s137.4 10.8 187 30.4c42.4 16.7 67.7 38.4 67.7 57.9 0 21.6-31 45.6-81 62.8-8.2 2.8-13.6 10.5-13.6 19.1v332.8c0 8.6 5.5 16.3 13.6 19.1 49.9 17.1 81 41.2 81 62.8 0 19.6-25.3 41.2-67.7 57.9z"></path></symbol><symbol id="Iconz30-pisces"><path d="M932 960h-.5c-77.8 0-152.8-43.5-211.2-122.7-59.3-80.2-95.1-187.2-100.8-301.4-.3-5.3-.5-10.6-.6-15.9h273.3c11 0 20-9 20-20s-9-20-20-20H619.1c5.2-137.6 54.3-269.4 133.8-353.6 53-56.1 115-86 179.2-86.4 11-.1 19.9-9.1 19.9-20.1-.1-11-9-19.9-20-19.9h-.1c-75.4.5-147.3 34.7-208 99-47.4 50.2-85.9 116.9-111.3 193-19.9 59.6-31.2 123.6-33.5 188H420.7c-2.3-64.4-13.6-128.4-33.5-188-25.4-76.1-63.9-142.8-111.3-193C215.2 34.8 143.3.5 67.9 0 56.8-.1 47.8 8.8 47.8 19.9 47.8 31 56.6 40 67.7 40c64.2.4 126.2 30.3 179.2 86.4 79.5 84.2 128.7 216 133.8 353.6H107.6c-11 0-20 9-20 20s9 20 20 20h273.3c-.1 5.3-.3 10.6-.6 15.9-5.7 114.2-41.5 221.2-100.8 301.4C221.1 916.5 146.1 960 68.3 960h-.5c-11 0-20 8.9-20 20 0 11 8.9 20 20 20h.6c90.8 0 177.2-49.3 243.4-138.9 63.9-86.5 102.4-201.2 108.6-323.2.3-6 .5-11.9.7-17.9h157.8c.1 6 .4 12 .7 17.9 6.1 122 44.7 236.7 108.6 323.2 66.2 89.6 152.6 138.9 243.4 138.9h.6c11 0 20-9 20-20-.2-11.1-9.2-20-20.2-20z"></path></symbol><symbol viewBox="0 0 360 360" id="Iconz30-profile-up"><path d="M169.2 5.5A47 47 0 0 0 163 9c-4 2.8-117.1 145.1-119.3 150.1a30.3 30.3 0 0 0-1.3 20.4c1.4 4.5 2.9 6.9 6.9 11 8 7.9 10.6 8.5 37.8 8.5h22.7l.4 18.7c.3 18.2.4 19 3.2 25.1 4 8.8 11.5 15.5 20.3 18.2 6.1 1.9 9.2 2 46.3 2 37.1 0 40.2-.1 46.3-2a33.4 33.4 0 0 0 20.3-18.2c2.8-6.1 2.9-6.9 3.2-25.1l.4-18.7h22.7c27.2 0 29.8-.6 37.8-8.5 4-4.1 5.5-6.5 6.9-11a30 30 0 0 0-1.4-20.7c-1.1-2.4-27.8-36.7-59.4-76.3C191.5.6 195.5 4.7 181.1 4.2c-6-.1-9.6.2-11.9 1.3zm63.2 96.8c28.4 35.6 51.6 65 51.6 65.2 0 .3-11.8.5-26.3.5-25.3 0-26.4.1-30.7 2.2-7.7 4-8 5.4-8 34.3 0 18.2-.3 25.4-1.2 26.3-1.7 1.7-73.9 1.7-75.6 0-.9-.9-1.2-8.1-1.2-26.3 0-28.9-.3-30.3-8-34.3-4.3-2.1-5.4-2.2-30.8-2.2-14.5 0-26.2-.4-26-.8a7203 7203 0 0 1 104-129.9c.4.1 23.9 29.4 52.2 65zM118 280.9a15.9 15.9 0 0 0-7.5 15.6c.8 5.6 6.4 11.8 11.5 12.8 4.3.9 111.7.9 116 0 5.1-1 10.7-7.2 11.5-12.8.6-3.7.3-5.4-1.6-9.2-4.5-8.7-1.2-8.3-67.9-8.3-55.2 0-58.7.1-62 1.9zM117.2 328a19 19 0 0 0-7.2 13 19 19 0 0 0 7.2 13c3.2 1.9 4.9 2 62.8 2s59.6-.1 62.8-2a19 19 0 0 0 7.2-13 19 19 0 0 0-7.2-13c-3.2-1.9-4.9-2-62.8-2s-59.6.1-62.8 2z"></path></symbol><symbol viewBox="0 0 297 297" id="Iconz30-profile_model"><path d="M261.8 178c-12.9-13-13.3-25.6-13.3-90.3C248.5 8.5 195 0 172 0c-8.3 0-34.8 5-48.8 26.6a60.2 60.2 0 0 0-33.7 20c-11.8 14.5-16 34.8-12.2 58.9-4.7 5.4-5.6 15.3-1.8 26 3 8.6 8.3 15.3 14 18 1.4.7 2.6 1.1 4 1.3 3.2 6.5 6.7 13 11.7 18.8v19.9h-20c-13.5 0-26.8 10.6-37.7 29.3a103.2 103.2 0 0 0-14.5 47c0 2.8 1.6 5.6 4.3 6.8a252.6 252.6 0 0 0 151.5 20.6 218 218 0 0 0 64.1-21 7.6 7.6 0 0 0 3.9-6.5c0-13.3-5.7-31.9-14.5-47-11-18.7-24.3-29.2-37.7-29.2h-19.4v-21.7h.4c1.8-2.4 3.6-5 5.2-7.5 31.7 29.6 62.6 30.2 65.6 30.2h.2a7.3 7.3 0 0 0 5.2-12.6zM145.2 39.1c15.8 0 28.5 4.9 37 14.4 13.3 14.7 15 37.3 15 48.6-71.4-1-80.9-29.3-81.4-31-.6-3.9-4-6.5-8-6.2-4 .3-7 3.8-7 7.7 0 6.3-4.6 13.7-9.6 19.9-.7-15 2.7-27.4 10-36.4 9-11.1 24-16.8 44-17zm-56.7 77c1.8-1.6 15.3-12.8 22.2-25.4 2 2.1 4.5 4.4 7.5 6.6 17.9 13.3 46.1 20 83.2 20 .1 2 0 5.1-1.5 9.1a19.2 19.2 0 0 1-5.8 9.1 7.6 7.6 0 0 0-9.2 4.2c-7.8 17.5-23 38-39.9 38-17 0-32.1-20.5-40-38.1a7.6 7.6 0 0 0-9.4-4.1c-1.3-1-4-3.8-5.8-9-1.8-5-1.6-8.7-1.3-10.5zm97 162.2a236.3 236.3 0 0 1-137.1-17.3A84 84 0 0 1 54 240c11.2.4 60.2 3.5 85.4 28.7a7.6 7.6 0 0 0 10.7 0c25.2-25.2 74.3-28.4 85.4-28.7 3 7.3 5 14.8 5.8 21.1-8.3 4-28.3 12.5-55.8 17.3zm19-73.9c8.2 0 16.9 9 23.8 20.4-18.1 1.2-57.5 6.6-83.4 28-26-21.4-65.3-26.9-83.4-28.1 6.9-11.4 15.5-20.3 23.7-20.3h27.7c4.2 0 7.3-2.8 7.3-7v-13c7 5.2 15.4 8.5 24.3 8.5 9.4 0 17.7-3.7 25.7-9.6v14.2c0 4.1 4.1 6.9 8.3 6.9h26zm-3.5-55.4a32 32 0 0 0 13.2-17.5c3.8-10.8 2.9-20.7-1.8-26.2.4-12-.7-41.8-18.8-62a61.3 61.3 0 0 0-47-19.3c9.6-6.6 21-9 25.4-9 28 0 61.4 12.6 61.4 72.6 0 47.2 0 69.6 6.6 85a101.3 101.3 0 0 1-39-23.6z"></path></symbol><symbol id="Iconz30-purse"><path d="M112.95 773.038h-42.5c-11.2 0-20.2 9.1-20.2 20.2 0 11.2 9.1 20.2 20.2 20.2h42.5c11.2 0 20.2-9.1 20.2-20.2.1-11.1-9-20.2-20.2-20.2zm563 0h-75.1c-11.2 0-20.2 9-20.2 20.2s9 20.2 20.2 20.2h75.1c11.2 0 20.2-9 20.2-20.2 0-11.1-9.1-20.2-20.2-20.2zm-375.3 0h-75.1c-11.2 0-20.2 9-20.2 20.2s9 20.2 20.2 20.2h75.1c11.2 0 20.2-9 20.2-20.2 0-11.1-9-20.2-20.2-20.2zm187.6 0h-75.1c-11.2 0-20.2 9-20.2 20.2s9.1 20.2 20.2 20.2h75.1c11.2 0 20.2-9 20.2-20.2 0-11.1-9-20.2-20.2-20.2zm280 20.3c0 11.2 9.1 20.2 20.2 20.2h42.5c11.2 0 20.2-9.1 20.2-20.2 0-11.2-9.1-20.2-20.2-20.2h-42.5c-11.1-.1-20.2 9-20.2 20.2zm187.9-330.8h-44.7v-182.1c0-24.2-19.7-43.8-43.8-43.8h-123.3l-44-87.4c-4.5-9-14.9-13.3-24.4-10.1l-85.9 28.5-30.5-58.5c-4.7-8.9-15.2-13.1-24.7-9.7l-386.8 137c-.1 0-.3.1-.4.2H43.85c-24.2 0-43.8 19.7-43.8 43.8v577.5c0 24.2 19.7 43.8 43.8 43.8h823.8c24.2 0 43.8-19.7 43.8-43.8v-164.6h44.7c24.2 0 43.8-19.7 43.8-43.8v-143.2c0-24.2-19.6-43.8-43.8-43.8zm-257-225.9h-188.9l161.9-53.6zm-167.3-93.2 19.3 37-169.5 56.2h-112.9zm339.2 714.4c0 1.9-1.5 3.4-3.4 3.4H43.85c-1.9 0-3.4-1.5-3.4-3.4v-577.4c0-1.9 1.5-3.4 3.4-3.4h823.8c1.9 0 3.4 1.5 3.4 3.4v182.1h-94.3c-63.2 0-114.6 51.4-114.6 114.6v1.5c0 63.2 51.4 114.6 114.6 114.6h94.3zm88.5-208.4c0 1.9-1.5 3.4-3.4 3.4h-179.4c-40.9 0-74.2-33.3-74.2-74.2v-1.5c0-40.9 33.3-74.2 74.2-74.2h179.4c1.9 0 3.4 1.5 3.4 3.4zm-145.2-71.5a42.5 42.5 0 0 1-42.5 42.5 42.5 42.5 0 0 1-42.5-42.5 42.5 42.5 0 0 1 42.5-42.5 42.5 42.5 0 0 1 42.5 42.5z"></path></symbol><symbol id="Iconz30-real"><path d="M443.4 655.563h-.1c-5.5 0-10.7-2.3-14.5-6.2l-119.3-124.8c-7.7-8.1-7.4-20.9.6-28.6 8.1-7.7 20.9-7.4 28.6.6l104.8 109.7 250.1-255.7c7.8-8 20.6-8.1 28.6-.3s8.1 20.6.3 28.6l-264.6 270.6c-3.8 3.9-9 6.1-14.5 6.1zm56.6 344.5c-5.2 0-10.3-2-14.3-5.9l-112.4-112.5-151.8 27.9c-11 2-21.5-5.3-23.5-16.2l-28-152.6-135.4-73.2c-9.5-5.1-13.3-16.8-8.6-26.5l67.8-140.9-67.8-141c-4.7-9.7-.9-21.3 8.5-26.5l135.5-74.1 28-151.8c2-11 12.5-18.2 23.5-16.2l151.7 27.8 112.5-112.5c7.9-7.9 20.7-7.9 28.6 0l112.5 112.5 151.7-27.8c11-2 21.5 5.2 23.5 16.2l28 151.8 135.5 74.1c9.4 5.2 13.2 16.8 8.5 26.5l-67.8 140.9 67.8 140.9c4.7 9.7.9 21.4-8.6 26.5l-135.4 73.2-28 152.6c-2 11-12.5 18.2-23.5 16.2l-151.7-27.8-112.5 112.5c-4 3.9-9.1 5.9-14.3 5.9zm-119.9-160.4c5.3 0 10.5 2.1 14.3 5.9l105.6 105.7 105.7-105.7c4.7-4.7 11.4-6.8 17.9-5.6l142.3 26.1 26.1-142.3c1.1-6 4.9-11.2 10.3-14.1l127-68.6-63.6-132.3c-2.7-5.5-2.7-12 0-17.5l63.7-132.4-127.1-69.5c-5.3-2.9-9.1-8.1-10.2-14.1l-26.1-141.4-142.3 26.1c-6.5 1.2-13.2-.9-17.9-5.6L500 48.862l-105.7 105.6c-4.7 4.7-11.4 6.8-17.9 5.6l-142.3-26.1-26.1 141.4c-1.1 6-4.8 11.1-10.2 14.1l-127.1 69.4 63.7 132.4c2.7 5.5 2.7 12 0 17.5l-63.6 132.3 127 68.6c5.4 2.9 9.2 8.1 10.3 14.1l26.1 142.3 142.3-26.1c1.1-.1 2.3-.3 3.6-.3z"></path></symbol><symbol id="Iconz30-sagittarius"><path d="M999.976 61.05c.1-3.4-.2-6.6-1.3-9.3-2.8-6.9-9.1-12-16.4-12.9-.1 0-440.9 54.9-440.9 54.9-11 1.4-18.7 11.4-17.3 22.3 1.4 11 11.4 18.7 22.3 17.3l374.1-47-636.6 585-169.6-200.1c-7.1-8.4-19.8-9.5-28.2-2.3-8.4 7.1-9.5 19.8-2.3 28.2l170.7 201.3-248 227.9c-8.1 7.5-8.7 20.1-1.2 28.3 3.9 4.3 9.3 6.5 14.7 6.5 4.8 0 9.7-1.7 13.5-5.3l246.8-226.8 169.7 200.1c4 4.7 9.6 7.1 15.3 7.1 4.6 0 9.2-1.6 12.9-4.7 8.4-7.1 9.5-19.8 2.3-28.2l-170.7-201.5 637.7-586.1-76.5 362.2c-2.3 10.8 4.6 21.4 15.4 23.7 1.4.3 2.8.4 4.2.4 9.3 0 17.6-6.5 19.5-15.9 5.7-26.9 11.4-53.7 17-80.6 11.8-56 23.6-111.9 35.5-167.9 10.3-48.2 37-166.2 37.4-176.6z"></path></symbol><symbol id="Iconz30-scorpio"><path d="M999.103 868.313c-1.4-4.3-4-7.7-7.4-10.2-34.5-36.9-51.5-81.2-53.5-139.5-.4-11-9.6-19.7-20.7-19.3-11 .4-19.7 9.6-19.3 20.7 1.7 50 13.7 92.6 36.4 129.2-95.1-23.4-139-122.3-147.4-208.5-5.4-55.4 2.5-107.1 11-161.8 2.4-15.5 4.9-31.4 7-47.6 12-89.3 13.9-162 6-228.8-4.5-38.3-14.6-94-49.6-136.7-27.9-33.9-67.3-52.2-108-50.2-41.3 2.1-79.1 24.5-103.8 61.5-20.6 30.9-37.5 69.9-50.6 116.5-.3-1.4-.5-2.9-.8-4.3-10.3-52.1-26.9-93.5-49.4-123-27.9-36.7-65.1-56.3-110.6-58.4-32.7-1.5-62 10.5-87.2 35.4-38.5 38.2-67 107.1-84.8 205-1.3-5.8-2.7-11.5-4.3-17.2-22.4-84.4-64.9-149.7-130-199.7-8.8-6.7-21.3-5.1-28 3.7-6.7 8.8-5.1 21.3 3.7 28 129.5 99.6 133.9 244.5 138.6 398 .3 11 .7 22.4 1.1 33.6.4 11 9.7 19.7 20.7 19.3 11-.4 19.7-9.7 19.3-20.7-1.2-33 .1-118.6 13.1-206.5 15.6-105.2 42.8-179.5 78.7-215.1 17.2-17 35.9-24.8 57.3-23.9 63.1 2.8 103.2 51.6 122.5 149.2 9.6 48.7 12.6 103.6 12.9 155-5.1 59.7-4.6 111-3.5 140.8v.3c-.4 11.6-.5 22-.4 30.6.1 11 9.1 19.7 20 19.7h.3c11-.1 19.9-9.2 19.7-20.3-.2-14.7.6-35.4 1.5-59.4 1.2-31.5 2.6-69.9 2.4-110.8 8.3-95.5 29.7-192 71-254 17.6-26.4 44-42.3 72.5-43.7 28.4-1.4 55 11.2 75.1 35.6 21.6 26.3 34.6 63.1 40.8 116 7.5 63.4 5.6 132.9-5.9 218.8-2.1 15.8-4.6 31.6-6.9 46.9-8.8 57.3-17.2 111.4-11.3 171.8 6.5 65.9 29.9 126.6 65.9 170.7 26.1 32 58 54.7 94.2 67.3-38.9 20.5-69.3 46.4-92.1 78.3-6.4 9-4.3 21.5 4.7 27.9 3.5 2.5 7.6 3.7 11.6 3.7 6.2 0 12.4-2.9 16.3-8.4 29.6-41.5 73.5-70.3 138.1-90.8 10.6-2.9 16.4-14.2 13.1-24.7z"></path></symbol><symbol id="Iconz30-search_female">
    <path d="M14.5 17a7.6 7.6 0 0 1-1.3-.1 1 1 0 1 1 .3-2A5.5 5.5 0 1 0 9 9.5a5.5 5.5 0 0 0 1.6 3.9 1 1 0 0 1-1.4 1.4 7.5 7.5 0 1 1 5.3 2.2Z"></path>
    <path d="M3 22a1 1 0 0 1-.7-1.7l6.6-6.6a1 1 0 0 1 1.4 1.4l-6.6 6.6a1 1 0 0 1-.7.3Z"></path>
    <path d="M9 22a1 1 0 0 1-.7-.3l-6-6a1 1 0 0 1 1.4-1.4l6 6A1 1 0 0 1 9 22Z"></path>
</symbol><symbol id="Iconz30-setting"><path d="M636.6 313.3c0-8.9-3-17.2-8.9-24.8-5.9-7.6-13.5-13.6-22.6-17.8-9.2-4.3-18.9-6.4-29.1-6.4H423.9c-10.2 0-19.9 2.1-29.1 6.4-9.2 4.3-16.7 10.2-22.6 17.8-5.9 7.6-8.9 15.9-8.9 24.8 0 13 6.5 23.4 19.4 31.2 11.3 7.1 25.1 10.6 41.2 10.6h152c15.1 0 29-4.4 41.6-13.1 12.7-8.7 19.1-18.3 19.1-28.7zM329 697.8c0-8.9-3-17.2-8.9-24.8-5.9-7.6-13.5-13.6-22.6-17.8-9.2-4.3-18.9-6.4-29.1-6.4h-152c-10.2 0-19.9 2.1-29.1 6.4-9.2 4.3-16.7 10.2-22.6 17.8-5.9 7.6-8.9 15.9-8.9 24.8 0 13 6.5 23.4 19.4 31.2 11.3 7.1 25.1 10.6 41.2 10.6h152c15.1 0 29-4.4 41.6-13.1 12.6-8.7 19-18.3 19-28.7zm615.2-1c0-8.9-3-17.2-8.9-24.8-5.9-7.6-13.5-13.6-22.6-17.8-9.1-4.2-18.9-6.4-29.1-6.4h-152c-10.2 0-19.9 2.1-29.1 6.4-9.2 4.3-16.7 10.2-22.6 17.8-5.9 7.6-8.9 15.9-8.9 24.8 0 13 6.5 23.4 19.4 31.2 11.3 7.1 25.1 10.6 41.2 10.6h152c15.1 0 29-4.4 41.6-13.1 12.6-8.7 19-18.3 19-28.7zm-751.9-64.4c-11.1 0-20.2-9-20.2-20.2v-592c0-11.1 9-20.2 20.2-20.2s20.2 9 20.2 20.2v592c0 11.2-9.1 20.2-20.2 20.2zM499.9 1000c-11.1 0-20.2-9-20.2-20.2V399.5c0-11.1 9-20.2 20.2-20.2 11.1 0 20.2 9 20.2 20.2v580.4c0 11.1-9.1 20.1-20.2 20.1zm0-759.4c-11.1 0-20.2-9-20.2-20.2V20.2c0-11.1 9-20.2 20.2-20.2s20.2 9 20.2 20.2v200.2c0 11.2-9.1 20.2-20.2 20.2zM192.3 1000c-11.1 0-20.2-9-20.2-20.2V779.7c0-11.1 9-20.2 20.2-20.2s20.2 9 20.2 20.2v200.2c0 11.1-9.1 20.1-20.2 20.1zm615.2 0c-11.1 0-20.2-9-20.2-20.2V779.7c0-11.1 9-20.2 20.2-20.2s20.2 9 20.2 20.2v200.2c0 11.1-9.1 20.1-20.2 20.1zm0-367.6c-11.1 0-20.2-9-20.2-20.2v-592c0-11.1 9-20.2 20.2-20.2s20.2 9 20.2 20.2v592c0 11.2-9.1 20.2-20.2 20.2z"></path></symbol><symbol id="Iconz30-sign_in"><path d="M811 501.4c0-.1 0-.2.1-.3.1-.6.2-1.1.3-1.7 0-.2 0-.3.1-.5 0-.4.1-.9.1-1.3v-2.3c0-.6-.1-1.1-.2-1.7 0-.2-.1-.4-.1-.5-.1-.4-.1-.8-.2-1.1-.1-.2-.1-.5-.2-.7-.1-.3-.2-.7-.3-1-.1-.2-.1-.4-.2-.6l-.6-1.5c-.1-.2-.2-.4-.3-.5-.2-.4-.4-.7-.6-1.1l-.3-.6c-.2-.4-.5-.7-.7-1.1-.1-.1-.2-.3-.3-.4-.4-.5-.8-.9-1.2-1.4l-.1-.1-.2-.2c-.2-.2-.4-.5-.7-.7L599.1 287.7c-8-7.6-20.7-7.2-28.3.8-7.6 8-7.2 20.7.8 28.3l169.6 159.9H41.1c-11 0-20 9-20 20s9 20 20 20h699.7L562.4 683.1c-8.1 7.5-8.5 20.2-1 28.3 3.9 4.2 9.3 6.4 14.6 6.4 4.9 0 9.8-1.8 13.6-5.4l215.5-201 .1-.1.1-.1c.4-.4.8-.7 1.1-1.1.1-.1.2-.3.4-.4.3-.3.6-.7.8-1 .1-.1.2-.3.3-.4.3-.5.6-.9.9-1.4l.3-.6c.2-.3.3-.6.5-.9.1-.2.2-.5.3-.7.1-.1.1-.2.2-.4s.1-.4.2-.6c.1-.2.2-.5.2-.7.3-.7.4-1.1.5-1.6zm84.4 498.6H351.9c-46 0-83.5-37.5-83.5-83.5V673.6c0-11 9-20 20-20s20 9 20 20v242.9c0 24 19.5 43.5 43.5 43.5h543.5c24 0 43.5-19.5 43.5-43.5v-833c0-24-19.5-43.5-43.5-43.5H351.9c-24 0-43.5 19.5-43.5 43.5v260.3c0 11-9 20-20 20s-20-9-20-20V83.5c0-46 37.5-83.5 83.5-83.5h543.5c46 0 83.5 37.5 83.5 83.5v833c0 46-37.5 83.5-83.5 83.5z"></path></symbol><symbol id="Iconz30-sign_out"><path d="M255.2 679.5c8.5 7.9 8.9 21.1 1 29.6-4.1 4.4-9.7 6.7-15.3 6.7-5.1 0-10.2-1.9-14.3-5.6L14.3 512c-.1 0-.1-.1-.1-.2l-1.2-1.2-.4-.4c-.3-.3-.6-.7-.9-1.1-.1-.2-.2-.3-.3-.5-.3-.5-.7-1-.9-1.5l-.3-.6c-.2-.3-.3-.7-.5-1-.1-.3-.2-.5-.3-.8-.1-.1-.1-.3-.2-.4-.1-.2-.1-.4-.2-.6-.1-.2-.2-.5-.3-.7-.2-.5-.3-1-.4-1.5 0-.1 0-.1-.1-.2l-.3-1.8c0-.2 0-.3-.1-.5-.1-.5-.1-.9-.1-1.4v-2.4c0-.6.1-1.2.2-1.8 0-.2.1-.4.1-.5l.3-1.2c.1-.2.1-.5.2-.7.1-.4.2-.7.3-1.1.1-.2.1-.4.2-.7.2-.5.4-1.1.7-1.6.1-.2.2-.4.3-.5.2-.4.4-.7.6-1.1.1-.2.2-.4.4-.6.2-.4.5-.8.8-1.1.1-.1.2-.3.3-.4l1.2-1.5s0-.1.1-.1c.1-.1.2-.1.2-.2l.7-.7 203.1-191.5c8.4-7.9 21.7-7.5 29.6.9 7.9 8.4 7.5 21.7-.9 29.6L81.3 475.8H768c11.6 0 20.9 9.4 20.9 20.9 0 11.6-9.4 20.9-20.9 20.9H81.7ZM908.7 6.1H373.2c-46 0-83.5 37.5-83.5 83.5v256.5c0 11.6 9.4 20.9 20.9 20.9 11.5 0 20.9-9.4 20.9-20.9V89.6c0-22.9 18.7-41.6 41.6-41.6h535.5c22.9 0 41.6 18.7 41.6 41.6v820.8c0 22.9-18.7 41.6-41.6 41.6H373.2c-22.9 0-41.6-18.7-41.6-41.6V671c0-11.6-9.4-20.9-20.9-20.9-11.5 0-20.9 9.4-20.9 20.9v239.4c0 46 37.5 83.5 83.5 83.5h535.5c46 0 83.5-37.5 83.5-83.5V89.6c-.1-46-37.6-83.5-83.6-83.5Z"></path></symbol><symbol id="Iconz30-sign_up"><path d="m994.799 630.5-103.6-114.1c-3.6-4-8.7-6.4-14.1-6.5-5.4-.2-10.6 1.8-14.5 5.5l-302.5 289.9-.1.1-1.2 1.2c-.1.1-.2.3-.4.4-.3.3-.5.6-.8 1-.1.2-.2.3-.3.5-.3.4-.6.9-.9 1.4l-.3.6c-.2.3-.3.6-.5.9-.1.2-.2.4-.3.7-.2.4-.3.8-.4 1.2-.1.2-.1.3-.2.5l-.3 1.2-39.3 159.1c-1.7 6.8.3 13.9 5.2 18.9 3.8 3.8 8.9 5.9 14.2 5.9 1.5 0 3.1-.2 4.6-.5l155.4-36.6c.2 0 .3-.1.5-.1.2-.1.4-.1.7-.2.4-.1.7-.2 1.1-.4.3-.1.5-.2.8-.3.4-.2.8-.3 1.1-.5l.6-.3c.3-.2.6-.3.9-.5l.6-.3c.5-.3.9-.6 1.4-1l.2-.2c.4-.3.8-.6 1.2-1l.2-.2.2-.2c.1-.1.3-.2.4-.4l290-298.3c7.3-7.6 7.5-19.6.4-27.4zm-304.6 282.9-88.1-92.9 190.4-182.5 83.5 84.3zm-105.7-53.3 67.1 70.7-89.7 21.1zm319.3-166.4-82.5-83.3 54.1-51.8 77.2 85zm-184.6-441.9h-377.8c-11 0-20-9-20-20s9-20 20-20h377.9c11 0 20 9 20 20s-9 20-20.1 20zm0 154.9h-377.8c-11 0-20-9-20-20s9-20 20-20h377.9c11 0 20 9 20 20s-9 20-20.1 20zm0 154.4h-378.3c-11 0-20-9-20-20s9-20 20-20h378.4c11 0 20 9 20 20s-9 20-20.1 20zm-493-290.6c-21.3 0-38.7-17.4-38.7-38.7 0-21.3 17.4-38.7 38.7-38.7 21.3 0 38.7 17.4 38.7 38.7 0 21.3-17.4 38.7-38.7 38.7zm0 154.9c-21.3 0-38.7-17.4-38.7-38.7 0-21.3 17.4-38.7 38.7-38.7 21.3 0 38.7 17.4 38.7 38.7 0 21.3-17.4 38.7-38.7 38.7zm0 154.4c-21.3 0-38.7-17.4-38.7-38.7 0-21.3 17.4-38.7 38.7-38.7 21.3 0 38.7 17.4 38.7 38.7 0 21.3-17.4 38.7-38.7 38.7zm255.4 368.3h-398.8c-45.7 0-82.8-37.1-82.8-82.8V83.9c0-45.7 37.1-82.8 82.8-82.8h749.5c45.7 0 82.8 37.1 82.8 82.8v381c0 11-9 20-20 20s-20-9-20-20v-381c0-23.6-19.2-42.8-42.8-42.8h-749.5c-23.6 0-42.8 19.2-42.8 42.8v781.4c0 23.6 19.2 42.8 42.8 42.8h398.8c11 0 20 9 20 20s-8.9 20-20 20z"></path></symbol><symbol id="Iconz30-star5"><path d="m983.622 372.285-298.3-64.2c-5.7-1.2-10.6-4.8-13.6-9.8l-153.7-264c-8-13.8-28-13.7-35.9.1l-151.8 263.8c-2.9 5.1-7.9 8.7-13.6 9.9l-300.3 64.2c-15.6 3.3-21.8 22.3-11.1 34.2l204.2 226.8c3.9 4.4 5.8 10.2 5.2 16l-31.5 303.8c-1.7 15.9 14.5 27.6 29 21.1l279.4-123.9c5.4-2.4 11.5-2.4 16.8 0l279.4 123.9c14.6 6.5 30.7-5.3 29-21.1l-31.6-303.7c-.6-5.8 1.3-11.7 5.2-16l204.3-226.9c10.6-11.9 4.5-30.8-11.1-34.2z"></path></symbol><symbol id="Iconz30-taurus"><path d="M979.602 54.502c-1.6 0-40.5 1.1-91.5 18-67.6 22.4-125.2 62.5-166.5 115.9-34.1 44.1-52.7 81.8-67.7 112.1-21.9 44.4-35.5 71.9-81.8 90-23.3-6.1-47.4-9.3-72.1-9.3-25.8 0-51.1 3.5-75.4 10.1-43.6-18.1-57-45.1-78.5-88.7-14.9-30.3-33.6-68-67.7-112.1-41.3-53.4-98.9-93.5-166.5-115.9-51-16.9-89.9-18-91.5-18-11-.2-20.2 8.5-20.4 19.5-.3 11 8.5 20.2 19.5 20.5.4 0 35.6 1.1 81.2 16.4 60.3 20.3 109.5 54.6 146.1 102 31.6 40.9 48.5 75.1 63.4 105.3 17.8 36.2 32.9 66.7 65.3 89.7-27.4 13.5-52.8 31.6-75.1 53.8-53.3 53.3-82.6 124.1-82.6 199.5s29.3 146.2 82.6 199.5c53.4 53.4 124.2 82.7 199.6 82.7 75.4 0 146.2-29.3 199.5-82.6 53.3-53.3 82.6-124.1 82.6-199.5s-29.3-146.2-82.6-199.5c-22.8-22.8-48.7-41.1-76.9-54.7 33.7-23.2 49-54.2 67.2-90.9 14.9-30.2 31.8-64.4 63.4-105.4 36.7-47.4 85.8-81.7 146.1-102 45.6-15.3 80.8-16.4 81.1-16.4 11-.2 19.8-9.4 19.6-20.4-.3-11.1-9.4-19.8-20.4-19.6zm-237.5 608.9c0 133.5-108.6 242.1-242.1 242.1s-242.1-108.6-242.1-242.1 108.6-242.1 242.1-242.1 242.1 108.6 242.1 242.1z"></path></symbol><symbol id="Iconz30-top_star"><path d="M317.428 442.5h52.1v-36.7h-144.1v36.7h51.8v151.7h40.2zm184.6-39.5c-24.9 0-47.3 9.7-63.3 27.4-16.2 18-24.8 42.6-24.8 71.1 0 56.2 35.2 95.5 85.6 95.5 24.5 0 46.7-9.1 62.4-25.7 16.8-17.7 25.7-43 25.7-73.1 0-27.2-8-50.7-23.1-68-15.6-17.8-37.2-27.2-62.5-27.2zm-34.5 53.6c8.1-11.7 19.4-17.6 33.6-17.6 31.2 0 45.3 31.2 45.3 60.3 0 30.8-14.1 61.8-45.6 61.8-31.2 0-45.3-31.1-45.3-60-.1-17.6 4.2-33.3 12-44.5zm289.2-35.7c-12.2-10.8-30.2-16.4-53.7-16.4-15.4 0-30.1 1.1-43.7 3.4l-7.5 1.3v185h40v-67c2.9.2 5.8.2 8.7.2 24.7 0 45.5-7.6 58.6-21.5 10.4-10.7 15.6-25.1 15.6-42.6-.1-17.3-6.4-32.3-18-42.4zm-22.1 43.5c0 22.7-18.3 27.4-33.7 27.4-3.5 0-6.5-.1-9.2-.4v-50.9c3.1-.3 7-.5 11.7-.5 20.8 0 31.2 8.2 31.2 24.4zm62.3 511.6c-2.7 0-5.4-.6-7.9-1.7l-289-128.1-288.9 128.1c-6.4 2.8-13.8 2-19.5-2.1-5.7-4.1-8.7-10.9-8-17.9l32.7-314.2-211.3-234.6c-4.7-5.2-6.2-12.5-4.1-19.2 2.2-6.7 7.7-11.7 14.6-13.1l310.4-66.4 157.1-273c3.5-6.1 9.9-9.8 16.9-9.8h.1c7 0 13.4 3.7 16.9 9.7l159 273.1 308.6 66.4c6.8 1.5 12.4 6.5 14.5 13.1 2.2 6.7.6 14-4.1 19.2l-211.3 234.7 32.7 314.2c.7 7-2.3 13.8-8 17.9-3.3 2.4-7.3 3.7-11.4 3.7zm-740-571.5 194.4 216c3.7 4.1 5.5 9.6 4.9 15.2l-30.1 289.1 265.9-117.9c5.1-2.2 10.8-2.2 15.9 0l265.9 117.9-30.1-289.1c-.6-5.5 1.2-11 4.9-15.2l194.5-216-284-61.1c-5.4-1.2-10-4.5-12.8-9.3l-146.2-251.3-144.5 251.2c-2.8 4.8-7.5 8.2-12.9 9.4z"></path></symbol><symbol id="Iconz30-trash"><path d="M908.5 200h-250V67c0-16.7-7-32-21-46s-29.3-21-46-21h-200c-16.7 0-32 7-46 21s-21 29.3-21 46v133h-233c-4 .7-7.2 2.7-9.5 6s-3.5 6.8-3.5 10.5 1.2 7.2 3.5 10.5 5.5 5.3 9.5 6h33v667c0 26.7 8.3 49.7 25 69 18.7 20.7 43.7 31 75 31h534c31.3 0 56.3-10.3 75-31 16.7-19.3 25-42.3 25-69V233h50c4-.7 7.2-2.7 9.5-6s3.5-6.8 3.5-10.5-1.2-7.2-3.5-10.5-5.5-5.3-9.5-6zm-550-133 33-34h200l33 34v133h-266zm466 833c0 18.7-4.7 34-14 46-11.3 14-28.7 21-52 21h-534c-16.7 0-31.8-7-45.5-21s-20.5-29.3-20.5-46V233h666zm-200-133V383c0-4.7 1.7-8.7 5-12 3.3-3.3 7.3-5 12-5s8.7 1.7 12 5c3.3 3.3 5 7.3 5 12v384c0 4.7-1.7 8.7-5 12-3.3 3.3-7.3 5-12 5s-8.7-1.7-12-5c-3.3-3.3-5-7.3-5-12zm-150 0V383c0-4.7 1.7-8.7 5-12 3.3-3.3 7.3-5 12-5s8.7 1.7 12 5c3.3 3.3 5 7.3 5 12v384c0 4.7-1.7 8.7-5 12-3.3 3.3-7.3 5-12 5s-8.7-1.7-12-5c-3.3-3.3-5-7.3-5-12zm-150 0V383c0-4.7 1.7-8.7 5-12 3.3-3.3 7.3-5 12-5s8.7 1.7 12 5c3.3 3.3 5 7.3 5 12v384c0 4.7-1.7 8.7-5 12-3.3 3.3-7.3 5-12 5s-8.7-1.7-12-5c-3.3-3.3-5-7.3-5-12z"></path></symbol><symbol id="Iconz30-undo"><path d="M888.269 0c-11.4 0-17 6-17 18v524c0 28.7-7.2 55.3-21.5 79.7-14.4 24.4-33.7 43.8-58.1 58.1-24.4 14.4-50.9 21.5-79.7 21.5h-566.2l247.5-247.5c1.3-3.3 1.7-6.8 1-10.5s-2.2-6.8-4.5-9.5-5.3-4.3-9-5c-3.7-.7-7.2-.3-10.5 1l-267.6 262.1c-12.1 11.8-12 31.2 0 43l267.6 261.1c3.3 2.7 7.2 4 11.5 4s8.2-1.3 11.5-4c.9-1.1 4.2-5.1 4.3-11.2.1-6.5-3.5-10.9-4.3-11.9-80.5-78.8-161-157.6-241.5-236.5h560.2c34.7 0 67-8.9 96.7-26.6 29.7-17.7 53.4-41.4 71.1-71.1 17.7-29.7 26.6-62 26.6-96.7V18c0-5.3-2-9.7-6-13-4-3.3-8.1-5-12.1-5z"></path></symbol><symbol id="Iconz30-unit"><path d="M980 561.85H817.7v-227.4H980c11 0 20-9 20-20s-9-20-20-20H817.7v-172c0-11-9-20-20-20s-20 9-20 20v172H222.3v-172c0-11-9-20-20-20s-20 9-20 20v172H20c-11 0-20 9-20 20s9 20 20 20h162.3v227.4H20c-11 0-20 9-20 20s9 20 20 20h162.9c4.9 76.8 37.2 148.3 92.4 203.2 60 59.7 139.8 92.5 224.6 92.5 84.8 0 164.6-32.9 224.6-92.5 55.2-54.9 87.6-126.4 92.4-203.2H980c11 0 20-9 20-20s-9-20-20-20zm-202.3-227.4v227.1H222.3v-227.1ZM500 857.55c-146.3 0-266.5-113-277-255.7h554c-10.5 142.8-130.7 255.7-277 255.7z"></path></symbol><symbol id="Iconz30-up-down-arrow-circle"><path d="M960.799 305.4c-25.2-59.5-61.2-113-107.1-158.9-45.9-45.9-99.4-82-158.9-107.1-6-2.5-12-4.9-18-7.2-2.8-2-6.1-3.2-9.7-3.6-53.4-18.9-109.4-28.5-166.9-28.5-67.5 0-133 13.2-194.6 39.3-59.5 25.2-113 61.2-158.9 107.1-45.9 45.9-82 99.4-107.1 158.9C13.299 367 .099 432.5.099 500s13.2 133 39.3 194.6c25.2 59.5 61.2 113 107.1 158.9 45.9 45.9 99.4 82 158.9 107.1 61.7 26.1 127.1 39.3 194.6 39.3s133-13.2 194.6-39.3c59.5-25.2 113-61.2 158.9-107.1 45.9-45.9 82-99.4 107.1-158.9 26.1-61.7 39.3-127.1 39.3-194.6.2-67.5-13-133-39.1-194.6zM500.099 960c-49.5 0-97.2-7.9-141.9-22.4V389l89.4 127.1c3.9 5.5 10.1 8.5 16.4 8.5 4 0 8-1.2 11.5-3.6 9-6.4 11.2-18.8 4.9-27.9l-125.9-178.8-.1-.1c-.4-.5-.7-1-1.1-1.4l-.3-.3c-.3-.3-.6-.7-.9-1-.2-.2-.4-.3-.5-.5-.3-.2-.5-.5-.8-.7-.2-.2-.4-.3-.6-.5l-.9-.6c-.2-.1-.4-.3-.6-.4-.5-.3-1-.6-1.5-.8l-.6-.3c-.3-.2-.7-.3-1.1-.5-.2-.1-.5-.2-.7-.2-.2-.1-.4-.2-.6-.2-.1 0-.3-.1-.4-.1-.2-.2-.4-.2-.7-.3l-1.2-.3c-.2 0-.4-.1-.6-.1-.5-.1-1-.1-1.4-.2h-.3c-.6 0-1.2-.1-1.8-.1h-.5c-.4 0-.9 0-1.3.1-.2 0-.5.1-.7.1-.3 0-.7.1-1 .2-.3 0-.5.1-.8.2-.3.1-.7.2-1 .3-.2.1-.5.1-.7.2-.5.2-1.1.4-1.6.6-.2.1-.3.2-.5.2l-1.2.6c-.2.1-.4.2-.5.3-.4.2-.8.5-1.2.7-.1.1-.2.1-.3.2l-.1.1c-.5.4-1 .7-1.5 1.2-.1 0-.1.1-.2.1-.4.3-.8.7-1.1 1.1-.2.2-.3.4-.5.6-.2.3-.5.5-.7.8-.2.2-.4.4-.5.7-.1.1-.1.2-.2.3l-121.6 171c-6.4 9-4.3 21.5 4.7 27.9 9 6.4 21.5 4.3 27.9-4.7l85.3-120v534c-163.3-70.7-277.9-233.4-277.9-422.5 0-253.6 206.4-460 460-460 50.7 0 99.5 8.2 145.1 23.4v544.7l-85.3-120c-6.4-9-18.9-11.1-27.9-4.7-9 6.4-11.1 18.9-4.7 27.9l121.6 171c.1.1.2.2.2.3.1.2.2.3.4.5.3.4.7.8 1 1.2l.3.3 1.1 1.1.1.1c.5.4.9.8 1.4 1.1l.1.1.1.1c.4.2.7.5 1.1.7l.1.1 1.2.6c.2.1.4.2.5.2.2.1.5.2.7.3l.6.3c.2.1.4.1.6.2.4.1.8.3 1.2.4.2.1.4.1.6.2.2.1.5.1.7.2.2 0 .4.1.6.1.2 0 .5.1.7.1.2 0 .5.1.7.1.2 0 .4 0 .6.1h1.3c.5 0 .9 0 1.4-.1h.4c.3 0 .7-.1 1-.1.2 0 .3 0 .5-.1.4-.1.8-.1 1.2-.2h.2c.5-.1.9-.2 1.4-.4h.1c.1 0 .1 0 .2-.1.4-.1.8-.3 1.2-.4.1 0 .2-.1.3-.1.9-.4 1.8-.8 2.7-1.4.1 0 .1-.1.2-.1.4-.2.7-.5 1.1-.7.1 0 .1-.1.2-.1.8-.6 1.6-1.2 2.3-1.9l.2-.2c.3-.3.5-.6.8-.9l.3-.3c.2-.3.4-.5.6-.8.1-.1.2-.2.3-.4 0-.1.1-.1.1-.2l125.8-178.8c6.4-9 4.2-21.5-4.8-27.9-9-6.4-21.5-4.2-27.9 4.9l-89.4 127.1V78.8c161.7 71.5 274.9 233.4 274.9 421.2 0 253.6-206.4 460-460 460z"></path></symbol><symbol id="Iconz30-virgo"><path d="M979.916 856.963c-47.3 0-84.7-16.3-113.6-41.8 1.8-2.8 3.7-5.5 5.4-8.3 51.1-79.4 79.3-161.3 83.8-243.5 6-108.5-11.8-170.4-53-184-14.8-4.9-39.7-5.3-73.7 20.6-6.8 5.2-13.8 11.3-20.7 18.1 10.3-82.6 11.5-151 4.1-214.2-4.5-38.3-14.6-94.2-49.7-136.9-27.9-34-67.3-52.3-108.1-50.2-41.4 2.1-79.3 24.5-103.9 61.6-20.6 31-37.6 70.1-50.7 116.8-.3-1.5-.5-3-.8-4.4-10.3-52.2-27-93.6-49.5-123.2-28-36.8-65.2-56.4-110.7-58.4-32.7-1.5-62.1 10.5-87.3 35.5-38.6 38.3-67.1 107.3-84.9 205.5-1.3-5.8-2.8-11.7-4.3-17.4-22.5-84.5-65-149.9-130.2-200-8.8-6.7-21.3-5.1-28 3.7-6.7 8.8-5.1 21.3 3.7 28 129.6 99.7 134.1 244.9 138.8 398.6.3 11.1.7 22.5 1.1 33.7.4 11 9.7 19.7 20.7 19.3 11-.4 19.7-9.7 19.3-20.7-1.2-33 .1-118.8 13.2-206.8 15.6-105.3 42.9-179.8 78.8-215.4 17.2-17 36-24.9 57.4-23.9 63.3 2.8 103.4 51.7 122.7 149.5 9.6 48.8 12.6 103.8 12.9 155.3-5.1 59.8-4.6 111.2-3.5 141.1v.3c-.4 11.7-.5 22-.4 30.7.1 11 9.1 19.7 20 19.7h.3c11-.1 19.9-9.2 19.7-20.3-.2-14.7.6-35.5 1.5-59.5 1.2-31.5 2.6-70 2.4-110.9 8.4-95.7 29.8-192.3 71.1-254.4 17.6-26.4 44.1-42.4 72.7-43.8 28.4-1.4 55.1 11.2 75.2 35.7 21.6 26.3 34.6 63.2 40.9 116.2 7.5 63.5 5.6 133.1-5.9 219.1-2.1 15.9-4.6 31.7-6.9 46.9-8.9 57.4-17.2 111.6-11.3 172.1 6.5 66 29.9 126.8 66 171 .2.2.4.4.5.7-39.8 54.2-86 100.4-128.3 137.2-8.3 7.2-9.2 19.9-2 28.2 4 4.6 9.5 6.9 15.1 6.9 4.6 0 9.3-1.6 13.1-4.9 51.2-44.5 95-90.8 130.6-138.3 38 32.4 84.5 49.3 136.5 49.4 11 0 20-8.9 20-20-.1-11.2-9-20.2-20.1-20.2zm-191.7-214c-5-51.2 1.4-99.2 9-149.3 39.4-56.4 77-81.5 92.8-76.2 12.2 4 31.4 38.9 25.6 143.8-4.6 82.6-35.4 157.7-77.2 223.1-29.6-40.9-45.4-93.1-50.2-141.4z"></path></symbol></svg>