<?xml version="1.0" encoding="UTF-8" standalone="no"?><!--Generator: Adobe Illustrator 19.0.1, SVG Export Plug-In . SVG Version: 6.00 Build 0)--><svg xmlns="http://www.w3.org/2000/svg" xmlns:inkscape="http://www.inkscape.org/namespaces/inkscape" xmlns:sodipodi="http://sodipodi.sourceforge.net/DTD/sodipodi-0.dtd" xmlns:svg="http://www.w3.org/2000/svg" inkscape:version="1.2.2 (732a01da63, 2022-12-09)" sodipodi:docname="bookmark_Iconz.svg" xml:space="preserve" id="Слой_1" width="1000" height="1000" x="0" y="0" version="1.2" viewBox="0 0 1000 1000"><defs id="defs427"/><sodipodi:namedview inkscape:current-layer="Слой_1" inkscape:cx="500" inkscape:cy="500" inkscape:deskcolor="#d1d1d1" inkscape:pagecheckerboard="0" inkscape:pageopacity="0" inkscape:showpageshadow="2" inkscape:window-height="1018" inkscape:window-maximized="1" inkscape:window-width="1920" inkscape:window-x="-8" inkscape:window-y="-8" inkscape:zoom=".815" id="namedview425" bordercolor="#000000" borderopacity=".25" pagecolor="#ffffff" showgrid="false"/><g id="g422" transform="translate(-382.05,315.5)"><path id="path420" fill="#1d1d1b" d="M588.3 684.5c-6.5 0-13-1.6-18.9-4.8-13-7-21.1-20.5-21.1-35.3v-859.7c0-55.3 45-100.2 100.2-100.2h467.1c55.3 0 100.2 45 100.2 100.2v858.9c0 15-8.2 28.6-21.5 35.5-13.2 6.9-29.1 6-41.4-2.5l-231.6-160c-20.4-14.1-46.8-14.3-67.5-.6L610.5 677.8c-6.7 4.4-14.5 6.7-22.2 6.7zm0-40.1 243.3-161.7c16.8-11.1 36.3-16.9 56.4-16.8 20.1.2 39.5 6.3 56.1 17.7l231.6 159.9v-858.9c0-33.2-27-60.1-60.1-60.1H648.4c-33.2 0-60.1 27-60.1 60.1z"/></g></svg>