<svg xmlns="http://www.w3.org/2000/svg" xml:space="preserve" width="1000" height="1000" version="1.2"><path d="M969.2 91.118c-26.3-38.2-71.1-67.8-122.9-81.1-53.9-13.9-106.7-7.3-144.8 18.1-49.1 32.7-84 81.2-106.6 148.4-19.2 57-26.9 118.3-34.4 177.6-2.3 18.3-4.5 35.6-7 52.5-12.8 86.7-21.8 175.2-30.6 260.8-6.9 67.3-14 136.1-22.9 204.5-8.9-68.4-16-137.2-22.9-204.5-8.8-85.6-17.9-174.1-30.6-260.8-2.5-16.9-4.7-34.2-7-52.5-7.5-59.2-15.2-120.5-34.4-177.5-22.6-67.1-57.5-115.7-106.6-148.4-38.1-25.4-90.9-32-144.8-18.1-51.8 13.3-96.6 42.9-122.9 81.1-30.1 43.7-38.7 104.1-23.6 165.6 20 81.6 78 153.1 159 196 9.8 5.2 21.9 1.4 27-8.3 5.2-9.8 1.4-21.9-8.3-27-71-37.6-121.6-99.6-138.9-170.2-12.4-50.5-5.9-99.1 17.7-133.4 20.6-29.9 57.9-54.3 99.9-65.1 42.9-11.1 84-6.4 112.7 12.6 94 62.4 109.8 187.3 123.6 297.6 2.3 18.5 4.5 36 7.1 53.3 12.6 85.9 21.7 173.9 30.4 259.1 10.4 101.5 21.2 206.5 38.2 309 1.6 9.8 10.1 16.7 19.7 16.7 1.1 0 2.2-.1 3.3-.3l1.5-.3 1.5.3c1.1.2 2.2.3 3.3.3 9.6 0 18.1-6.9 19.7-16.7 17-102.5 27.7-207.5 38.2-309 8.7-85.2 17.8-173.2 30.4-259.1 2.5-17.3 4.7-34.8 7.1-53.3 13.9-110.2 29.6-235.2 123.4-297.6 28.7-19.1 69.7-23.7 112.7-12.6 42 10.8 79.3 35.1 99.9 65.1 23.6 34.3 30.1 83 17.7 133.4-17.3 70.6-67.9 132.6-138.9 170.2-9.8 5.2-13.5 17.3-8.3 27 5.2 9.8 17.3 13.5 27 8.3 81-42.9 139-114.3 159-196 15.1-61.6 6.5-122-23.6-165.7z"/></svg>