<svg xmlns="http://www.w3.org/2000/svg" xml:space="preserve" width="1000" height="1000" version="1.2"><path d="M960.799 305.45c-25.2-59.5-61.2-113-107.1-158.9-45.9-45.9-99.4-82-158.9-107.1-61.7-26.2-127.2-39.4-194.7-39.4-67.5 0-133 13.2-194.6 39.3-59.5 25.2-113 61.2-158.9 107.1-45.9 45.9-82 99.4-107.1 158.9-26.2 61.7-39.4 127.2-39.4 194.7 0 67.5 13.2 133 39.3 194.6 25.2 59.5 61.2 113 107.1 158.9 45.9 45.9 99.4 82 158.9 107.1 61.7 26.1 127.1 39.3 194.6 39.3s133-13.2 194.6-39.3c59.5-25.2 113-61.2 158.9-107.1 45.9-45.9 82-99.4 107.1-158.9 26.1-61.7 39.3-127.1 39.3-194.6.2-67.5-13-133-39.1-194.6zm-460.7 654.6c-253.6 0-460-206.4-460-460 0-119.6 45.9-228.8 121.1-310.7l649.6 649.6c-81.9 75.2-191.1 121.1-310.7 121.1zm338.9-149.3-649.6-649.7c81.9-75.1 191.1-121 310.7-121 253.6 0 460 206.4 460 460 0 119.6-45.9 228.7-121.1 310.7z"/></svg>