<svg xmlns="http://www.w3.org/2000/svg" xml:space="preserve" width="1000" height="1000" version="1.2"><path fill="#1d1d1b" d="M206.25 1000c-6.5 0-13-1.6-18.9-4.8-13-7-21.1-20.5-21.1-35.3V100.2c0-55.3 45-100.2 100.2-100.2h467.1c55.3 0 100.2 45 100.2 100.2v858.9c0 15-8.2 28.6-21.5 35.5-13.2 6.9-29.1 6-41.4-2.5l-231.6-160c-20.4-14.1-46.8-14.3-67.5-.6l-243.3 161.8c-6.7 4.4-14.5 6.7-22.2 6.7zm0-40.1 243.3-161.7c16.8-11.1 36.3-16.9 56.4-16.8 20.1.2 39.5 6.3 56.1 17.7L793.65 959V100.1c0-33.2-27-60.1-60.1-60.1h-467.2c-33.2 0-60.1 27-60.1 60.1z"/></svg>