<svg xmlns="http://www.w3.org/2000/svg" xml:space="preserve" width="1000" height="1000" version="1.2"><path d="M789.543 436.894c-78.7-27.6-161.5 6-213.3 68-.5-86.5-.5-173.9-6.8-260.2-5.3-73-16.4-156.6-71.3-210.4-57.9-56.8-134.2-40.5-170.1 30.2-32.2 63.5-42.1 144.4-54.3 213.8-21.3-92.9-65.1-187.4-139-250.4-12.3-10.4-37.7-17.6-39.7 7.5-1.5 19.3 29.8 38.3 41.4 51.3 29.8 33.6 53.4 72.2 70.7 113.6 31.4 74.9 42.6 156.4 47.3 236.9.9 14.8-3.8 46.4 6.3 58.3 10.5 12.4 29.6 8.5 35-6.6 5.8-15.9.5-42 1.1-59.1.8-20.4 2.4-40.7 4.5-61 9-85.4 23.2-177.7 51.4-259.2 10.9-31.7 32.4-76.1 73-71.5 39.4 4.5 67.9 48.4 80.2 82.1 32.7 89.7 25.1 189.9 28.4 283.6 1.7 48.2 0 96.6 3.1 144.7 1.6 24.4-13.3 46.9-21 70.2-7.3 22-13.3 44.5-18.7 67.1-18.7 77.9-26.5 183.9-83.6 245.5-12.8 13.8-28.5 23.4-47 27-21.5 4.3-39.1-5.5-59.6-4.6-16.6.7-29.3 16.2-18 32 10 14.1 44.7 14.3 60.1 14.3 78.1 0 120.2-65.7 143.3-131.8 26.6-76.4 35.7-157.4 60.8-234.2 29.8 83.1 109 142.2 198.8 135.4 83.2-6.3 143.9-70.9 151.7-152.9 7.4-79.3-39.4-153.2-114.7-179.6zm70.6 199.1c-17 66.6-80.7 103.7-147.6 91.6-76.8-13.8-122.5-81.8-132.5-155.2 0-.2-.1-.4-.1-.7 0-.2-.1-.5-.1-.7.1-.2.3-.5.4-.7.1-.2.3-.5.4-.7 36.2-66.1 107.4-119.2 185.9-98 72.4 19.6 111.8 92.8 93.6 164.4z"/></svg>