<svg xmlns="http://www.w3.org/2000/svg" xml:space="preserve" width="1000" height="1000" version="1.2"><path fill="#1d1d1b" d="M936.05 314.7c-28.6-36.8-65.3-62.5-109.3-76.6V64.6c0-13.3-5-32.4-29.1-48.2C781.05 5.5 761.25 0 738.75 0s-42.3 5.5-58.9 16.4c-24 15.8-29.1 34.9-29.1 48.2v45.2l-319 109.7h-57.5c-23.4 0-29.1-.6-41.1 0-17 .9-34 1.8-54.8 7.7-34.7 9.9-58.2 27.4-68.4 35.3-3.3 2.5-13.3 10.3-24.9 22.2-17.4 17.9-32 38.5-43.6 61.7-16.8 33.5-25.3 70-25.3 108.4 0 38.4 8.5 74.7 25.3 107.9 16.7 33 39.7 60.9 68.4 83.1 25.8 19.9 54.6 33.5 85.8 40.4l93.3 278.8.2.5c7.5 20.6 27.2 34.5 49.2 34.5h53.4c16.8 0 32.7-8.1 42.5-21.8 9.8-13.6 12.5-31.2 7.2-47.1l-74.7-230 284.2 100.2v32.6c0 13.3 5 32.4 29.1 48.2 16.6 10.9 36.4 16.4 58.9 16.4s42.3-5.5 58.9-16.4c24-15.8 29.1-34.9 29.1-48.2V670.2c44-14.1 80.7-39.8 109.3-76.6 31.6-40.7 47.6-87.6 47.6-139.5-.2-51.8-16.2-98.8-47.8-139.4zm-705.2-55.2h84.2v389.3h-84.2zM77.05 544.6c-13.9-27.5-21-57.7-21-89.8 0-32.1 7.1-62.6 21-90.5 14-28 33.2-51.6 57.2-70.1 14-10.8 37.3-21.6 56.4-28.3v377.7c-20.3-6.3-39.2-16.1-56.4-29.4-23.9-18.6-43.2-42-57.2-69.6zm326.3 399.2c1.8 5.4-.6 9.6-1.7 11.1s-4.3 5.1-10 5.1h-53.4c-5.1 0-9.7-3.2-11.5-7.9l-88.1-263.3h81.9l82.8 254.8zm-48.3-289.2V253.8l295.9-101.7v606.8zm431.7 179.3c0 2 0 7.5-11 14.7-10.1 6.6-22.2 9.9-36.9 9.9s-26.8-3.2-36.9-9.9c-11-7.2-11-12.7-11-14.7v-18.5h.1V96h-.1V64.5c0-2 0-7.5 11-14.7 10.1-6.6 22.2-9.9 36.9-9.9s26.8 3.2 36.9 9.9c11 7.2 11 12.7 11 14.7zm117.7-264.8c-20.9 26.9-46.2 46.2-76.7 58.4V280.8c30.5 12.2 55.8 31.4 76.7 58.4 26.4 34 39.2 71.6 39.2 115 0 43.3-12.8 80.9-39.2 114.9z"/></svg>