<svg xmlns="http://www.w3.org/2000/svg" xml:space="preserve" width="1000" height="1000" version="1.2"><path d="M768.287 792h-541.5c-15.8 0-30-9.3-35.9-23.6L2.987 317.8c-6.7-16-1.8-33.8 12.1-44.4 14.6-11 33.9-10.8 48.2.5l255.2 202.1 143.7-361.5c5.8-14.6 19.9-24.1 35.8-24.2h.4c15.8 0 29.9 9.2 35.9 23.6.1.3.2.5.3.8l133.3 362.8 268.7-203.5c14.1-11.2 33.8-11.4 48.2-.6 14.1 10.6 19 28.6 12.1 44.7l-192.8 450.6c-6.1 14.2-20.1 23.3-35.8 23.3zm-540.9-40h540.3l189.9-443.7-265.7 201.2c-9.5 7.6-22.3 10.3-34.2 7.3-12-3-21.6-11.2-26.3-22.4-.1-.3-.2-.5-.3-.8l-132.8-361.7-143.2 360.3c-4.5 11.3-14 19.7-25.9 22.9-12 3.2-25 .6-34.7-7.1l-252.2-199.7Zm554.5 157.7h-570c-11 0-20-9-20-20s9-20 20-20h570c11 0 20 9 20 20s-8.9 20-20 20z"/></svg>