<svg xmlns="http://www.w3.org/2000/svg" xml:space="preserve" width="1000" height="1000" version="1.2"><path fill="#1d1d1b" d="M387.407 1000c-9.6 0-19.2-2.8-27.5-8.3-14-9.3-22.4-24.8-22.4-41.6V544.6l-308-467.3c-10.1-15.3-11-34.9-2.3-51.1C35.907 10 52.707 0 71.107 0h857.8c18.6 0 35.5 10.2 44.1 26.7 8.6 16.4 7.5 36.2-3.1 51.5l-321.3 466.6v315.1c0 20-11.9 38-30.3 45.9l-211.4 90.2c-6.2 2.7-12.8 4-19.5 4zM71.207 39.9c-5.4 0-7.9 3.7-8.8 5.2-.8 1.6-2.5 5.7.5 10.2l314.6 477.3v417.5c0 4.7 2.8 7.2 4.5 8.3 1.7 1.1 5.1 2.7 9.4.9l211.4-90.2c3.7-1.6 6.1-5.2 6.1-9.2V532.4l328.3-476.9c3.1-4.5 1.5-8.7.6-10.3-.8-1.6-3.4-5.3-8.8-5.3z"/></svg>