<svg xmlns="http://www.w3.org/2000/svg" xml:space="preserve" viewBox="0 0 472 472"><path d="M0 245.5v143c0 43.2 33.8 79 77 79H395c43.1 0 77-35.8 77-79v-231a76.4 76.4 0 0 0-77-77.2h-49.8c-6.4-49.6-39.6-75.8-72.9-75.8h-82.1c-33 0-66.5 26.2-72.9 75.8H76.6c-42.8 0-76.6 34-76.6 77.2v88zm395.1 187.4H77c-23.9 0-42-20.1-42-44v-96.2c26.3 24.5 73.8 52.4 147.5 61.5A48.3 48.3 0 0 0 230 395h4.7a48 48 0 0 0 47.5-40.8c76.9-9.6 128.5-39.6 154.7-64.1v98.8c.3 23.9-17.8 44-41.7 44zM247.7 346a14 14 0 0 1-14 14h-4a14 14 0 0 1-14-14v-47.8a14 14 0 0 1 14-14h4a14 14 0 0 1 14 14V346zM190.3 39.5h82.1c18.7 0 32.7 17.5 37.3 40.8H153c4.6-23.3 18.6-40.8 37.3-40.8zM76.9 115.2h318.2c24 0 42 18.4 42 42.3V240c-3 6.4-16.3 19.5-35.9 33.8-23 16.6-60.3 37-118.6 45.1v-20c0-27.2-21-49.6-48-49.6h-4.7a49.6 49.6 0 0 0-49.2 49.5v20.4c-99.1-13.7-137-64.7-145.7-78.4v-83.3c0-23.9 18-42.3 42-42.3z"/></svg>
