<svg xmlns="http://www.w3.org/2000/svg" xml:space="preserve" width="1000" height="1000" version="1.2"><path d="M885.456 847.123c-10-4.8-21.9-.6-26.7 9.3-28.5 59.1-86.5 116.7-163.9 100.9-47.7-9.7-88-47.8-100.5-94.8-13.5-51 8.9-86.5 37.3-131.4 1.6-2.5 3.2-5 4.7-7.5 9.4-14.9 19-30.1 28.4-44.8 20.9-32.9 42.6-66.9 63-100.8 37.1-61.7 61.9-114.4 78-165.7 20.6-65.4 26-125.9 16.7-185.1-6.5-41.1-21.4-80.8-43.2-114.9-23.3-36.4-54.1-65.7-89.1-84.8-48.9-26.7-107.4-34.4-160.4-21.3-68 16.8-122.4 64.1-153.1 132.9-17.9 40-26.8 85.3-25.8 131.1.6 29.3 5.3 57.9 13.8 84.5-16.8-4.2-34.1-6.4-51.6-6.4-115.7 0-209.8 94.1-209.8 209.8 0 115.7 94.1 209.8 209.8 209.8 115.7 0 209.8-94.1 209.8-209.8 0-77.1-42.2-146.5-107-183-32.5-65.1-33.7-150.6-2.9-219.6 25.6-57.4 70.5-96.6 126.2-110.4 43.5-10.8 91.5-4.4 131.7 17.6 58.3 31.8 100.1 95.7 112 170.9 19.3 122.9-37.7 237.7-89.5 324-20.1 33.5-41.6 67.3-62.4 100-9.4 14.7-19.1 30-28.5 44.9-1.6 2.5-3.1 5-4.7 7.4-15.3 24.2-29.8 47.2-38.8 72.8-10.4 29.8-11.5 59.3-3.3 90.1 16.2 61.4 69 111.1 131.2 123.8 11.1 2.3 22.2 3.4 33.2 3.4 32.6 0 64.4-9.9 93.3-29.2 33-22 61.9-56.4 81.4-97 4.8-9.9.6-21.9-9.3-26.7zm-402.8-288.9c0 93.6-76.2 169.8-169.8 169.8-93.6 0-169.8-76.2-169.8-169.8 0-93.6 76.2-169.8 169.8-169.8 14.8 0 29.5 1.9 43.7 5.7 12.1 3.2 23.6 7.7 34.3 13.3.3.2.6.3.9.5 54.9 28.7 90.9 86.2 90.9 150.3z"/></svg>