<svg xmlns="http://www.w3.org/2000/svg" xml:space="preserve" width="1000" height="1000" version="1.2"><path d="M980 683.9H607.9c-7.2 0-13.9-3.9-17.4-10.1-3.5-6.3-3.5-14 .3-20.1 2.3-3.8 5.7-6.7 9.7-8.3 89.5-37.8 147.3-125 147.3-222.2 0-132.9-108.2-241.1-241.1-241.1-132.9 0-241.1 108.2-241.1 241.1 0 97.2 57.9 184.4 147.4 222.2 3.5 1.4 6.6 3.9 8.9 7.1 4.3 6.1 4.8 14.1 1.4 20.7S413 684 405.6 684H20c-11 0-20-9-20-20s9-20 20-20h312.6c-22.6-17.8-42.5-39.2-58.8-63.4-31.5-46.5-48.2-101-48.2-157.4 0-75.1 29.2-145.7 82.3-198.8 53.1-53.1 123.7-82.3 198.8-82.3 75.1 0 145.7 29.2 198.8 82.3 53.1 53.1 82.3 123.7 82.3 198.8 0 56.4-16.7 110.8-48.2 157.4-16.4 24.2-36.2 45.5-58.8 63.4H980c11 0 20 9 20 20s-9 19.9-20 19.9zm0 174H20c-11 0-20-9-20-20s9-20 20-20h960c11 0 20 9 20 20s-9 20-20 20z"/></svg>