<svg xmlns="http://www.w3.org/2000/svg" xml:space="preserve" width="1000" height="1000" version="1.2"><path d="M858.95 940.2h-717.8C63.35 940.2.05 876.9.05 799.1v-477c0-77.8 63.3-141.1 141.1-141.1h143.6l17.2-62.1c9.6-34.8 41.5-59.1 77.6-59.1h240.9c36.1 0 68 24.3 77.6 59.1l17.2 62.1h143.6c77.8 0 141.1 63.3 141.1 141.1v477c.1 77.8-63.2 141.1-141 141.1zm-717.8-719.3c-55.7 0-101.1 45.4-101.1 101.2v477c0 55.8 45.4 101.1 101.1 101.1h717.7c55.8 0 101.1-45.4 101.1-101.1v-477c0-55.8-45.4-101.1-101.1-101.1h-174l-25.3-91.4c-4.8-17.5-20.9-29.8-39.1-29.8h-240.9c-18.2 0-34.2 12.2-39.1 29.7l-25.3 91.4zm30.4 70.6c-14 0-25.8 4.8-35.5 14.5s-14.5 21.5-14.5 35.5 4.8 25.8 14.5 35.5 21.5 14.5 35.5 14.5 25.8-4.8 35.5-14.5 14.5-21.5 14.5-35.5-4.8-25.8-14.5-35.5-21.5-14.5-35.5-14.5zm328.5 463.4c-103.6 0-187.8-84.3-187.8-187.8 0-103.6 84.2-187.9 187.8-187.9 103.6 0 187.8 84.3 187.8 187.8 0 103.6-84.2 187.9-187.8 187.9zm0-335.7c-81.5 0-147.8 66.3-147.8 147.8 0 81.5 66.3 147.9 147.8 147.9 81.5 0 147.8-66.3 147.8-147.8 0-81.5-66.3-147.9-147.8-147.9z"/></svg>