<svg xmlns="http://www.w3.org/2000/svg" xml:space="preserve" width="1000" height="1000" version="1.2"><path d="M700.45 529.337v-304.6c61.2-23.8 94.6-57.6 94.6-96 0-37.8-33.1-71.8-93.3-95.5-54.2-21.4-125.9-33.2-201.8-33.2s-147.6 11.8-201.8 33.2c-60.2 23.7-93.3 57.7-93.3 95.5 0 38.4 33.5 72.2 94.6 96v304.6c-61.2 23.8-94.6 57.6-94.6 96 0 37.8 33.1 71.8 93.3 95.5 47.7 18.8 109 30.2 174.8 32.7l16.7 236.8c.3 5.1 4.4 9.3 9.6 9.6 5.7.4 10.7-3.9 11.1-9.6l16.7-236.8c65.8-2.5 127-13.8 174.8-32.7 60.2-23.7 93.3-57.7 93.3-95.5-.1-38.4-33.5-72.2-94.7-96zm-13.5 153.9c-42.6 16.8-97.5 27.1-157.1 29.7-9.8.4-19.8.7-29.9.7-10.1 0-20.1-.2-29.9-.7-59.6-2.6-114.5-12.9-157.1-29.7-42.4-16.7-67.7-38.4-67.7-57.9 0-21.6 31-45.6 81-62.8 8.2-2.8 13.6-10.5 13.6-19.1v-332.8c0-8.6-5.5-16.3-13.6-19.1-49.9-17.1-81-41.2-81-62.8 0-19.5 25.3-41.2 67.7-57.9 49.6-19.6 116-30.4 187-30.4s137.4 10.8 187 30.4c42.4 16.7 67.7 38.4 67.7 57.9 0 21.6-31 45.6-81 62.8-8.2 2.8-13.6 10.5-13.6 19.1v332.8c0 8.6 5.5 16.3 13.6 19.1 49.9 17.1 81 41.2 81 62.8 0 19.6-25.3 41.2-67.7 57.9z"/></svg>