<svg xmlns="http://www.w3.org/2000/svg" xml:space="preserve" width="1000" height="1000" version="1.2"><path d="M82.03 262.29c-18.3 18.9-76.3 60.6-51 87.7 15.1 16.2 20.7 11.9 10.4 35.3-4.8 10.9-6 14.7-4.7 26.7 1.7 2.8 3.8 5.4 6.2 7.7-1.8 3.9-3.2 8-4.4 12.1 2 14.1 12.6 23.1 12.8 37.9.2 18.6-11.9 35.9-.7 53.8 24.1 38.5 78.1 11.4 112.2 10.6 45.3-1.1 59.2 38.1 78.6 72 11.4 19.8 22.7 39.7 34 59.6 10 17.5 33.3 45.1 34.9 65.4 1.3 17.2-13.8 36.4-17.2 53.7-3.7 18.401-4.2 37.101-8.9 55.401-11.1 43.5-42.4 81.3-48.2 126.3-5.9 46.2 58.1 30 88.4 30 49.7.1 99.5.1 149.2.1 46.9 0 93.8 0 140.8.1 23.7 0 116.4 14.5 121.2-16.8 2.5-16.6-12.1-44.3-17.7-59.4-7.8-21.3-16-42.5-24.7-63.5-15.7-38.3-33-75.9-55.5-110.7-22-34.1-48.9-63-78.8-90.3-30.5-27.9-64.7-56.8-78.5-97.2-16.3-47.9 15.8-56.9 48.9-80.7 34.1-24.5 54.8-64.5 66.8-103.9 12.7-41.8 20.8-85.9 17.6-129.6-1.4-19.7-4.8-39.3-10.6-58.2-3.5-11.4-22.1-40.8-16.9-49 8.8-14 42 2.5 50.1 8.4 12.1 8.9 21.6 20.8 28.9 33.8 28.1 50 1.4 110.4-12.3 160-17.9 64.9-36.3 142.9-16.8 209.3 21.2 72.4 86 151.5 151 148.8 31.5-1.3 76-22.5 75.4-36.6-.1-1.6-.6-3.2-1.6-4.8-2.9-4.6-26.3-7.4-33-12-16.5-11.2-28.2-31.4-26.5-51.6 3.1-37.4 45.8-66.4 68.9-92.1 28.6-32 54.4-67 73.1-105.8 36.4-75.5 46-168.5 5.3-244.4-44.4-82.7-136.8-131.4-228.3-139-49.6-4.1-99.7 3.2-146 21.7-15.1 6-42.6 29-57.4 27.5-5.5-.5-19.8-15.3-24.8-18.6-11.5-7.6-23.6-14.2-36.2-19.7-88.1-38.2-186.9-26.5-265.6 28.2-36.4 25.3-67.5 59-87.5 98.7-10.6 20.9-17.6 43.3-16.9 66.9.1 3.6 2.8 16.6-.3 33.1-1.2 5.7-2.6 10.1-3.7 13.1z"/></svg>