<svg xmlns="http://www.w3.org/2000/svg" xml:space="preserve" width="1000" height="1000" version="1.2"><path d="M112.95 773.038h-42.5c-11.2 0-20.2 9.1-20.2 20.2 0 11.2 9.1 20.2 20.2 20.2h42.5c11.2 0 20.2-9.1 20.2-20.2.1-11.1-9-20.2-20.2-20.2zm563 0h-75.1c-11.2 0-20.2 9-20.2 20.2s9 20.2 20.2 20.2h75.1c11.2 0 20.2-9 20.2-20.2 0-11.1-9.1-20.2-20.2-20.2zm-375.3 0h-75.1c-11.2 0-20.2 9-20.2 20.2s9 20.2 20.2 20.2h75.1c11.2 0 20.2-9 20.2-20.2 0-11.1-9-20.2-20.2-20.2zm187.6 0h-75.1c-11.2 0-20.2 9-20.2 20.2s9.1 20.2 20.2 20.2h75.1c11.2 0 20.2-9 20.2-20.2 0-11.1-9-20.2-20.2-20.2zm280 20.3c0 11.2 9.1 20.2 20.2 20.2h42.5c11.2 0 20.2-9.1 20.2-20.2 0-11.2-9.1-20.2-20.2-20.2h-42.5c-11.1-.1-20.2 9-20.2 20.2zm187.9-330.8h-44.7v-182.1c0-24.2-19.7-43.8-43.8-43.8h-123.3l-44-87.4c-4.5-9-14.9-13.3-24.4-10.1l-85.9 28.5-30.5-58.5c-4.7-8.9-15.2-13.1-24.7-9.7l-386.8 137c-.1 0-.3.1-.4.2H43.85c-24.2 0-43.8 19.7-43.8 43.8v577.5c0 24.2 19.7 43.8 43.8 43.8h823.8c24.2 0 43.8-19.7 43.8-43.8v-164.6h44.7c24.2 0 43.8-19.7 43.8-43.8v-143.2c0-24.2-19.6-43.8-43.8-43.8zm-257-225.9h-188.9l161.9-53.6zm-167.3-93.2 19.3 37-169.5 56.2h-112.9zm339.2 714.4c0 1.9-1.5 3.4-3.4 3.4H43.85c-1.9 0-3.4-1.5-3.4-3.4v-577.4c0-1.9 1.5-3.4 3.4-3.4h823.8c1.9 0 3.4 1.5 3.4 3.4v182.1h-94.3c-63.2 0-114.6 51.4-114.6 114.6v1.5c0 63.2 51.4 114.6 114.6 114.6h94.3zm88.5-208.4c0 1.9-1.5 3.4-3.4 3.4h-179.4c-40.9 0-74.2-33.3-74.2-74.2v-1.5c0-40.9 33.3-74.2 74.2-74.2h179.4c1.9 0 3.4 1.5 3.4 3.4zm-145.2-71.5a42.5 42.5 0 0 1-42.5 42.5 42.5 42.5 0 0 1-42.5-42.5 42.5 42.5 0 0 1 42.5-42.5 42.5 42.5 0 0 1 42.5 42.5z"/></svg>