<svg xmlns="http://www.w3.org/2000/svg" xml:space="preserve" width="1000" height="1000" version="1.2"><path d="M443.4 655.563h-.1c-5.5 0-10.7-2.3-14.5-6.2l-119.3-124.8c-7.7-8.1-7.4-20.9.6-28.6 8.1-7.7 20.9-7.4 28.6.6l104.8 109.7 250.1-255.7c7.8-8 20.6-8.1 28.6-.3s8.1 20.6.3 28.6l-264.6 270.6c-3.8 3.9-9 6.1-14.5 6.1zm56.6 344.5c-5.2 0-10.3-2-14.3-5.9l-112.4-112.5-151.8 27.9c-11 2-21.5-5.3-23.5-16.2l-28-152.6-135.4-73.2c-9.5-5.1-13.3-16.8-8.6-26.5l67.8-140.9-67.8-141c-4.7-9.7-.9-21.3 8.5-26.5l135.5-74.1 28-151.8c2-11 12.5-18.2 23.5-16.2l151.7 27.8 112.5-112.5c7.9-7.9 20.7-7.9 28.6 0l112.5 112.5 151.7-27.8c11-2 21.5 5.2 23.5 16.2l28 151.8 135.5 74.1c9.4 5.2 13.2 16.8 8.5 26.5l-67.8 140.9 67.8 140.9c4.7 9.7.9 21.4-8.6 26.5l-135.4 73.2-28 152.6c-2 11-12.5 18.2-23.5 16.2l-151.7-27.8-112.5 112.5c-4 3.9-9.1 5.9-14.3 5.9zm-119.9-160.4c5.3 0 10.5 2.1 14.3 5.9l105.6 105.7 105.7-105.7c4.7-4.7 11.4-6.8 17.9-5.6l142.3 26.1 26.1-142.3c1.1-6 4.9-11.2 10.3-14.1l127-68.6-63.6-132.3c-2.7-5.5-2.7-12 0-17.5l63.7-132.4-127.1-69.5c-5.3-2.9-9.1-8.1-10.2-14.1l-26.1-141.4-142.3 26.1c-6.5 1.2-13.2-.9-17.9-5.6L500 48.862l-105.7 105.6c-4.7 4.7-11.4 6.8-17.9 5.6l-142.3-26.1-26.1 141.4c-1.1 6-4.8 11.1-10.2 14.1l-127.1 69.4 63.7 132.4c2.7 5.5 2.7 12 0 17.5l-63.6 132.3 127 68.6c5.4 2.9 9.2 8.1 10.3 14.1l26.1 142.3 142.3-26.1c1.1-.1 2.3-.3 3.6-.3z"/></svg>