<svg xmlns="http://www.w3.org/2000/svg" xml:space="preserve" width="1000" height="1000" version="1.2"><path d="M999.103 868.313c-1.4-4.3-4-7.7-7.4-10.2-34.5-36.9-51.5-81.2-53.5-139.5-.4-11-9.6-19.7-20.7-19.3-11 .4-19.7 9.6-19.3 20.7 1.7 50 13.7 92.6 36.4 129.2-95.1-23.4-139-122.3-147.4-208.5-5.4-55.4 2.5-107.1 11-161.8 2.4-15.5 4.9-31.4 7-47.6 12-89.3 13.9-162 6-228.8-4.5-38.3-14.6-94-49.6-136.7-27.9-33.9-67.3-52.2-108-50.2-41.3 2.1-79.1 24.5-103.8 61.5-20.6 30.9-37.5 69.9-50.6 116.5-.3-1.4-.5-2.9-.8-4.3-10.3-52.1-26.9-93.5-49.4-123-27.9-36.7-65.1-56.3-110.6-58.4-32.7-1.5-62 10.5-87.2 35.4-38.5 38.2-67 107.1-84.8 205-1.3-5.8-2.7-11.5-4.3-17.2-22.4-84.4-64.9-149.7-130-199.7-8.8-6.7-21.3-5.1-28 3.7-6.7 8.8-5.1 21.3 3.7 28 129.5 99.6 133.9 244.5 138.6 398 .3 11 .7 22.4 1.1 33.6.4 11 9.7 19.7 20.7 19.3 11-.4 19.7-9.7 19.3-20.7-1.2-33 .1-118.6 13.1-206.5 15.6-105.2 42.8-179.5 78.7-215.1 17.2-17 35.9-24.8 57.3-23.9 63.1 2.8 103.2 51.6 122.5 149.2 9.6 48.7 12.6 103.6 12.9 155-5.1 59.7-4.6 111-3.5 140.8v.3c-.4 11.6-.5 22-.4 30.6.1 11 9.1 19.7 20 19.7h.3c11-.1 19.9-9.2 19.7-20.3-.2-14.7.6-35.4 1.5-59.4 1.2-31.5 2.6-69.9 2.4-110.8 8.3-95.5 29.7-192 71-254 17.6-26.4 44-42.3 72.5-43.7 28.4-1.4 55 11.2 75.1 35.6 21.6 26.3 34.6 63.1 40.8 116 7.5 63.4 5.6 132.9-5.9 218.8-2.1 15.8-4.6 31.6-6.9 46.9-8.8 57.3-17.2 111.4-11.3 171.8 6.5 65.9 29.9 126.6 65.9 170.7 26.1 32 58 54.7 94.2 67.3-38.9 20.5-69.3 46.4-92.1 78.3-6.4 9-4.3 21.5 4.7 27.9 3.5 2.5 7.6 3.7 11.6 3.7 6.2 0 12.4-2.9 16.3-8.4 29.6-41.5 73.5-70.3 138.1-90.8 10.6-2.9 16.4-14.2 13.1-24.7z"/></svg>