<svg xmlns="http://www.w3.org/2000/svg" xml:space="preserve" width="1000" height="1000" version="1.2"><path d="M255.2 679.5c8.5 7.9 8.9 21.1 1 29.6-4.1 4.4-9.7 6.7-15.3 6.7-5.1 0-10.2-1.9-14.3-5.6L14.3 512c-.1 0-.1-.1-.1-.2l-1.2-1.2-.4-.4c-.3-.3-.6-.7-.9-1.1-.1-.2-.2-.3-.3-.5-.3-.5-.7-1-.9-1.5l-.3-.6c-.2-.3-.3-.7-.5-1-.1-.3-.2-.5-.3-.8-.1-.1-.1-.3-.2-.4-.1-.2-.1-.4-.2-.6-.1-.2-.2-.5-.3-.7-.2-.5-.3-1-.4-1.5 0-.1 0-.1-.1-.2l-.3-1.8c0-.2 0-.3-.1-.5-.1-.5-.1-.9-.1-1.4v-2.4c0-.6.1-1.2.2-1.8 0-.2.1-.4.1-.5l.3-1.2c.1-.2.1-.5.2-.7.1-.4.2-.7.3-1.1.1-.2.1-.4.2-.7.2-.5.4-1.1.7-1.6.1-.2.2-.4.3-.5.2-.4.4-.7.6-1.1.1-.2.2-.4.4-.6.2-.4.5-.8.8-1.1.1-.1.2-.3.3-.4l1.2-1.5s0-.1.1-.1c.1-.1.2-.1.2-.2l.7-.7 203.1-191.5c8.4-7.9 21.7-7.5 29.6.9 7.9 8.4 7.5 21.7-.9 29.6L81.3 475.8H768c11.6 0 20.9 9.4 20.9 20.9 0 11.6-9.4 20.9-20.9 20.9H81.7ZM908.7 6.1H373.2c-46 0-83.5 37.5-83.5 83.5v256.5c0 11.6 9.4 20.9 20.9 20.9 11.5 0 20.9-9.4 20.9-20.9V89.6c0-22.9 18.7-41.6 41.6-41.6h535.5c22.9 0 41.6 18.7 41.6 41.6v820.8c0 22.9-18.7 41.6-41.6 41.6H373.2c-22.9 0-41.6-18.7-41.6-41.6V671c0-11.6-9.4-20.9-20.9-20.9-11.5 0-20.9 9.4-20.9 20.9v239.4c0 46 37.5 83.5 83.5 83.5h535.5c46 0 83.5-37.5 83.5-83.5V89.6c-.1-46-37.6-83.5-83.6-83.5Z"/></svg>