<svg xmlns="http://www.w3.org/2000/svg" xml:space="preserve" width="1000" height="1000" version="1.2"><path d="M979.602 54.502c-1.6 0-40.5 1.1-91.5 18-67.6 22.4-125.2 62.5-166.5 115.9-34.1 44.1-52.7 81.8-67.7 112.1-21.9 44.4-35.5 71.9-81.8 90-23.3-6.1-47.4-9.3-72.1-9.3-25.8 0-51.1 3.5-75.4 10.1-43.6-18.1-57-45.1-78.5-88.7-14.9-30.3-33.6-68-67.7-112.1-41.3-53.4-98.9-93.5-166.5-115.9-51-16.9-89.9-18-91.5-18-11-.2-20.2 8.5-20.4 19.5-.3 11 8.5 20.2 19.5 20.5.4 0 35.6 1.1 81.2 16.4 60.3 20.3 109.5 54.6 146.1 102 31.6 40.9 48.5 75.1 63.4 105.3 17.8 36.2 32.9 66.7 65.3 89.7-27.4 13.5-52.8 31.6-75.1 53.8-53.3 53.3-82.6 124.1-82.6 199.5s29.3 146.2 82.6 199.5c53.4 53.4 124.2 82.7 199.6 82.7 75.4 0 146.2-29.3 199.5-82.6 53.3-53.3 82.6-124.1 82.6-199.5s-29.3-146.2-82.6-199.5c-22.8-22.8-48.7-41.1-76.9-54.7 33.7-23.2 49-54.2 67.2-90.9 14.9-30.2 31.8-64.4 63.4-105.4 36.7-47.4 85.8-81.7 146.1-102 45.6-15.3 80.8-16.4 81.1-16.4 11-.2 19.8-9.4 19.6-20.4-.3-11.1-9.4-19.8-20.4-19.6zm-237.5 608.9c0 133.5-108.6 242.1-242.1 242.1s-242.1-108.6-242.1-242.1 108.6-242.1 242.1-242.1 242.1 108.6 242.1 242.1z"/></svg>