<svg xmlns="http://www.w3.org/2000/svg" xml:space="preserve" width="1000" height="1000" version="1.2"><path d="M317.428 442.5h52.1v-36.7h-144.1v36.7h51.8v151.7h40.2zm184.6-39.5c-24.9 0-47.3 9.7-63.3 27.4-16.2 18-24.8 42.6-24.8 71.1 0 56.2 35.2 95.5 85.6 95.5 24.5 0 46.7-9.1 62.4-25.7 16.8-17.7 25.7-43 25.7-73.1 0-27.2-8-50.7-23.1-68-15.6-17.8-37.2-27.2-62.5-27.2zm-34.5 53.6c8.1-11.7 19.4-17.6 33.6-17.6 31.2 0 45.3 31.2 45.3 60.3 0 30.8-14.1 61.8-45.6 61.8-31.2 0-45.3-31.1-45.3-60-.1-17.6 4.2-33.3 12-44.5zm289.2-35.7c-12.2-10.8-30.2-16.4-53.7-16.4-15.4 0-30.1 1.1-43.7 3.4l-7.5 1.3v185h40v-67c2.9.2 5.8.2 8.7.2 24.7 0 45.5-7.6 58.6-21.5 10.4-10.7 15.6-25.1 15.6-42.6-.1-17.3-6.4-32.3-18-42.4zm-22.1 43.5c0 22.7-18.3 27.4-33.7 27.4-3.5 0-6.5-.1-9.2-.4v-50.9c3.1-.3 7-.5 11.7-.5 20.8 0 31.2 8.2 31.2 24.4zm62.3 511.6c-2.7 0-5.4-.6-7.9-1.7l-289-128.1-288.9 128.1c-6.4 2.8-13.8 2-19.5-2.1-5.7-4.1-8.7-10.9-8-17.9l32.7-314.2-211.3-234.6c-4.7-5.2-6.2-12.5-4.1-19.2 2.2-6.7 7.7-11.7 14.6-13.1l310.4-66.4 157.1-273c3.5-6.1 9.9-9.8 16.9-9.8h.1c7 0 13.4 3.7 16.9 9.7l159 273.1 308.6 66.4c6.8 1.5 12.4 6.5 14.5 13.1 2.2 6.7.6 14-4.1 19.2l-211.3 234.7 32.7 314.2c.7 7-2.3 13.8-8 17.9-3.3 2.4-7.3 3.7-11.4 3.7zm-740-571.5 194.4 216c3.7 4.1 5.5 9.6 4.9 15.2l-30.1 289.1 265.9-117.9c5.1-2.2 10.8-2.2 15.9 0l265.9 117.9-30.1-289.1c-.6-5.5 1.2-11 4.9-15.2l194.5-216-284-61.1c-5.4-1.2-10-4.5-12.8-9.3l-146.2-251.3-144.5 251.2c-2.8 4.8-7.5 8.2-12.9 9.4z"/></svg>