<svg xmlns="http://www.w3.org/2000/svg" xml:space="preserve" width="1000" height="1000" version="1.2"><path d="M960.799 305.4c-25.2-59.5-61.2-113-107.1-158.9-45.9-45.9-99.4-82-158.9-107.1-6-2.5-12-4.9-18-7.2-2.8-2-6.1-3.2-9.7-3.6-53.4-18.9-109.4-28.5-166.9-28.5-67.5 0-133 13.2-194.6 39.3-59.5 25.2-113 61.2-158.9 107.1-45.9 45.9-82 99.4-107.1 158.9C13.299 367 .099 432.5.099 500s13.2 133 39.3 194.6c25.2 59.5 61.2 113 107.1 158.9 45.9 45.9 99.4 82 158.9 107.1 61.7 26.1 127.1 39.3 194.6 39.3s133-13.2 194.6-39.3c59.5-25.2 113-61.2 158.9-107.1 45.9-45.9 82-99.4 107.1-158.9 26.1-61.7 39.3-127.1 39.3-194.6.2-67.5-13-133-39.1-194.6zM500.099 960c-49.5 0-97.2-7.9-141.9-22.4V389l89.4 127.1c3.9 5.5 10.1 8.5 16.4 8.5 4 0 8-1.2 11.5-3.6 9-6.4 11.2-18.8 4.9-27.9l-125.9-178.8-.1-.1c-.4-.5-.7-1-1.1-1.4l-.3-.3c-.3-.3-.6-.7-.9-1-.2-.2-.4-.3-.5-.5-.3-.2-.5-.5-.8-.7-.2-.2-.4-.3-.6-.5l-.9-.6c-.2-.1-.4-.3-.6-.4-.5-.3-1-.6-1.5-.8l-.6-.3c-.3-.2-.7-.3-1.1-.5-.2-.1-.5-.2-.7-.2-.2-.1-.4-.2-.6-.2-.1 0-.3-.1-.4-.1-.2-.2-.4-.2-.7-.3l-1.2-.3c-.2 0-.4-.1-.6-.1-.5-.1-1-.1-1.4-.2h-.3c-.6 0-1.2-.1-1.8-.1h-.5c-.4 0-.9 0-1.3.1-.2 0-.5.1-.7.1-.3 0-.7.1-1 .2-.3 0-.5.1-.8.2-.3.1-.7.2-1 .3-.2.1-.5.1-.7.2-.5.2-1.1.4-1.6.6-.2.1-.3.2-.5.2l-1.2.6c-.2.1-.4.2-.5.3-.4.2-.8.5-1.2.7-.1.1-.2.1-.3.2l-.1.1c-.5.4-1 .7-1.5 1.2-.1 0-.1.1-.2.1-.4.3-.8.7-1.1 1.1-.2.2-.3.4-.5.6-.2.3-.5.5-.7.8-.2.2-.4.4-.5.7-.1.1-.1.2-.2.3l-121.6 171c-6.4 9-4.3 21.5 4.7 27.9 9 6.4 21.5 4.3 27.9-4.7l85.3-120v534c-163.3-70.7-277.9-233.4-277.9-422.5 0-253.6 206.4-460 460-460 50.7 0 99.5 8.2 145.1 23.4v544.7l-85.3-120c-6.4-9-18.9-11.1-27.9-4.7-9 6.4-11.1 18.9-4.7 27.9l121.6 171c.1.1.2.2.2.3.1.2.2.3.4.5.3.4.7.8 1 1.2l.3.3 1.1 1.1.1.1c.5.4.9.8 1.4 1.1l.1.1.1.1c.4.2.7.5 1.1.7l.1.1 1.2.6c.2.1.4.2.5.2.2.1.5.2.7.3l.6.3c.2.1.4.1.6.2.4.1.8.3 1.2.4.2.1.4.1.6.2.2.1.5.1.7.2.2 0 .4.1.6.1.2 0 .5.1.7.1.2 0 .5.1.7.1.2 0 .4 0 .6.1h1.3c.5 0 .9 0 1.4-.1h.4c.3 0 .7-.1 1-.1.2 0 .3 0 .5-.1.4-.1.8-.1 1.2-.2h.2c.5-.1.9-.2 1.4-.4h.1c.1 0 .1 0 .2-.1.4-.1.8-.3 1.2-.4.1 0 .2-.1.3-.1.9-.4 1.8-.8 2.7-1.4.1 0 .1-.1.2-.1.4-.2.7-.5 1.1-.7.1 0 .1-.1.2-.1.8-.6 1.6-1.2 2.3-1.9l.2-.2c.3-.3.5-.6.8-.9l.3-.3c.2-.3.4-.5.6-.8.1-.1.2-.2.3-.4 0-.1.1-.1.1-.2l125.8-178.8c6.4-9 4.2-21.5-4.8-27.9-9-6.4-21.5-4.2-27.9 4.9l-89.4 127.1V78.8c161.7 71.5 274.9 233.4 274.9 421.2 0 253.6-206.4 460-460 460z"/></svg>