<svg xmlns="http://www.w3.org/2000/svg" xml:space="preserve" width="1000" height="1000" version="1.2"><path d="M979.916 856.963c-47.3 0-84.7-16.3-113.6-41.8 1.8-2.8 3.7-5.5 5.4-8.3 51.1-79.4 79.3-161.3 83.8-243.5 6-108.5-11.8-170.4-53-184-14.8-4.9-39.7-5.3-73.7 20.6-6.8 5.2-13.8 11.3-20.7 18.1 10.3-82.6 11.5-151 4.1-214.2-4.5-38.3-14.6-94.2-49.7-136.9-27.9-34-67.3-52.3-108.1-50.2-41.4 2.1-79.3 24.5-103.9 61.6-20.6 31-37.6 70.1-50.7 116.8-.3-1.5-.5-3-.8-4.4-10.3-52.2-27-93.6-49.5-123.2-28-36.8-65.2-56.4-110.7-58.4-32.7-1.5-62.1 10.5-87.3 35.5-38.6 38.3-67.1 107.3-84.9 205.5-1.3-5.8-2.8-11.7-4.3-17.4-22.5-84.5-65-149.9-130.2-200-8.8-6.7-21.3-5.1-28 3.7-6.7 8.8-5.1 21.3 3.7 28 129.6 99.7 134.1 244.9 138.8 398.6.3 11.1.7 22.5 1.1 33.7.4 11 9.7 19.7 20.7 19.3 11-.4 19.7-9.7 19.3-20.7-1.2-33 .1-118.8 13.2-206.8 15.6-105.3 42.9-179.8 78.8-215.4 17.2-17 36-24.9 57.4-23.9 63.3 2.8 103.4 51.7 122.7 149.5 9.6 48.8 12.6 103.8 12.9 155.3-5.1 59.8-4.6 111.2-3.5 141.1v.3c-.4 11.7-.5 22-.4 30.7.1 11 9.1 19.7 20 19.7h.3c11-.1 19.9-9.2 19.7-20.3-.2-14.7.6-35.5 1.5-59.5 1.2-31.5 2.6-70 2.4-110.9 8.4-95.7 29.8-192.3 71.1-254.4 17.6-26.4 44.1-42.4 72.7-43.8 28.4-1.4 55.1 11.2 75.2 35.7 21.6 26.3 34.6 63.2 40.9 116.2 7.5 63.5 5.6 133.1-5.9 219.1-2.1 15.9-4.6 31.7-6.9 46.9-8.9 57.4-17.2 111.6-11.3 172.1 6.5 66 29.9 126.8 66 171 .2.2.4.4.5.7-39.8 54.2-86 100.4-128.3 137.2-8.3 7.2-9.2 19.9-2 28.2 4 4.6 9.5 6.9 15.1 6.9 4.6 0 9.3-1.6 13.1-4.9 51.2-44.5 95-90.8 130.6-138.3 38 32.4 84.5 49.3 136.5 49.4 11 0 20-8.9 20-20-.1-11.2-9-20.2-20.1-20.2zm-191.7-214c-5-51.2 1.4-99.2 9-149.3 39.4-56.4 77-81.5 92.8-76.2 12.2 4 31.4 38.9 25.6 143.8-4.6 82.6-35.4 157.7-77.2 223.1-29.6-40.9-45.4-93.1-50.2-141.4z"/></svg>